<?xml version="1.0" encoding="UTF-8"?>
<svg version="1.1" xmlns="http://www.w3.org/2000/svg" width="190" height="56">
<path d="M0 0 C217.8 0 435.6 0 660 0 C660 138.93 660 277.86 660 421 C442.2 421 224.4 421 0 421 C0 282.07 0 143.14 0 0 Z " fill="#E4E4E4" transform="translate(0,0)"/>
<path d="M0 0 C13.86 0 27.72 0 42 0 C42 70.29 42 140.58 42 213 C28.14 213 14.28 213 0 213 C0 142.71 0 72.42 0 0 Z " fill="#D22C1A" transform="translate(377,1)"/>
<path d="M0 0 C13.86 0 27.72 0 42 0 C42 56.43 42 112.86 42 171 C28.14 171 14.28 171 0 171 C0 114.57 0 58.14 0 0 Z " fill="#FDCB02" transform="translate(320,43)"/>
<path d="M0 0 C3.29159316 -0.05790353 6.58305603 -0.09356261 9.875 -0.125 C10.81214844 -0.14175781 11.74929688 -0.15851563 12.71484375 -0.17578125 C14.05869141 -0.18544922 14.05869141 -0.18544922 15.4296875 -0.1953125 C16.25710449 -0.20578613 17.08452148 -0.21625977 17.93701172 -0.22705078 C20 0 20 0 22 2 C22.39764263 3.98821313 22.73775349 5.98944339 23 8 C23.66 8 24.32 8 25 8 C25.99 12.95 25.99 12.95 27 18 C27.66 18 28.32 18 29 18 C29.33773437 18.97582031 29.67546875 19.95164063 30.0234375 20.95703125 C30.47373825 22.24226463 30.92427126 23.52741665 31.375 24.8125 C31.59671875 25.45509766 31.8184375 26.09769531 32.046875 26.75976562 C33.1239885 29.81686717 34.19061861 32.28592791 36 35 C36 36.32 36 37.64 36 39 C36.66 39 37.32 39 38 39 C41.23525071 45.92157003 44.30098046 52.91619302 47.3125 59.9375 C47.67408203 60.76612549 48.03566406 61.59475098 48.40820312 62.44848633 C48.74400391 63.23763428 49.07980469 64.02678223 49.42578125 64.83984375 C49.88078003 65.89739868 49.88078003 65.89739868 50.3449707 66.97631836 C51 69 51 69 51 73 C51.66 73 52.32 73 53 73 C55.15305957 76.85756507 56.39253254 79.55129785 56 84 C56.66 84 57.32 84 58 84 C58.38671875 85.14597656 58.7734375 86.29195313 59.171875 87.47265625 C59.69754515 89.00273186 60.22360779 90.53267265 60.75 92.0625 C61.00265625 92.81466797 61.2553125 93.56683594 61.515625 94.34179688 C63.22480712 99.27706024 65.30121671 103.5288015 68 108 C68.9352558 109.69822765 69.8543425 111.40555875 70.75 113.125 C71.17796875 113.93195313 71.6059375 114.73890625 72.046875 115.5703125 C73 118 73 118 73 123 C66.07 123 59.14 123 52 123 C42.16129032 103.80645161 42.16129032 103.80645161 40 93 C19.87 93 -0.26 93 -21 93 C-21.33 95.64 -21.66 98.28 -22 101 C-22.30169066 102.34084736 -22.61517681 103.6806062 -23 105 C-23.66 105 -24.32 105 -25 105 C-25.13535156 105.71929687 -25.27070312 106.43859375 -25.41015625 107.1796875 C-25.97408546 109.87609073 -26.65800185 112.48359177 -27.4375 115.125 C-27.68371094 115.97320312 -27.92992187 116.82140625 -28.18359375 117.6953125 C-29 120 -29 120 -31 123 C-33.24658203 123.34057617 -33.24658203 123.34057617 -36.0078125 123.29296875 C-36.99394531 123.28330078 -37.98007812 123.27363281 -38.99609375 123.26367188 C-40.02863281 123.23853516 -41.06117188 123.21339844 -42.125 123.1875 C-43.68541016 123.16719727 -43.68541016 123.16719727 -45.27734375 123.14648438 C-47.85207627 123.11105228 -50.4257833 123.06165221 -53 123 C-52.34 120.03 -51.68 117.06 -51 114 C-50.34 114 -49.68 114 -49 114 C-48.67 111.69 -48.34 109.38 -48 107 C-47.34 107 -46.68 107 -46 107 C-45.67 104.69 -45.34 102.38 -45 100 C-44.34 100 -43.68 100 -43 100 C-42.87882813 99.39671875 -42.75765625 98.7934375 -42.6328125 98.171875 C-42.46523438 97.37265625 -42.29765625 96.5734375 -42.125 95.75 C-41.96257813 94.96109375 -41.80015625 94.1721875 -41.6328125 93.359375 C-41.00849925 91.03168856 -40.15161458 89.10968048 -39 87 C-38.34 87 -37.68 87 -37 87 C-36.67 84.69 -36.34 82.38 -36 80 C-35.34 80 -34.68 80 -34 80 C-33.67 77.69 -33.34 75.38 -33 73 C-32.34 73 -31.68 73 -31 73 C-30.896875 72.360625 -30.79375 71.72125 -30.6875 71.0625 C-29.76096927 66.93522674 -28.38339371 62.99357051 -27 59 C-26.34 59 -25.68 59 -25 59 C-24.896875 58.175 -24.79375 57.35 -24.6875 56.5 C-23.88353944 52.40710988 -22.53647842 48.87459775 -21 45 C-20.34 45 -19.68 45 -19 45 C-18.67 42.69 -18.34 40.38 -18 38 C-17.34 38 -16.68 38 -16 38 C-16 37.01 -16 36.02 -16 35 C-15.34 35 -14.68 35 -14 35 C-13.67 32.69 -13.34 30.38 -13 28 C-12.34 28 -11.68 28 -11 28 C-10.34 24.7 -9.68 21.4 -9 18 C-8.34 18 -7.68 18 -7 18 C-6.5196682 16.41701974 -6.04078388 14.83360022 -5.5625 13.25 C-5.29566406 12.36828125 -5.02882813 11.4865625 -4.75390625 10.578125 C-4.11531506 8.39434165 -3.53224167 6.21164502 -3 4 C-2.34 4 -1.68 4 -1 4 C-0.67 2.68 -0.34 1.36 0 0 Z " fill="#322F86" transform="translate(579,228)"/>
<path d="M0 0 C7.59 0 15.18 0 23 0 C23.9765625 2.96223958 24.953125 5.92447917 25.9296875 8.88671875 C26.93983994 11.94908055 26.93983994 11.94908055 28.1328125 14.64453125 C29 17 29 17 29 21 C29.66 21 30.32 21 31 21 C31.67305018 22.60149886 32.33822227 24.20631029 33 25.8125 C33.37125 26.70582031 33.7425 27.59914062 34.125 28.51953125 C35 31 35 31 35 34 C35.66 34 36.32 34 37 34 C39.22656164 38.74354436 40.46148032 42.72250715 41 48 C41.66 48 42.32 48 43 48 C43.67031719 49.9570868 44.33614683 51.91571113 45 53.875 C45.37125 54.96554687 45.7425 56.05609375 46.125 57.1796875 C47 60 47 60 47 62 C47.66 62 48.32 62 49 62 C49 63.32 49 64.64 49 66 C49.66 66 50.32 66 51 66 C51.99 70.95 51.99 70.95 53 76 C53.66 76 54.32 76 55 76 C55.67528223 77.57967807 56.33989694 79.16391903 57 80.75 C57.556875 82.07257813 57.556875 82.07257813 58.125 83.421875 C59 86 59 86 59 90 C59.66 90 60.32 90 61 90 C61.495 93.96 61.495 93.96 62 98 C62.66 98 63.32 98 64 98 C64.33 99.65 64.66 101.3 65 103 C65.66 103 66.32 103 67 103 C67.67528223 104.57967807 68.33989694 106.16391903 69 107.75 C69.556875 109.07257813 69.556875 109.07257813 70.125 110.421875 C71 113 71 113 71 117 C71.66 117 72.32 117 73 117 C73.33 118.98 73.66 120.96 74 123 C66.74 123 59.48 123 52 123 C45.97321429 109.07142857 45.97321429 109.07142857 44.3125 104.5625 C42.99778867 100.99399783 41.49806808 97.49549219 40 94 C20.86 93.67 1.72 93.34 -18 93 C-18.99 95.97 -19.98 98.94 -21 102 C-21.66 102.99 -22.32 103.98 -23 105 C-23.66 105 -24.32 105 -25 105 C-25.103125 105.825 -25.20625 106.65 -25.3125 107.5 C-25.98296747 110.91328894 -26.99109122 113.85781713 -28.28125 117.0703125 C-29.1566192 119.31101227 -29.1566192 119.31101227 -30 123 C-37.26 123 -44.52 123 -52 123 C-50.5 117 -50.5 117 -49 111 C-48.34 111 -47.68 111 -47 111 C-46.67 109.02 -46.34 107.04 -46 105 C-45.34 105 -44.68 105 -44 105 C-43.896875 103.989375 -43.79375 102.97875 -43.6875 101.9375 C-42.96295233 97.78781792 -41.77730734 94.78643737 -40 91 C-39.34 91 -38.68 91 -38 91 C-37.67 89.02 -37.34 87.04 -37 85 C-36.34 85 -35.68 85 -35 85 C-34.90912109 84.07767578 -34.90912109 84.07767578 -34.81640625 83.13671875 C-34.73261719 82.32847656 -34.64882812 81.52023437 -34.5625 80.6875 C-34.48128906 79.88699219 -34.40007812 79.08648437 -34.31640625 78.26171875 C-34 76 -34 76 -33 73 C-32.34 73 -31.68 73 -31 73 C-31 72.01 -31 71.02 -31 70 C-30.34 70 -29.68 70 -29 70 C-28.67 67.69 -28.34 65.38 -28 63 C-27.34 63 -26.68 63 -26 63 C-25.81824219 62.443125 -25.63648438 61.88625 -25.44921875 61.3125 C-23.75122045 56.1575513 -21.92476784 51.07438794 -20 46 C-19.67 45.01 -19.34 44.02 -19 43 C-18.34 43 -17.68 43 -17 43 C-16.84144531 42.46632813 -16.68289062 41.93265625 -16.51953125 41.3828125 C-15.15499546 37.02534461 -13.5771744 33.0387937 -11.4375 29 C-9.03160972 24.37663253 -7.90864319 20.12144342 -7 15 C-6.34 15 -5.68 15 -5 15 C-4.67 13.02 -4.34 11.04 -4 9 C-3.34 9 -2.68 9 -2 9 C-1.855625 7.88625 -1.71125 6.7725 -1.5625 5.625 C-1 2 -1 2 0 0 Z " fill="#333086" transform="translate(154,228)"/>
<path d="M0 0 C0.99 0.33 1.98 0.66 3 1 C3 1.66 3 2.32 3 3 C3.99 3.33 4.98 3.66 6 4 C4.66666667 6.66666667 3.33333333 9.33333333 2 12 C1.34 12 0.68 12 0 12 C-0.28875 12.5775 -0.5775 13.155 -0.875 13.75 C-2.4375 16.875 -2.4375 16.875 -4 20 C-6.7803862 19.39059504 -9.09722206 18.55415142 -11.609375 17.22265625 C-12.28226562 16.87396484 -12.95515625 16.52527344 -13.6484375 16.16601562 C-15.03562747 15.43761197 -16.42108832 14.70590459 -17.8046875 13.97070312 C-26.99192576 9.22862102 -36.93095986 7.30649775 -47.21484375 9.46484375 C-50.79655832 10.78937277 -53.81447042 13.00760188 -56.11328125 16.0625 C-58.01981328 20.22831447 -57.83426658 24.57247501 -57 29 C-55.1248989 32.66464625 -52.96558741 34.67813753 -49 36 C-49 36.66 -49 37.32 -49 38 C-47.7315625 38.185625 -47.7315625 38.185625 -46.4375 38.375 C-43 39 -43 39 -39.8125 39.9375 C-36.77504576 40.78400364 -33.97422262 41.33569652 -30.875 41.8125 C-24.21933388 42.9751817 -18.1975972 45.36461081 -12 48 C-11.24589844 48.30808594 -10.49179688 48.61617188 -9.71484375 48.93359375 C-1.93404136 52.41407196 4.70684293 58.05768001 8 66 C8.66 66.33 9.32 66.66 10 67 C10 74.26 10 81.52 10 89 C9.34 89 8.68 89 8 89 C8 90.32 8 91.64 8 93 C7.34 93 6.68 93 6 93 C5.89816406 93.7425 5.79632813 94.485 5.69140625 95.25 C4.23967065 101.02413481 -0.78762959 105.41582325 -5.5625 108.75 C-21.08279293 117.43783001 -41.06166861 117.00230615 -58 113 C-58 112.34 -58 111.68 -58 111 C-58.57621094 110.86851562 -59.15242188 110.73703125 -59.74609375 110.6015625 C-68.36690748 108.30068674 -77.69963159 103.30036841 -84 97 C-83.66978249 93.58775242 -82.35173703 92.3298604 -80 90 C-78.75190582 88.45257702 -77.52351777 86.88910804 -76.3125 85.3125 C-75.68988281 84.50425781 -75.06726563 83.69601562 -74.42578125 82.86328125 C-73.95527344 82.24839844 -73.48476562 81.63351562 -73 81 C-69.08075053 81.8168541 -67.1127871 83.46633608 -64 86 C-60.78420766 88.03027949 -57.62265195 89.79244935 -54 91 C-54 91.66 -54 92.32 -54 93 C-52.865625 93.144375 -51.73125 93.28875 -50.5625 93.4375 C-47 94 -47 94 -46 95 C-42.46724423 95.30925476 -38.91961357 95.27854776 -35.375 95.3125 C-34.38886719 95.34150391 -33.40273438 95.37050781 -32.38671875 95.40039062 C-25.94428136 95.45629963 -22.32682519 94.62024179 -17 91 C-16.34 91 -15.68 91 -15 91 C-14.01 89.02 -14.01 89.02 -13 87 C-12.34 87 -11.68 87 -11 87 C-11.06050077 85.10330073 -11.14942117 83.20749667 -11.25 81.3125 C-11.29640625 80.25675781 -11.3428125 79.20101562 -11.390625 78.11328125 C-12.14028335 74.28329595 -13.19790492 72.7057874 -16 70 C-19.28407015 68.1914137 -19.28407015 68.1914137 -22.9375 66.8125 C-24.14277344 66.32394531 -25.34804688 65.83539063 -26.58984375 65.33203125 C-27.71519531 64.89246094 -28.84054688 64.45289063 -30 64 C-30.76828125 63.64550781 -31.5365625 63.29101562 -32.328125 62.92578125 C-36.39490227 61.5166786 -40.56377155 60.99599238 -44.8125 60.375 C-45.69615234 60.2409375 -46.57980469 60.106875 -47.49023438 59.96875 C-49.6594063 59.6404429 -51.82925378 59.31770124 -54 59 C-54 58.34 -54 57.68 -54 57 C-55.11375 56.814375 -55.11375 56.814375 -56.25 56.625 C-58.80141485 56.04513299 -60.7267573 55.26291261 -63 54 C-63 53.34 -63 52.68 -63 52 C-64.65 51.67 -66.3 51.34 -68 51 C-68 50.34 -68 49.68 -68 49 C-68.59554687 48.731875 -69.19109375 48.46375 -69.8046875 48.1875 C-74.13654887 45.84428673 -77.19767915 42.29342659 -78.828125 37.6328125 C-80.97712571 27.77810923 -80.92684128 17.09758599 -76.5 7.875 C-76.005 7.25625 -75.51 6.6375 -75 6 C-74.34 6 -73.68 6 -73 6 C-72.62875 5.071875 -72.62875 5.071875 -72.25 4.125 C-70.79371361 1.64931313 -69.62187494 1.04874998 -67 0 C-67 -0.66 -67 -1.32 -67 -2 C-49.81123754 -17.3413721 -17.60866483 -10.71442487 0 0 Z " fill="#322F86" transform="translate(84,237)"/>
<path d="M0 0 C1.33278992 0.00303635 1.33278992 0.00303635 2.69250488 0.00613403 C3.5987561 0.00517731 4.50500732 0.00422058 5.4387207 0.00323486 C7.35876535 0.002553 9.27881229 0.00440771 11.19885254 0.00857544 C14.14861192 0.01392361 17.09821902 0.00863066 20.04797363 0.00222778 C21.90865105 0.00288856 23.76932838 0.00416972 25.63000488 0.00613403 C26.51853149 0.0041098 27.40705811 0.00208557 28.32250977 0 C34.546305 0.02399665 34.546305 0.02399665 35.66125488 1.13894653 C35.75948582 2.76886208 35.78757437 4.40304639 35.78823853 6.03591919 C35.79105835 7.0960321 35.79387817 8.15614502 35.79678345 9.24838257 C35.79475922 10.4214093 35.79273499 11.59443604 35.79064941 12.80300903 C35.79240173 14.03049866 35.79415405 15.25798828 35.79595947 16.52267456 C35.79961772 19.89862932 35.79874453 23.27452315 35.79558039 26.65047455 C35.79305645 30.17609237 35.79539442 33.70170752 35.79696655 37.22732544 C35.79878815 43.14904246 35.7963822 49.07074703 35.79162598 54.99246216 C35.78618337 61.84811463 35.78794604 68.70373736 35.79345238 75.55938911 C35.7979838 81.43538735 35.79863392 87.31137661 35.79601371 93.18737602 C35.79445109 96.70128746 35.79425676 100.21518491 35.7975502 103.72909546 C35.8009632 107.64437016 35.79623871 111.5596113 35.79064941 115.47488403 C35.79267365 116.64791077 35.79469788 117.8209375 35.79678345 119.0295105 C35.79396362 120.08962341 35.7911438 121.14973633 35.78823853 122.24197388 C35.7878615 123.16892059 35.78748447 124.09586731 35.78709602 125.05090332 C35.66125488 127.13894653 35.66125488 127.13894653 34.66125488 128.13894653 C31.55874288 128.22768788 28.47857368 128.25413108 25.37609863 128.23660278 C24.44527969 128.23518784 23.51446075 128.23377289 22.55543518 128.23231506 C19.56984297 128.22669825 16.58432459 128.21414293 13.59875488 128.20144653 C11.57987575 128.1964337 9.56099546 128.19187042 7.54211426 128.18777466 C2.58179917 128.17672336 -2.37846044 128.15944749 -7.33874512 128.13894653 C-7.362074 111.59747585 -7.37972424 95.05601047 -7.39055729 78.51452732 C-7.39572027 70.83455926 -7.402763 63.1546014 -7.41418457 55.47463989 C-7.42413135 48.78316664 -7.43059853 42.09170077 -7.43283361 35.40022033 C-7.43414073 31.85499052 -7.43722665 28.30978185 -7.44447517 24.76455879 C-7.45248892 20.81326009 -7.45273626 16.86198233 -7.45227051 12.91067505 C-7.45586578 11.72672653 -7.45946106 10.54277802 -7.46316528 9.32295227 C-7.46179062 8.25298004 -7.46041595 7.18300781 -7.45899963 6.08061218 C-7.45992143 5.1449923 -7.46084322 4.20937243 -7.46179295 3.24540043 C-7.19586138 -1.30707791 -3.77802564 0.01456667 0 0 Z " fill="#B7CE04" transform="translate(270.3387451171875,85.86105346679688)"/>
<path d="M0 0 C7.59 0 15.18 0 23 0 C26.29632623 6.88565923 29.41529953 13.48892705 31.359375 20.87890625 C31.93725714 23.04030278 31.93725714 23.04030278 33.078125 25.02734375 C34 27 34 27 34 31 C34.66 31 35.32 31 36 31 C39.59579348 39.55798849 42.69858342 47.9866478 45.12109375 56.95703125 C45.8514804 59.48579214 46.67118743 61.79404142 47.75 64.1875 C49 67 49 67 49 70 C49.66 70 50.32 70 51 70 C51.6700834 72.12392506 52.33596797 74.24917524 53 76.375 C53.37125 77.55835938 53.7425 78.74171875 54.125 79.9609375 C55 83 55 83 55 85 C55.66 85 56.32 85 57 85 C58.4606285 87.64738916 59 88.89448334 59 92 C59.99 92 60.98 92 62 92 C62.27714844 91.00355469 62.55429687 90.00710938 62.83984375 88.98046875 C63.96289182 85.04930576 65.24644635 81.18255687 66.5625 77.3125 C68.48225777 71.71565594 68.48225777 71.71565594 70 66 C70.66 66 71.32 66 72 66 C72.33 63.36 72.66 60.72 73 58 C73.66 58 74.32 58 75 58 C75.33 55.69 75.66 53.38 76 51 C76.66 51 77.32 51 78 51 C78.17015625 49.73542969 78.17015625 49.73542969 78.34375 48.4453125 C79.05132886 44.73052346 80.18377296 41.41809954 81.5 37.875 C83.50501857 32.5145662 83.50501857 32.5145662 85 27 C85.66 27 86.32 27 87 27 C87.11730469 26.47792969 87.23460937 25.95585937 87.35546875 25.41796875 C88.18148451 22.31915812 89.23869906 19.33443514 90.3125 16.3125 C90.92544922 14.57419922 90.92544922 14.57419922 91.55078125 12.80078125 C93.20299019 8.46762951 95.11655072 4.23776087 97 0 C104.59 0 112.18 0 120 0 C118.87276155 6.76343073 118.87276155 6.76343073 117.125 10.0625 C116.77050781 10.73925781 116.41601562 11.41601562 116.05078125 12.11328125 C115.17741191 13.68144999 114.25129987 15.22010392 113.3125 16.75 C112.07301587 18.87482994 111.44512577 20.59632085 111 23 C110.34 23 109.68 23 109 23 C108.896875 23.969375 108.79375 24.93875 108.6875 25.9375 C107.71139626 32.72898239 105.24244235 38.97832134 102 45 C101.34 45 100.68 45 100 45 C99.896875 45.825 99.79375 46.65 99.6875 47.5 C98.88353944 51.59289012 97.53647842 55.12540225 96 59 C95.34 59 94.68 59 94 59 C93.9175 60.093125 93.835 61.18625 93.75 62.3125 C92.93700552 68.91071603 90.68604213 75.47093681 87 81 C86.34 81 85.68 81 85 81 C84.9071875 82.6396875 84.9071875 82.6396875 84.8125 84.3125 C84.23049846 89.0865996 82.34533368 92.94270352 80.2734375 97.2421875 C78.7681503 100.50210396 77.64316657 103.79842375 76.578125 107.22265625 C76 109 76 109 75 111 C74.34 111 73.68 111 73 111 C72.896875 111.86625 72.79375 112.7325 72.6875 113.625 C72 117 72 117 69 123 C62.73 123 56.46 123 50 123 C45 112.5 45 112.5 45 108 C44.34 108 43.68 108 43 108 C41.24265549 103.02638346 39.67415387 98.2584002 39 93 C38.34 93 37.68 93 37 93 C36.84144531 92.40574219 36.68289063 91.81148438 36.51953125 91.19921875 C34.88116631 85.37894993 32.77348403 80.00513611 30.18359375 74.54296875 C27 67.7029703 27 67.7029703 27 64 C26.34 64 25.68 64 25 64 C24.32739649 62.23141309 23.66211605 60.46003984 23 58.6875 C22.62875 57.70136719 22.2575 56.71523438 21.875 55.69921875 C21 53 21 53 21 50 C20.34 50 19.68 50 19 50 C18.20752336 47.79195441 17.4159987 45.58357503 16.625 43.375 C16.18414062 42.14523437 15.74328125 40.91546875 15.2890625 39.6484375 C14.15654289 36.44306381 13.06307102 33.22895402 12 30 C11.34 30 10.68 30 10 30 C9.67 27.03 9.34 24.06 9 21 C8.34 21 7.68 21 7 21 C6.66226562 19.95199219 6.32453125 18.90398437 5.9765625 17.82421875 C5.52628179 16.44523407 5.07574769 15.06633211 4.625 13.6875 C4.40328125 12.99720703 4.1815625 12.30691406 3.953125 11.59570312 C2.90066609 8.39189438 1.88243873 5.82365809 0 3 C0 2.01 0 1.02 0 0 Z " fill="#322F86" transform="translate(434,228)"/>
<path d="M0 0 C12.89072567 -0.02254897 25.78143834 -0.04091389 38.67217922 -0.05181217 C44.65719266 -0.05704151 50.64219196 -0.06414008 56.62719727 -0.07543945 C62.39783429 -0.08626653 68.16845768 -0.09227645 73.93910408 -0.09487724 C76.14602943 -0.09673182 78.352954 -0.10035304 80.55987358 -0.10573006 C83.63946041 -0.1129381 86.71899014 -0.11399104 89.79858398 -0.11352539 C90.72071182 -0.11712067 91.64283966 -0.12071594 92.59291077 -0.12442017 C98.88594784 -0.11405216 98.88594784 -0.11405216 100 1 C100 7.27 100 13.54 100 20 C87.13 20 74.26 20 61 20 C61 53.99 61 87.98 61 123 C53.74 123 46.48 123 39 123 C39 89.01 39 55.02 39 20 C26.13 20 13.26 20 0 20 C0 13.4 0 6.8 0 0 Z " fill="#322F86" transform="translate(206,228)"/>
<path d="M0 0 C33.33 0 66.66 0 101 0 C101 6.6 101 13.2 101 20 C87.8 20 74.6 20 61 20 C61 53.99 61 87.98 61 123 C54.07 123 47.14 123 40 123 C39.67 89.34 39.34 55.68 39 21 C19.695 20.505 19.695 20.505 0 20 C0 13.4 0 6.8 0 0 Z " fill="#2F2C84" transform="translate(319,228)"/>
<path d="M0 0 C14.19 0 28.38 0 43 0 C43 28.05 43 56.1 43 85 C28.81 85 14.62 85 0 85 C0 56.95 0 28.9 0 0 Z " fill="#36BBEB" transform="translate(206,129)"/>
<path d="M0 0 C0.66 0 1.32 0 2 0 C2.21615967 0.55349121 2.43231934 1.10698242 2.6550293 1.67724609 C7.74795182 14.82782956 7.74795182 14.82782956 13.76953125 27.56640625 C15.3890177 30.76939057 16.86620255 34.02885341 18.3125 37.3125 C19.08013672 39.03919922 19.08013672 39.03919922 19.86328125 40.80078125 C21 44 21 44 21 49 C7.8 49 -5.4 49 -19 49 C-17.89392566 42.36355394 -17.89392566 42.36355394 -16.125 39.3125 C-13.95532647 35.22380115 -12.85982838 31.10360865 -11.7265625 26.6328125 C-10.78997829 23.23895359 -9.48693014 20.18627886 -8 17 C-7.34 17 -6.68 17 -6 17 C-5.8453125 15.1128125 -5.8453125 15.1128125 -5.6875 13.1875 C-5.25483596 9.65819763 -4.68937651 8.36665133 -2 6 C-0.79950593 2.89992799 -0.79950593 2.89992799 0 0 Z " fill="#DCDCE1" transform="translate(164,253)"/>
<path d="M0 0 C0.66 0 1.32 0 2 0 C5.47316537 6.63374585 8.54935386 13.19329051 11 20.26953125 C12.97256698 25.65556375 15.49126786 30.8211076 17.94921875 36 C19.89403388 40.25013257 20.29712726 43.07989082 21 48 C7.8 48 -5.4 48 -19 48 C-18.67 45.03 -18.34 42.06 -18 39 C-17.34 39 -16.68 39 -16 39 C-15.8453125 37.4840625 -15.8453125 37.4840625 -15.6875 35.9375 C-14.94955136 31.71106689 -13.93971551 28.80482658 -12 25 C-11.01 24.34 -10.02 23.68 -9 23 C-7.90034006 20.73704188 -7.90034006 20.73704188 -7.0625 18.0625 C-6.72734375 17.08667969 -6.3921875 16.11085938 -6.046875 15.10546875 C-5.70140625 14.08066406 -5.3559375 13.05585938 -5 12 C-4.27712526 9.95609714 -3.54824886 7.91430391 -2.8125 5.875 C-2.48894531 4.96492188 -2.16539062 4.05484375 -1.83203125 3.1171875 C-1 1 -1 1 0 0 Z " fill="#DDDCE1" transform="translate(588,254)"/>
<path d="M0 0 C1.33278992 0.00303635 1.33278992 0.00303635 2.69250488 0.00613403 C3.5987561 0.00517731 4.50500732 0.00422058 5.4387207 0.00323486 C7.35876535 0.002553 9.27881229 0.00440771 11.19885254 0.00857544 C14.14861192 0.01392361 17.09821902 0.00863066 20.04797363 0.00222778 C21.90865105 0.00288856 23.76932838 0.00416972 25.63000488 0.00613403 C26.51853149 0.0041098 27.40705811 0.00208557 28.32250977 0 C34.546305 0.02399665 34.546305 0.02399665 35.66125488 1.13894653 C35.75948582 2.76886208 35.78757437 4.40304639 35.78823853 6.03591919 C35.79105835 7.0960321 35.79387817 8.15614502 35.79678345 9.24838257 C35.79475922 10.4214093 35.79273499 11.59443604 35.79064941 12.80300903 C35.79240173 14.03049866 35.79415405 15.25798828 35.79595947 16.52267456 C35.79961772 19.89862932 35.79874453 23.27452315 35.79558039 26.65047455 C35.79305645 30.17609237 35.79539442 33.70170752 35.79696655 37.22732544 C35.79878815 43.14904246 35.7963822 49.07074703 35.79162598 54.99246216 C35.78618337 61.84811463 35.78794604 68.70373736 35.79345238 75.55938911 C35.7979838 81.43538735 35.79863392 87.31137661 35.79601371 93.18737602 C35.79445109 96.70128746 35.79425676 100.21518491 35.7975502 103.72909546 C35.8009632 107.64437016 35.79623871 111.5596113 35.79064941 115.47488403 C35.79267365 116.64791077 35.79469788 117.8209375 35.79678345 119.0295105 C35.79396362 120.08962341 35.7911438 121.14973633 35.78823853 122.24197388 C35.7878615 123.16892059 35.78748447 124.09586731 35.78709602 125.05090332 C35.66125488 127.13894653 35.66125488 127.13894653 34.66125488 128.13894653 C31.55874288 128.22768788 28.47857368 128.25413108 25.37609863 128.23660278 C24.44527969 128.23518784 23.51446075 128.23377289 22.55543518 128.23231506 C19.56984297 128.22669825 16.58432459 128.21414293 13.59875488 128.20144653 C11.57987575 128.1964337 9.56099546 128.19187042 7.54211426 128.18777466 C2.58179917 128.17672336 -2.37846044 128.15944749 -7.33874512 128.13894653 C-7.362074 111.59747585 -7.37972424 95.05601047 -7.39055729 78.51452732 C-7.39572027 70.83455926 -7.402763 63.1546014 -7.41418457 55.47463989 C-7.42413135 48.78316664 -7.43059853 42.09170077 -7.43283361 35.40022033 C-7.43414073 31.85499052 -7.43722665 28.30978185 -7.44447517 24.76455879 C-7.45248892 20.81326009 -7.45273626 16.86198233 -7.45227051 12.91067505 C-7.45586578 11.72672653 -7.45946106 10.54277802 -7.46316528 9.32295227 C-7.46179062 8.25298004 -7.46041595 7.18300781 -7.45899963 6.08061218 C-7.45992143 5.1449923 -7.46084322 4.20937243 -7.46179295 3.24540043 C-7.19586138 -1.30707791 -3.77802564 0.01456667 0 0 Z M-5.33874512 2.13894653 C-5.33874512 43.05894653 -5.33874512 83.97894653 -5.33874512 126.13894653 C7.53125488 126.13894653 20.40125488 126.13894653 33.66125488 126.13894653 C33.66125488 85.21894653 33.66125488 44.29894653 33.66125488 2.13894653 C20.79125488 2.13894653 7.92125488 2.13894653 -5.33874512 2.13894653 Z " fill="#C3D437" transform="translate(270.3387451171875,85.86105346679688)"/>
<path d="M0 0 C2.875 2.25 2.875 2.25 5 5 C5.53367188 5.60199219 6.06734375 6.20398438 6.6171875 6.82421875 C8.36962862 9.5815908 8.33819129 11.32147019 8.25 14.5625 C8.23453125 15.51253906 8.2190625 16.46257812 8.203125 17.44140625 C8 20 8 20 7 23 C6.34 23 5.68 23 5 23 C4.67 23.99 4.34 24.98 4 26 C1.9375 26.6875 1.9375 26.6875 0 27 C0 27.66 0 28.32 0 29 C-1.77074917 29.02705729 -3.54161711 29.04642195 -5.3125 29.0625 C-6.29863281 29.07410156 -7.28476563 29.08570313 -8.30078125 29.09765625 C-11 29 -11 29 -14 28 C-16 25 -16 25 -16 22 C-16.66 22 -17.32 22 -18 22 C-20.08713996 17.82572007 -19.73356105 12.26355982 -18.31640625 7.890625 C-14.56702431 0.60966753 -7.71296874 -1.53974237 0 0 Z " fill="#E0E0E3" transform="translate(126,382)"/>
<path d="M0 0 C1.48831242 0.00667405 2.97660807 0.01863442 4.46484375 0.03515625 C5.22345703 0.03966797 5.98207031 0.04417969 6.76367188 0.04882812 C8.64326246 0.06064945 10.52281274 0.07858547 12.40234375 0.09765625 C12.40234375 0.75765625 12.40234375 1.41765625 12.40234375 2.09765625 C13.20671875 2.36578125 14.01109375 2.63390625 14.83984375 2.91015625 C15.68546875 3.30203125 16.53109375 3.69390625 17.40234375 4.09765625 C18.58066996 7.63263487 18.58631684 10.85658696 18.58984375 14.53515625 C18.60402344 15.85386719 18.61820313 17.17257812 18.6328125 18.53125 C18.42471643 21.75144845 18.24983318 23.50344635 16.40234375 26.09765625 C14.27734375 26.84765625 14.27734375 26.84765625 12.40234375 27.09765625 C12.40234375 27.75765625 12.40234375 28.41765625 12.40234375 29.09765625 C6.79234375 29.09765625 1.18234375 29.09765625 -4.59765625 29.09765625 C-4.62057112 25.12829075 -4.6404964 21.15909305 -4.65258789 17.18969727 C-4.65762682 15.83845239 -4.66445802 14.48721299 -4.6730957 13.13598633 C-4.68518044 11.19745191 -4.69035453 9.25887825 -4.6953125 7.3203125 C-4.70054932 6.15250244 -4.70578613 4.98469238 -4.71118164 3.78149414 C-4.53764944 -0.32095643 -4.25393002 0.11547041 0 0 Z " fill="#DADAE0" transform="translate(235.59765625,381.90234375)"/>
<path d="M0 0 C4.33125 -0.12375 4.33125 -0.12375 8.75 -0.25 C9.65331055 -0.28641602 10.55662109 -0.32283203 11.48730469 -0.36035156 C15.2366702 -0.41230969 17.36343545 -0.42535419 20.54296875 1.69921875 C23.02579962 5.61982836 22.92474734 9.52911408 22 14 C19.5 16.125 19.5 16.125 17 17 C17.76336599 20.05978846 17.76336599 20.05978846 19.9375 21.875 C22.14791243 24.15239462 23.00569366 26.01708098 24 29 C22.35 29 20.7 29 19 29 C18.731875 28.195625 18.46375 27.39125 18.1875 26.5625 C17.795625 25.716875 17.40375 24.87125 17 24 C16.01 23.67 15.02 23.34 14 23 C13.5875 22.175 13.175 21.35 12.75 20.5 C11.13579798 17.5938773 11.13579798 17.5938773 7.3125 17.1875 C5.6728125 17.0946875 5.6728125 17.0946875 4 17 C4 20.96 4 24.92 4 29 C2.68 29 1.36 29 0 29 C0 19.43 0 9.86 0 0 Z " fill="#454290" transform="translate(519,382)"/>
<path d="M0 0 C3.073125 -0.0825 6.14625 -0.165 9.3125 -0.25 C10.27712158 -0.28641602 11.24174316 -0.32283203 12.2355957 -0.36035156 C18.47054031 -0.44187989 18.47054031 -0.44187989 21.078125 1.734375 C22.61958968 5.52272039 22.69956428 8.98671018 22 13 C20 15.5625 20 15.5625 18 17 C19.18854293 19.57517635 20.5205702 21.76554442 22.125 24.125 C24 27 24 27 24 29 C22.35 29 20.7 29 19 29 C15.07758621 22.20114943 15.07758621 22.20114943 14.15625 19.8125 C13.14338189 17.78122217 13.14338189 17.78122217 10.8359375 17.390625 C9.61777344 17.32101562 9.61777344 17.32101562 8.375 17.25 C6.93125 17.1675 5.4875 17.085 4 17 C4 20.96 4 24.92 4 29 C2.68 29 1.36 29 0 29 C0 19.43 0 9.86 0 0 Z " fill="#4E4C95" transform="translate(139,382)"/>
<path d="M0 0 C5.61 0 11.22 0 17 0 C17 0.66 17 1.32 17 2 C17.639375 2.12375 18.27875 2.2475 18.9375 2.375 C19.9584375 2.684375 19.9584375 2.684375 21 3 C22.60127074 6.20254147 22.40701607 8.45314564 22 12 C20.26393366 14.61169163 18.23704394 16.80956115 16 19 C16.61359375 19.268125 17.2271875 19.53625 17.859375 19.8125 C20.97063825 21.53845626 22.23435049 23.97317226 24 27 C24 27.66 24 28.32 24 29 C21.75 29.375 21.75 29.375 19 29 C16.42485131 25.8680624 15 24.10589421 15 20 C11.46588679 17.87953208 8.05606165 17.46800711 4 17 C4 20.96 4 24.92 4 29 C2.68 29 1.36 29 0 29 C0 19.43 0 9.86 0 0 Z " fill="#4B4993" transform="translate(626,382)"/>
<path d="M0 0 C2.5575 -0.061875 5.115 -0.12375 7.75 -0.1875 C8.94834473 -0.22846802 8.94834473 -0.22846802 10.17089844 -0.27026367 C13.30217355 -0.30693982 15.64186313 -0.17906844 18.4609375 1.23046875 C20.3368209 3.38725855 20.63914599 4.66975191 20.875 7.5 C20.95492188 8.2734375 21.03484375 9.046875 21.1171875 9.84375 C21 12 21 12 19 15 C18.34 15 17.68 15 17 15 C17 15.66 17 16.32 17 17 C12.71 17 8.42 17 4 17 C4 20.96 4 24.92 4 29 C2.68 29 1.36 29 0 29 C0 19.43 0 9.86 0 0 Z " fill="#6664A2" transform="translate(469,382)"/>
<path d="M0 0 C1.32 0 2.64 0 4 0 C4 9.57 4 19.14 4 29 C-2.10979823 27.77804035 -3.55117605 25.87246639 -7 21 C-8.04808041 19.02477154 -9.0520411 17.02518491 -10 15 C-11.32 13.02 -12.64 11.04 -14 9 C-14.33 15.6 -14.66 22.2 -15 29 C-16.32 29 -17.64 29 -19 29 C-19 19.76 -19 10.52 -19 1 C-16.69 1.33 -14.38 1.66 -12 2 C-10.5 4.4375 -10.5 4.4375 -9 8 C-6.7567731 11.39775451 -4.38173212 14.6982015 -2 18 C-1.90912109 16.17662109 -1.90912109 16.17662109 -1.81640625 14.31640625 C-1.73201668 12.73175772 -1.6473679 11.14712298 -1.5625 9.5625 C-1.52318359 8.76005859 -1.48386719 7.95761719 -1.44335938 7.13085938 C-1.11328125 1.11328125 -1.11328125 1.11328125 0 0 Z " fill="#62609F" transform="translate(589,382)"/>
<path d="M0 0 C1.32 0 2.64 0 4 0 C4 9.57 4 19.14 4 29 C-2.10979823 27.77804035 -3.55117605 25.87246639 -7 21 C-8.04808041 19.02477154 -9.0520411 17.02518491 -10 15 C-11.32 13.02 -12.64 11.04 -14 9 C-14.33 15.6 -14.66 22.2 -15 29 C-16.32 29 -17.64 29 -19 29 C-19 19.76 -19 10.52 -19 1 C-16.69 1.33 -14.38 1.66 -12 2 C-10.5 4.4375 -10.5 4.4375 -9 8 C-6.7567731 11.39775451 -4.38173212 14.6982015 -2 18 C-1.90912109 16.17662109 -1.90912109 16.17662109 -1.81640625 14.31640625 C-1.73201668 12.73175772 -1.6473679 11.14712298 -1.5625 9.5625 C-1.52318359 8.76005859 -1.48386719 7.95761719 -1.44335938 7.13085938 C-1.11328125 1.11328125 -1.11328125 1.11328125 0 0 Z " fill="#62609F" transform="translate(373,382)"/>
<path d="M0 0 C33.33 0 66.66 0 101 0 C101 6.6 101 13.2 101 20 C87.8 20 74.6 20 61 20 C61 19.67 61 19.34 61 19 C73.54 19 86.08 19 99 19 C99 13.39 99 7.78 99 2 C66.99 2 34.98 2 2 2 C2 7.61 2 13.22 2 19 C14.54 19 27.08 19 40 19 C39.67 19.66 39.34 20.32 39 21 C19.695 20.505 19.695 20.505 0 20 C0 13.4 0 6.8 0 0 Z " fill="#706DA7" transform="translate(319,228)"/>
<path d="M0 0 C5 1 5 1 7.09765625 3.73046875 C7.74605469 4.87128906 8.39445312 6.01210938 9.0625 7.1875 C11.60025298 11.58459675 14.17415876 15.76123813 17 20 C17.33 13.4 17.66 6.8 18 0 C19.32 0 20.64 0 22 0 C22 9.57 22 19.14 22 29 C20.35 29 18.7 29 17 29 C16.04078278 27.25048432 15.08266183 25.50036756 14.125 23.75 C13.59132813 22.77546875 13.05765625 21.8009375 12.5078125 20.796875 C11 18 11 18 9.9921875 15.703125 C9.04634815 13.64848098 9.04634815 13.64848098 6 13 C6 12.01 6 11.02 6 10 C5.34 10 4.68 10 4 10 C4 16.27 4 22.54 4 29 C2.68 29 1.36 29 0 29 C0 19.43 0 9.86 0 0 Z " fill="#5D5A9C" transform="translate(383,382)"/>
<path d="M0 0 C12.89072567 -0.02254897 25.78143834 -0.04091389 38.67217922 -0.05181217 C44.65719266 -0.05704151 50.64219196 -0.06414008 56.62719727 -0.07543945 C62.39783429 -0.08626653 68.16845768 -0.09227645 73.93910408 -0.09487724 C76.14602943 -0.09673182 78.352954 -0.10035304 80.55987358 -0.10573006 C83.63946041 -0.1129381 86.71899014 -0.11399104 89.79858398 -0.11352539 C90.72071182 -0.11712067 91.64283966 -0.12071594 92.59291077 -0.12442017 C98.88594784 -0.11405216 98.88594784 -0.11405216 100 1 C100 7.27 100 13.54 100 20 C87.13 20 74.26 20 61 20 C61 19.67 61 19.34 61 19 C73.54 19 86.08 19 99 19 C99 13.39 99 7.78 99 2 C66.99 2 34.98 2 2 2 C2 7.61 2 13.22 2 19 C14.21 19 26.42 19 39 19 C39 19.33 39 19.66 39 20 C26.13 20 13.26 20 0 20 C0 13.4 0 6.8 0 0 Z " fill="#6B69A5" transform="translate(206,228)"/>
<path d="M0 0 C0.87454834 0.00523682 1.74909668 0.01047363 2.65014648 0.01586914 C3.59438477 0.0190918 4.53862305 0.02231445 5.51147461 0.02563477 C6.50469727 0.03401367 7.49791992 0.04239258 8.52124023 0.05102539 C9.51833008 0.05553711 10.51541992 0.06004883 11.54272461 0.06469727 C14.01478872 0.07652532 16.48673541 0.0930069 18.95874023 0.11352539 C18.95874023 1.43352539 18.95874023 2.75352539 18.95874023 4.11352539 C13.34874023 4.11352539 7.73874023 4.11352539 1.95874023 4.11352539 C1.95874023 6.75352539 1.95874023 9.39352539 1.95874023 12.11352539 C6.90874023 12.11352539 11.85874023 12.11352539 16.95874023 12.11352539 C16.95874023 13.43352539 16.95874023 14.75352539 16.95874023 16.11352539 C12.00874023 16.11352539 7.05874023 16.11352539 1.95874023 16.11352539 C1.95874023 19.41352539 1.95874023 22.71352539 1.95874023 26.11352539 C7.56874023 26.11352539 13.17874023 26.11352539 18.95874023 26.11352539 C18.95874023 27.10352539 18.95874023 28.09352539 18.95874023 29.11352539 C11.69874023 29.11352539 4.43874023 29.11352539 -3.04125977 29.11352539 C-3.06417464 25.14415989 -3.08409991 21.17496219 -3.09619141 17.20556641 C-3.10123033 15.85432153 -3.10806154 14.50308213 -3.11669922 13.15185547 C-3.12878396 11.21332105 -3.13395805 9.27474739 -3.13891602 7.33618164 C-3.14415283 6.16837158 -3.14938965 5.00056152 -3.15478516 3.79736328 C-3.00121843 0.16691383 -3.00121843 0.16691383 0 0 Z " fill="#6C6AA4" transform="translate(414.041259765625,381.886474609375)"/>
<path d="M0 0 C0.87454834 0.00523682 1.74909668 0.01047363 2.65014648 0.01586914 C3.59438477 0.0190918 4.53862305 0.02231445 5.51147461 0.02563477 C6.50469727 0.03401367 7.49791992 0.04239258 8.52124023 0.05102539 C9.51833008 0.05553711 10.51541992 0.06004883 11.54272461 0.06469727 C14.01478872 0.07652532 16.48673541 0.0930069 18.95874023 0.11352539 C18.95874023 1.43352539 18.95874023 2.75352539 18.95874023 4.11352539 C13.34874023 4.11352539 7.73874023 4.11352539 1.95874023 4.11352539 C1.95874023 6.75352539 1.95874023 9.39352539 1.95874023 12.11352539 C6.90874023 12.11352539 11.85874023 12.11352539 16.95874023 12.11352539 C16.95874023 13.43352539 16.95874023 14.75352539 16.95874023 16.11352539 C12.00874023 16.11352539 7.05874023 16.11352539 1.95874023 16.11352539 C1.95874023 19.41352539 1.95874023 22.71352539 1.95874023 26.11352539 C7.56874023 26.11352539 13.17874023 26.11352539 18.95874023 26.11352539 C18.95874023 27.10352539 18.95874023 28.09352539 18.95874023 29.11352539 C11.69874023 29.11352539 4.43874023 29.11352539 -3.04125977 29.11352539 C-3.06417464 25.14415989 -3.08409991 21.17496219 -3.09619141 17.20556641 C-3.10123033 15.85432153 -3.10806154 14.50308213 -3.11669922 13.15185547 C-3.12878396 11.21332105 -3.13395805 9.27474739 -3.13891602 7.33618164 C-3.14415283 6.16837158 -3.14938965 5.00056152 -3.15478516 3.79736328 C-3.00121843 0.16691383 -3.00121843 0.16691383 0 0 Z " fill="#6C6AA4" transform="translate(207.041259765625,381.886474609375)"/>
<path d="M0 0 C2.875 2.25 2.875 2.25 5 5 C5.53367188 5.60199219 6.06734375 6.20398438 6.6171875 6.82421875 C8.36962862 9.5815908 8.33819129 11.32147019 8.25 14.5625 C8.23453125 15.51253906 8.2190625 16.46257812 8.203125 17.44140625 C8 20 8 20 7 23 C6.34 23 5.68 23 5 23 C4.67 23.99 4.34 24.98 4 26 C1.9375 26.6875 1.9375 26.6875 0 27 C0 27.66 0 28.32 0 29 C-1.77074917 29.02705729 -3.54161711 29.04642195 -5.3125 29.0625 C-6.29863281 29.07410156 -7.28476563 29.08570313 -8.30078125 29.09765625 C-11 29 -11 29 -14 28 C-16 25 -16 25 -16 22 C-16.66 22 -17.32 22 -18 22 C-20.08713996 17.82572007 -19.73356105 12.26355982 -18.31640625 7.890625 C-14.56702431 0.60966753 -7.71296874 -1.53974237 0 0 Z M-12.5 6.3125 C-14.54120887 11.33047182 -14.77982025 15.65498204 -14 21 C-12.75621319 24.30853694 -12.75621319 24.30853694 -10 26 C-5.18417281 26.76441702 -3.19577507 26.69753545 1 24.25 C3.99517246 19.38284475 3.72932287 14.58123921 3 9 C2.27488318 6.70780309 2.27488318 6.70780309 1 5 C-4.26651562 3.24449479 -8.35102911 2.47470193 -12.5 6.3125 Z " fill="#8987B4" transform="translate(126,382)"/>
<path d="M0 0 C1.65 0 3.3 0 5 0 C5.33773438 0.97582031 5.67546875 1.95164062 6.0234375 2.95703125 C6.47373825 4.24226463 6.92427126 5.52741665 7.375 6.8125 C7.59671875 7.45509766 7.8184375 8.09769531 8.046875 8.75976562 C9.1239885 11.81686717 10.19061861 14.28592791 12 17 C12 18.32 12 19.64 12 21 C12.66 21 13.32 21 14 21 C14.33 23.64 14.66 26.28 15 29 C13.35 28.67 11.7 28.34 10 28 C9.34 25.36 8.68 22.72 8 20 C4.37 20.33 0.74 20.66 -3 21 C-3.99 23.64 -4.98 26.28 -6 29 C-7.32 29 -8.64 29 -10 29 C-9.34741705 25.23185973 -8.29013667 21.83458532 -6.93359375 18.26171875 C-6.53076172 17.19501953 -6.12792969 16.12832031 -5.71289062 15.02929688 C-5.29201172 13.92650391 -4.87113281 12.82371094 -4.4375 11.6875 C-4.01275391 10.56537109 -3.58800781 9.44324219 -3.15039062 8.28710938 C-2.10371244 5.52340854 -1.05347135 2.76111699 0 0 Z " fill="#484591" transform="translate(500,382)"/>
<path d="M0 0 C1.65 0 3.3 0 5 0 C5.33773438 0.97582031 5.67546875 1.95164062 6.0234375 2.95703125 C6.47373825 4.24226463 6.92427126 5.52741665 7.375 6.8125 C7.59671875 7.45509766 7.8184375 8.09769531 8.046875 8.75976562 C9.1239885 11.81686717 10.19061861 14.28592791 12 17 C12 18.32 12 19.64 12 21 C12.66 21 13.32 21 14 21 C14.33 23.64 14.66 26.28 15 29 C13.35 28.67 11.7 28.34 10 28 C9.34 25.36 8.68 22.72 8 20 C4.37 20.33 0.74 20.66 -3 21 C-3.99 23.64 -4.98 26.28 -6 29 C-7.32 29 -8.64 29 -10 29 C-9.34741705 25.23185973 -8.29013667 21.83458532 -6.93359375 18.26171875 C-6.53076172 17.19501953 -6.12792969 16.12832031 -5.71289062 15.02929688 C-5.29201172 13.92650391 -4.87113281 12.82371094 -4.4375 11.6875 C-4.01275391 10.56537109 -3.58800781 9.44324219 -3.15039062 8.28710938 C-2.10371244 5.52340854 -1.05347135 2.76111699 0 0 Z " fill="#484591" transform="translate(335,382)"/>
<path d="M0 0 C1.65 0 3.3 0 5 0 C5.33773438 0.97582031 5.67546875 1.95164062 6.0234375 2.95703125 C6.47373825 4.24226463 6.92427126 5.52741665 7.375 6.8125 C7.59671875 7.45509766 7.8184375 8.09769531 8.046875 8.75976562 C9.1239885 11.81686717 10.19061861 14.28592791 12 17 C12 18.32 12 19.64 12 21 C12.66 21 13.32 21 14 21 C14.33 23.64 14.66 26.28 15 29 C13.35 28.67 11.7 28.34 10 28 C9.34 25.36 8.68 22.72 8 20 C4.37 20.33 0.74 20.66 -3 21 C-3.99 23.64 -4.98 26.28 -6 29 C-6.66 29 -7.32 29 -8 29 C-8.60986467 22.2057264 -6.41985958 16.84514219 -4 10.5625 C-3.6184375 9.54478516 -3.236875 8.52707031 -2.84375 7.47851562 C-1.90595809 4.98164465 -0.95785999 2.48922592 0 0 Z " fill="#4A4893" transform="translate(8,382)"/>
<path d="M0 0 C1.48831242 0.00667405 2.97660807 0.01863442 4.46484375 0.03515625 C5.22345703 0.03966797 5.98207031 0.04417969 6.76367188 0.04882812 C8.64326246 0.06064945 10.52281274 0.07858547 12.40234375 0.09765625 C12.40234375 0.75765625 12.40234375 1.41765625 12.40234375 2.09765625 C13.20671875 2.36578125 14.01109375 2.63390625 14.83984375 2.91015625 C15.68546875 3.30203125 16.53109375 3.69390625 17.40234375 4.09765625 C18.58066996 7.63263487 18.58631684 10.85658696 18.58984375 14.53515625 C18.60402344 15.85386719 18.61820313 17.17257812 18.6328125 18.53125 C18.42471643 21.75144845 18.24983318 23.50344635 16.40234375 26.09765625 C14.27734375 26.84765625 14.27734375 26.84765625 12.40234375 27.09765625 C12.40234375 27.75765625 12.40234375 28.41765625 12.40234375 29.09765625 C6.79234375 29.09765625 1.18234375 29.09765625 -4.59765625 29.09765625 C-4.62057112 25.12829075 -4.6404964 21.15909305 -4.65258789 17.18969727 C-4.65762682 15.83845239 -4.66445802 14.48721299 -4.6730957 13.13598633 C-4.68518044 11.19745191 -4.69035453 9.25887825 -4.6953125 7.3203125 C-4.70054932 6.15250244 -4.70578613 4.98469238 -4.71118164 3.78149414 C-4.53764944 -0.32095643 -4.25393002 0.11547041 0 0 Z M-0.59765625 4.09765625 C-0.59765625 11.35765625 -0.59765625 18.61765625 -0.59765625 26.09765625 C9.55483971 27.15490878 9.55483971 27.15490878 13.58984375 23.84765625 C16.58706294 19.30278206 16.3001786 13.28265252 15.40234375 8.09765625 C13.51229432 5.56477024 12.47139159 5.1206722 9.40234375 4.09765625 C6.10234375 4.09765625 2.80234375 4.09765625 -0.59765625 4.09765625 Z " fill="#6B69A4" transform="translate(235.59765625,381.90234375)"/>
<path d="M0 0 C1.32 0 2.64 0 4 0 C4 3.96 4 7.92 4 12 C8.62 12 13.24 12 18 12 C18 8.04 18 4.08 18 0 C19.32 0 20.64 0 22 0 C22 9.57 22 19.14 22 29 C20.68 29 19.36 29 18 29 C18 24.71 18 20.42 18 16 C13.38 16 8.76 16 4 16 C4 20.29 4 24.58 4 29 C2.68 29 1.36 29 0 29 C0 19.43 0 9.86 0 0 Z " fill="#58569A" transform="translate(299,382)"/>
<path d="M0 0 C1.32 0 2.64 0 4 0 C4 3.96 4 7.92 4 12 C8.62 12 13.24 12 18 12 C18 8.04 18 4.08 18 0 C19.32 0 20.64 0 22 0 C22 9.57 22 19.14 22 29 C20.68 29 19.36 29 18 29 C18 24.71 18 20.42 18 16 C13.38 16 8.76 16 4 16 C4 20.29 4 24.58 4 29 C2.68 29 1.36 29 0 29 C0 19.43 0 9.86 0 0 Z " fill="#58569A" transform="translate(80,382)"/>
<path d="M0 0 C9.89523434 -0.77983458 9.89523434 -0.77983458 14.1875 2.25 C16 5 16 5 16 9 C14.68 8.67 13.36 8.34 12 8 C12 7.01 12 6.02 12 5 C8.04 5 4.08 5 0 5 C0.33 6.65 0.66 8.3 1 10 C3.29629994 11.14814997 5.07698086 11.30769809 7.625 11.5625 C8.44226563 11.64628906 9.25953125 11.73007812 10.1015625 11.81640625 C10.72804687 11.87699219 11.35453125 11.93757813 12 12 C12 12.66 12 13.32 12 14 C13.65 14.66 15.3 15.32 17 16 C17 19.3 17 22.6 17 26 C12.08635548 28.40668303 8.58993818 29.60981144 3 29 C-0.98066095 27.42275698 -2.60667274 26.58999089 -5 23 C-5 21.68 -5 20.36 -5 19 C-3.68 19 -2.36 19 -1 19 C-0.01 20.98 0.98 22.96 2 25 C6.0100934 25.17864631 6.0100934 25.17864631 10 25 C10.66 24.34 11.32 23.68 12 23 C11.67958603 20.39719432 11.67958603 20.39719432 11 18 C9.75283203 17.61908203 9.75283203 17.61908203 8.48046875 17.23046875 C7.39378906 16.88628906 6.30710938 16.54210937 5.1875 16.1875 C3.56908203 15.68283203 3.56908203 15.68283203 1.91796875 15.16796875 C-0.84367917 14.06257019 -2.26486616 13.3753384 -4 11 C-4.42478586 6.92205575 -4.31282587 5.46923881 -2 2 C-1.34 2 -0.68 2 0 2 C0 1.34 0 0.68 0 0 Z " fill="#4B4993" transform="translate(182,382)"/>
<path d="M0 0 C1.98 0.495 1.98 0.495 4 1 C4 7.6 4 14.2 4 21 C4.66 21 5.32 21 6 21 C6.33 22.65 6.66 24.3 7 26 C12.3086849 25.41825155 12.3086849 25.41825155 17 23 C17.50904384 20.5842887 17.50904384 20.5842887 17.51171875 17.7734375 C17.54716797 16.7421875 17.58261719 15.7109375 17.61914062 14.6484375 C17.64169922 13.56820313 17.66425781 12.48796875 17.6875 11.375 C17.72166016 10.28703125 17.75582031 9.1990625 17.79101562 8.078125 C17.87368334 5.38551937 17.94277087 2.69324709 18 0 C19.32 0 20.64 0 22 0 C22.08761663 3.54150893 22.14059739 7.08273633 22.1875 10.625 C22.21263672 11.62402344 22.23777344 12.62304688 22.26367188 13.65234375 C22.31813983 19.13545163 22.30699764 23.35941124 19 28 C14.36386079 29.54537974 9.82953421 29.76255803 5 29 C1.69218039 26.72767175 0.25978062 23.77934185 -1 20 C-1.09188685 18.53085066 -1.13066715 17.05795597 -1.1328125 15.5859375 C-1.13410156 14.74289062 -1.13539062 13.89984375 -1.13671875 13.03125 C-1.13285156 12.1546875 -1.12898438 11.278125 -1.125 10.375 C-1.12886719 9.49070312 -1.13273437 8.60640625 -1.13671875 7.6953125 C-1.13542969 6.85484375 -1.13414063 6.014375 -1.1328125 5.1484375 C-1.13168457 4.37677246 -1.13055664 3.60510742 -1.12939453 2.81005859 C-1 1 -1 1 0 0 Z " fill="#6967A3" transform="translate(27,382)"/>
<path d="M0 0 C2.51591931 2.08461886 3.26620137 3.71358642 4.1875 6.8125 C1.7125 6.3175 1.7125 6.3175 -0.8125 5.8125 C-0.8125 5.1525 -0.8125 4.4925 -0.8125 3.8125 C-2.43740954 3.78551811 -4.06244633 3.76611243 -5.6875 3.75 C-6.59242188 3.73839844 -7.49734375 3.72679687 -8.4296875 3.71484375 C-10.8293585 3.65000743 -10.8293585 3.65000743 -12.8125 4.8125 C-13.95944626 7.99200925 -13.94653933 11.08390686 -13.9375 14.4375 C-13.94007813 15.39914062 -13.94265625 16.36078125 -13.9453125 17.3515625 C-13.97611083 19.81724769 -13.97611083 19.81724769 -12.8125 21.8125 C-9.08651079 23.0544964 -5.70974964 23.44161577 -1.8125 22.8125 C0.03065671 20.9120533 0.03065671 20.9120533 1.1875 18.8125 C2.1775 18.8125 3.1675 18.8125 4.1875 18.8125 C3.8575 21.1225 3.5275 23.4325 3.1875 25.8125 C-1.76522213 27.844386 -6.52431249 28.86647151 -11.8125 27.8125 C-15.52382986 25.74604259 -18.21298038 23.371251 -19.75 19.375 C-19.770625 18.529375 -19.79125 17.68375 -19.8125 16.8125 C-19.874375 15.6575 -19.93625 14.5025 -20 13.3125 C-19.72920382 8.257638 -18.737368 5.85594082 -15.375 2.0625 C-10.80829217 -1.94729224 -5.57947544 -2.35577852 0 0 Z " fill="#716FA8" transform="translate(288.8125,383.1875)"/>
<path d="M0 0 C0.83265381 0.00523682 1.66530762 0.01047363 2.52319336 0.01586914 C3.42231445 0.0190918 4.32143555 0.02231445 5.24780273 0.02563477 C6.66609375 0.03820312 6.66609375 0.03820312 8.11303711 0.05102539 C9.06243164 0.05553711 10.01182617 0.06004883 10.98999023 0.06469727 C13.34356776 0.07652429 15.69702188 0.09300514 18.05053711 0.11352539 C18.05053711 1.10352539 18.05053711 2.09352539 18.05053711 3.11352539 C10.13053711 3.60852539 10.13053711 3.60852539 2.05053711 4.11352539 C2.05053711 6.75352539 2.05053711 9.39352539 2.05053711 12.11352539 C8.98053711 12.60852539 8.98053711 12.60852539 16.05053711 13.11352539 C16.05053711 13.77352539 16.05053711 14.43352539 16.05053711 15.11352539 C11.43053711 15.44352539 6.81053711 15.77352539 2.05053711 16.11352539 C1.72053711 19.41352539 1.39053711 22.71352539 1.05053711 26.11352539 C6.66053711 26.11352539 12.27053711 26.11352539 18.05053711 26.11352539 C18.05053711 27.10352539 18.05053711 28.09352539 18.05053711 29.11352539 C11.12053711 29.11352539 4.19053711 29.11352539 -2.94946289 29.11352539 C-2.97237777 25.14415989 -2.99230304 21.17496219 -3.00439453 17.20556641 C-3.00943346 15.85432153 -3.01626466 14.50308213 -3.02490234 13.15185547 C-3.03698708 11.21332105 -3.04216117 9.27474739 -3.04711914 7.33618164 C-3.05235596 6.16837158 -3.05759277 5.00056152 -3.06298828 3.79736328 C-2.90952816 0.16943401 -2.90952816 0.16943401 0 0 Z " fill="#4E4C95" transform="translate(601.949462890625,381.886474609375)"/>
<path d="M0 0 C2.908125 -0.103125 5.81625 -0.20625 8.8125 -0.3125 C10.18112183 -0.38078003 10.18112183 -0.38078003 11.57739258 -0.45043945 C13.80546889 -0.48890162 15.81422556 -0.44719681 18 0 C20.24091543 2.44463501 20.86693648 3.98339468 21.29296875 7.23828125 C21.1953125 9.15885417 21.09765625 11.07942708 21 13 C20.34 13 19.68 13 19 13 C18.87625 11.865625 18.7525 10.73125 18.625 9.5625 C18.41875 8.386875 18.2125 7.21125 18 6 C15.16730334 4.58365167 12.52533562 4.6536995 9.375 4.4375 C8.18648437 4.35371094 6.99796875 4.26992188 5.7734375 4.18359375 C4.85820313 4.12300781 3.94296875 4.06242187 3 4 C3.33 7.3 3.66 10.6 4 14 C6.64 14.33 9.28 14.66 12 15 C12 15.33 12 15.66 12 16 C9.36 16 6.72 16 4 16 C4 20.29 4 24.58 4 29 C2.68 29 1.36 29 0 29 C0 19.43 0 9.86 0 0 Z " fill="#4D4A94" transform="translate(519,382)"/>
<path d="M0 0 C7.26 0 14.52 0 22 0 C22 0.99 22 1.98 22 3 C19.36 3 16.72 3 14 3 C14 11.25 14 19.5 14 28 C12.35 28 10.7 28 9 28 C9 19.42 9 10.84 9 2 C6.03 2 3.06 2 0 2 C0 1.34 0 0.68 0 0 Z " fill="#5D5B9D" transform="translate(53,383)"/>
<path d="M0 0 C1.32 0 2.64 0 4 0 C4 9.57 4 19.14 4 29 C-1.625 27.875 -1.625 27.875 -4.3125 24.4375 C-4.82425781 23.79683594 -5.33601562 23.15617187 -5.86328125 22.49609375 C-6.23839844 22.00238281 -6.61351562 21.50867188 -7 21 C-6.67 20.34 -6.34 19.68 -6 19 C-4.515 19.99 -4.515 19.99 -3 21 C-3.33 19.68 -3.66 18.36 -4 17 C-3.34 17.33 -2.68 17.66 -2 18 C-1.93941406 16.78441406 -1.87882813 15.56882812 -1.81640625 14.31640625 C-1.73201668 12.73175772 -1.6473679 11.14712298 -1.5625 9.5625 C-1.52318359 8.76005859 -1.48386719 7.95761719 -1.44335938 7.13085938 C-1.11328125 1.11328125 -1.11328125 1.11328125 0 0 Z " fill="#7F7EAF" transform="translate(589,382)"/>
<path d="M0 0 C1.32 0 2.64 0 4 0 C4 9.57 4 19.14 4 29 C-1.625 27.875 -1.625 27.875 -4.3125 24.4375 C-4.82425781 23.79683594 -5.33601563 23.15617187 -5.86328125 22.49609375 C-6.23839844 22.00238281 -6.61351562 21.50867188 -7 21 C-6.67 20.34 -6.34 19.68 -6 19 C-4.515 19.99 -4.515 19.99 -3 21 C-3.33 19.68 -3.66 18.36 -4 17 C-3.34 17.33 -2.68 17.66 -2 18 C-1.93941406 16.78441406 -1.87882812 15.56882812 -1.81640625 14.31640625 C-1.73201668 12.73175772 -1.6473679 11.14712298 -1.5625 9.5625 C-1.52318359 8.76005859 -1.48386719 7.95761719 -1.44335938 7.13085938 C-1.11328125 1.11328125 -1.11328125 1.11328125 0 0 Z " fill="#7F7EAF" transform="translate(373,382)"/>
<path d="M0 0 C1.93719378 -0.05406122 3.87481921 -0.09282025 5.8125 -0.125 C6.89144531 -0.14820313 7.97039062 -0.17140625 9.08203125 -0.1953125 C12 0 12 0 15 2 C15.38896226 5.04687103 15.62444849 7.07727542 13.86328125 9.6796875 C11.16483263 11.59179574 9.07595843 11.29277285 5.8125 11.1875 C4.72582031 11.16042969 3.63914063 11.13335937 2.51953125 11.10546875 C1.27236328 11.05326172 1.27236328 11.05326172 0 11 C0 7.37 0 3.74 0 0 Z " fill="#D3D3DC" transform="translate(143,385)"/>
<path d="M0 0 C4.18111987 3.02463991 5.92029505 5.99409522 7 11 C7.27954994 14.86955963 7.24053644 18.27839068 6 22 C5.34 22 4.68 22 4 22 C4.03480469 21.18015625 4.06960937 20.3603125 4.10546875 19.515625 C4.13253906 18.43796875 4.15960938 17.3603125 4.1875 16.25 C4.22230469 15.18265625 4.25710937 14.1153125 4.29296875 13.015625 C3.96625336 9.65263456 3.36910987 8.36358747 1 6 C-1.67643957 5.10785348 -3.25384378 4.86459789 -6 4.875 C-6.680625 4.87242187 -7.36125 4.86984375 -8.0625 4.8671875 C-10.21874781 4.93368874 -10.21874781 4.93368874 -13 6 C-13 6.66 -13 7.32 -13 8 C-13.66 8 -14.32 8 -15 8 C-15 12.29 -15 16.58 -15 21 C-15.66 21 -16.32 21 -17 21 C-18.33423279 14.45012993 -18.02217665 9.07756403 -15 3 C-10.68806949 -0.49061041 -5.37864228 -1.05191159 0 0 Z " fill="#4A4793" transform="translate(126,382)"/>
<path d="M0 0 C9.89523434 -0.77983458 9.89523434 -0.77983458 14.1875 2.25 C16 5 16 5 16 9 C14.68 8.67 13.36 8.34 12 8 C12 7.01 12 6.02 12 5 C8.04 5 4.08 5 0 5 C0.33 6.65 0.66 8.3 1 10 C3.29629994 11.14814997 5.07698086 11.30769809 7.625 11.5625 C8.44226563 11.64628906 9.25953125 11.73007812 10.1015625 11.81640625 C10.72804687 11.87699219 11.35453125 11.93757813 12 12 C12 12.66 12 13.32 12 14 C9.03 13.67 6.06 13.34 3 13 C2.67 13.66 2.34 14.32 2 15 C-2.875 12.125 -2.875 12.125 -4 11 C-4.26293056 6.96839809 -4.29404844 5.44107266 -2 2 C-1.34 2 -0.68 2 0 2 C0 1.34 0 0.68 0 0 Z " fill="#6C6AA5" transform="translate(182,382)"/>
<path d="M0 0 C1.95825873 -0.02694851 3.91662226 -0.04637218 5.875 -0.0625 C6.96554687 -0.07410156 8.05609375 -0.08570313 9.1796875 -0.09765625 C12 0 12 0 14 1 C14.1875 4.375 14.1875 4.375 14 8 C10.57905758 10.28062828 9.31812778 10.21925007 5.3125 10.125 C3.82169922 10.09792969 3.82169922 10.09792969 2.30078125 10.0703125 C1.54152344 10.04710937 0.78226563 10.02390625 0 10 C0 6.7 0 3.4 0 0 Z " fill="#DDDDE1" transform="translate(630,386)"/>
<path d="M0 0 C0.99 0 1.98 0 3 0 C3 8.25 3 16.5 3 25 C7.62 25 12.24 25 17 25 C17 25.99 17 26.98 17 28 C11.39 28 5.78 28 0 28 C0 18.76 0 9.52 0 0 Z " fill="#4A4893" transform="translate(438,383)"/>
<path d="M0 0 C3.63 0 7.26 0 11 0 C11 0.66 11 1.32 11 2 C11.66 2 12.32 2 13 2 C13.04241723 4.33294775 13.04092937 6.66702567 13 9 C12 10 12 10 9.27734375 10.09765625 C7.62412109 10.08025391 7.62412109 10.08025391 5.9375 10.0625 C4.83277344 10.05347656 3.72804688 10.04445313 2.58984375 10.03515625 C1.30787109 10.01775391 1.30787109 10.01775391 0 10 C0 6.7 0 3.4 0 0 Z " fill="#DDDDE1" transform="translate(473,386)"/>
<path d="M0 0 C6.93 0 13.86 0 21 0 C21 0.66 21 1.32 21 2 C18.03 2 15.06 2 12 2 C12 10.58 12 19.16 12 28 C11.01 28 10.02 28 9 28 C9 19.42 9 10.84 9 2 C6.03 2 3.06 2 0 2 C0 1.34 0 0.68 0 0 Z " fill="#39368A" transform="translate(545,383)"/>
<path d="M0 0 C1.95766281 -0.08082094 3.91626728 -0.13910778 5.875 -0.1875 C7.51082031 -0.23970703 7.51082031 -0.23970703 9.1796875 -0.29296875 C10.11039063 -0.19628906 11.04109375 -0.09960938 12 0 C14 3 14 3 13.75 5.625 C13.5025 6.40875 13.255 7.1925 13 8 C10.35541621 9.32229189 8.32238699 9.09677194 5.375 9.0625 C4.37210938 9.05347656 3.36921875 9.04445313 2.3359375 9.03515625 C1.56507813 9.02355469 0.79421875 9.01195312 0 9 C0 6.03 0 3.06 0 0 Z " fill="#E3E3E4" transform="translate(523,386)"/>
<path d="M0 0 C1.32 0 2.64 0 4 0 C4 9.57 4 19.14 4 29 C2.68 29 1.36 29 0 29 C0 19.43 0 9.86 0 0 Z " fill="#535097" transform="translate(168,382)"/>
<path d="M0 0 C2.51591931 2.08461886 3.26620137 3.71358642 4.1875 6.8125 C1.7125 6.3175 1.7125 6.3175 -0.8125 5.8125 C-0.8125 5.1525 -0.8125 4.4925 -0.8125 3.8125 C-2.39429615 3.70382698 -3.97827153 3.62660173 -5.5625 3.5625 C-6.88507813 3.49289062 -6.88507813 3.49289062 -8.234375 3.421875 C-10.92007053 3.63028787 -10.92007053 3.63028787 -13.09375 5.4375 C-15.25579617 8.42505471 -15.40342889 10.40386446 -15.5625 14.0625 C-15.61921875 15.14015625 -15.6759375 16.2178125 -15.734375 17.328125 C-15.76015625 18.14796875 -15.7859375 18.9678125 -15.8125 19.8125 C-16.4725 19.8125 -17.1325 19.8125 -17.8125 19.8125 C-17.866848 17.7502952 -17.90544961 15.68767184 -17.9375 13.625 C-17.96070313 12.47644531 -17.98390625 11.32789063 -18.0078125 10.14453125 C-17.81448516 6.8463668 -17.35271626 4.71661146 -15.8125 1.8125 C-10.66052369 -1.66208868 -5.78505518 -2.44257885 0 0 Z " fill="#4A4793" transform="translate(288.8125,383.1875)"/>
<path d="M0 0 C1.32 0 2.64 0 4 0 C4.08720919 3.58317958 4.14046112 7.16608567 4.1875 10.75 C4.21263672 11.76578125 4.23777344 12.7815625 4.26367188 13.828125 C4.27333984 14.8078125 4.28300781 15.7875 4.29296875 16.796875 C4.31653442 18.14797363 4.31653442 18.14797363 4.34057617 19.52636719 C3.93761772 22.45308763 2.9344597 23.81341349 1 26 C-0.01973129 22.94080612 -0.11533602 20.87581975 -0.09765625 17.67578125 C-0.09443359 16.64775391 -0.09121094 15.61972656 -0.08789062 14.56054688 C-0.07951172 13.48869141 -0.07113281 12.41683594 -0.0625 11.3125 C-0.05798828 10.22904297 -0.05347656 9.14558594 -0.04882812 8.02929688 C-0.03703743 5.35280915 -0.02058063 2.67643223 0 0 Z " fill="#57549A" transform="translate(45,382)"/>
<path d="M0 0 C5.61 0 11.22 0 17 0 C17 0.66 17 1.32 17 2 C12.05 2 7.1 2 2 2 C2 5.63 2 9.26 2 13 C7.61 13 13.22 13 19 13 C19 13.66 19 14.32 19 15 C12.73 15 6.46 15 0 15 C0 10.05 0 5.1 0 0 Z " fill="#39368A" transform="translate(413,395)"/>
<path d="M0 0 C5.61 0 11.22 0 17 0 C17 0.66 17 1.32 17 2 C12.05 2 7.1 2 2 2 C2 5.63 2 9.26 2 13 C7.61 13 13.22 13 19 13 C19 13.66 19 14.32 19 15 C12.73 15 6.46 15 0 15 C0 10.05 0 5.1 0 0 Z " fill="#39368A" transform="translate(206,395)"/>
<path d="M0 0 C4.62 0 9.24 0 14 0 C14.33 0.66 14.66 1.32 15 2 C10.71 2 6.42 2 2 2 C2.33 9.59 2.66 17.18 3 25 C6.3 25.33 9.6 25.66 13 26 C13 26.33 13 26.66 13 27 C8.71 27 4.42 27 0 27 C0 18.09 0 9.18 0 0 Z " fill="#2E2B84" transform="translate(232,383)"/>
<path d="M0 0 C1.5 1.0625 1.5 1.0625 3 3 C3.5 6.375 3.5 6.375 3 10 C0.5 12.9375 0.5 12.9375 -2 15 C-2.33 14.34 -2.66 13.68 -3 13 C-7.29 13 -11.58 13 -16 13 C-16 9.04 -16 5.08 -16 1 C-11.38 1 -6.76 1 -2 1 C-1.67 1.66 -1.34 2.32 -1 3 C-7.93 2.505 -7.93 2.505 -15 2 C-15 5.3 -15 8.6 -15 12 C-13.22880197 11.85866501 -11.45804713 11.71176792 -9.6875 11.5625 C-8.70136719 11.48128906 -7.71523438 11.40007812 -6.69921875 11.31640625 C-3.90624401 11.08187441 -3.90624401 11.08187441 -1 10 C-1 8.02 -1 6.04 -1 4 C-0.34 4 0.32 4 1 4 C0.67 2.68 0.34 1.36 0 0 Z " fill="#6866A3" transform="translate(645,384)"/>
<path d="M0 0 C0.99 0 1.98 0 3 0 C3 7.59 3 15.18 3 23 C2.01 23 1.02 23 0 23 C-0.93290869 20.20127394 -1.12859447 18.48011055 -1.1328125 15.5859375 C-1.13410156 14.74289062 -1.13539062 13.89984375 -1.13671875 13.03125 C-1.13285156 12.1546875 -1.12898438 11.278125 -1.125 10.375 C-1.12886719 9.49070312 -1.13273437 8.60640625 -1.13671875 7.6953125 C-1.13542969 6.85484375 -1.13414063 6.014375 -1.1328125 5.1484375 C-1.13168457 4.37677246 -1.13055664 3.60510742 -1.12939453 2.81005859 C-1 1 -1 1 0 0 Z " fill="#5F5D9E" transform="translate(27,382)"/>
<path d="M0 0 C1.23848245 2.47696491 0.92825003 3.65670966 0.5625 6.375 C0.17167187 9.33342052 0 11.98874127 0 15 C0.66 15 1.32 15 2 15 C2 10.71 2 6.42 2 2 C2.66 2 3.32 2 4 2 C4 1.34 4 0.68 4 0 C4.66 0.33 5.32 0.66 6 1 C5.01 2.485 5.01 2.485 4 4 C3.6825006 6.60713564 3.6825006 6.60713564 3.75 9.4375 C3.74484375 10.38496094 3.7396875 11.33242188 3.734375 12.30859375 C4.00426097 15.04317362 4.75473409 16.59916954 6 19 C5.67 19.66 5.34 20.32 5 21 C8.96 21.33 12.92 21.66 17 22 C17 22.33 17 22.66 17 23 C15.22925083 23.02705729 13.45838289 23.04642195 11.6875 23.0625 C10.70136719 23.07410156 9.71523437 23.08570313 8.69921875 23.09765625 C6 23 6 23 3 22 C1 19 1 19 1 16 C0.34 16 -0.32 16 -1 16 C-2.22485812 13.55028376 -2.16722808 11.85765539 -2.1875 9.125 C-2.20167969 8.26132812 -2.21585937 7.39765625 -2.23046875 6.5078125 C-1.98859252 3.8758712 -1.32983541 2.26019456 0 0 Z " fill="#7F7DAF" transform="translate(109,388)"/>
<path d="M0 0 C2.97 0.495 2.97 0.495 6 1 C6.33 2.98 6.66 4.96 7 7 C4.525 6.01 4.525 6.01 2 5 C2 12.26 2 19.52 2 27 C1.34 27 0.68 27 0 27 C0 18.09 0 9.18 0 0 Z " fill="#373489" transform="translate(571,383)"/>
<path d="M0 0 C2.97 0.495 2.97 0.495 6 1 C6.33 2.98 6.66 4.96 7 7 C4.525 6.01 4.525 6.01 2 5 C2 12.26 2 19.52 2 27 C1.34 27 0.68 27 0 27 C0 18.09 0 9.18 0 0 Z " fill="#373489" transform="translate(355,383)"/>
<path d="M0 0 C0.66 0 1.32 0 2 0 C2 9.24 2 18.48 2 28 C-2 27 -2 27 -4 24 C-4 23.01 -4 22.02 -4 21 C-2.68 21 -1.36 21 0 21 C0 14.07 0 7.14 0 0 Z " fill="#413F8E" transform="translate(590,383)"/>
<path d="M0 0 C0.66 0 1.32 0 2 0 C2 9.24 2 18.48 2 28 C-2 27 -2 27 -4 24 C-4 23.01 -4 22.02 -4 21 C-2.68 21 -1.36 21 0 21 C0 14.07 0 7.14 0 0 Z " fill="#413F8E" transform="translate(374,383)"/>
<path d="M0 0 C0.66 0 1.32 0 2 0 C1.34 2.31 0.68 4.62 0 7 C6.27 7 12.54 7 19 7 C19 6.34 19 5.68 19 5 C19.66 5 20.32 5 21 5 C21 3.68 21 2.36 21 1 C21.66 1.33 22.32 1.66 23 2 C22.01 4.31 21.02 6.62 20 9 C12.74 9 5.48 9 -2 9 C-1.34 6.03 -0.68 3.06 0 0 Z " fill="#62609F" transform="translate(528,342)"/>
<path d="M0 0 C1.94140625 0.72265625 1.94140625 0.72265625 4 2 C4.71484375 4.05859375 4.71484375 4.05859375 4.9375 6.4375 C5.02902344 7.21996094 5.12054688 8.00242187 5.21484375 8.80859375 C5 11 5 11 3.50390625 12.78515625 C3.00761719 13.18605469 2.51132812 13.58695312 2 14 C1.34 13.34 0.68 12.68 0 12 C0.375 8.375 0.375 8.375 1 5 C0.34 5 -0.32 5 -1 5 C-1 4.34 -1 3.68 -1 3 C-4.63 3 -8.26 3 -12 3 C-12 2.67 -12 2.34 -12 2 C-8.04 2 -4.08 2 0 2 C0 1.34 0 0.68 0 0 Z " fill="#6361A0" transform="translate(485,383)"/>
<path d="M0 0 C0.99 0 1.98 0 3 0 C3.33 1.65 3.66 3.3 4 5 C3.34 5 2.68 5 2 5 C2 12.26 2 19.52 2 27 C1.34 27 0.68 27 0 27 C0 18.09 0 9.18 0 0 Z " fill="#343287" transform="translate(384,383)"/>
<path d="M0 0 C3.14958831 3.42346555 3.56179109 6.44262737 4 11 C1.36 11 -1.28 11 -4 11 C-4.56638908 6.18569279 -2.82561627 3.79692186 0 0 Z " fill="#C4C4D4" transform="translate(502,388)"/>
<path d="M0 0 C3.14958831 3.42346555 3.56179109 6.44262737 4 11 C1.36 11 -1.28 11 -4 11 C-4.56638908 6.18569279 -2.82561627 3.79692186 0 0 Z " fill="#C4C4D4" transform="translate(337,388)"/>
<path d="M0 0 C3.14958831 3.42346555 3.56179109 6.44262737 4 11 C1.36 11 -1.28 11 -4 11 C-4.56638908 6.18569279 -2.82561627 3.79692186 0 0 Z " fill="#C4C4D4" transform="translate(10,388)"/>
<path d="M0 0 C0.99 0.66 1.98 1.32 3 2 C3.29296875 4.3828125 3.29296875 4.3828125 3.1875 7.125 C3.16042969 8.03507812 3.13335938 8.94515625 3.10546875 9.8828125 C3.07066406 10.58148438 3.03585937 11.28015625 3 12 C1.02 12.99 -0.96 13.98 -3 15 C-3 14.34 -3 13.68 -3 13 C-7.29 12.67 -11.58 12.34 -16 12 C-16 8.7 -16 5.4 -16 2 C-15.67 2 -15.34 2 -15 2 C-15 4.97 -15 7.94 -15 11 C-13.20793453 10.85915204 -11.41635083 10.71216299 -9.625 10.5625 C-8.62726562 10.48128906 -7.62953125 10.40007812 -6.6015625 10.31640625 C-4.02072387 10.15034374 -4.02072387 10.15034374 -2 9 C-2 7.02 -2 5.04 -2 3 C-1.34 3.33 -0.68 3.66 0 4 C0 6.31 0 8.62 0 11 C0.66 11 1.32 11 2 11 C1.855625 9.741875 1.71125 8.48375 1.5625 7.1875 C1.48128906 6.47980469 1.40007813 5.77210938 1.31640625 5.04296875 C1.02829265 2.80603607 1.02829265 2.80603607 0 0 Z " fill="#8684B3" transform="translate(538,384)"/>
<path d="M0 0 C1.65 0 3.3 0 5 0 C5 0.66 5 1.32 5 2 C5.86625 2.309375 5.86625 2.309375 6.75 2.625 C9.84477636 4.51625222 11.1918763 6.90035937 13 10 C13 10.66 13 11.32 13 12 C10.75 12.375 10.75 12.375 8 12 C5.42485131 8.8680624 4 7.10589421 4 3 C2.68 2.34 1.36 1.68 0 1 C0 0.67 0 0.34 0 0 Z " fill="#524F97" transform="translate(637,399)"/>
<path d="M0 0 C7.59 0 15.18 0 23 0 C23.66 1.98 24.32 3.96 25 6 C24.34 5.67 23.68 5.34 23 5 C23 4.01 23 3.02 23 2 C16.07 2 9.14 2 2 2 C1.67 2.99 1.34 3.98 1 5 C0.67 3.35 0.34 1.7 0 0 Z " fill="#6E6BA6" transform="translate(434,228)"/>
<path d="M0 0 C1.5 1.25 1.5 1.25 3 3 C3 4.32 3 5.64 3 7 C3.66 7 4.32 7 5 7 C5.33 9.64 5.66 12.28 6 15 C4.35 14.67 2.7 14.34 1 14 C0.34 11.36 -0.32 8.72 -1 6 C-0.34 6 0.32 6 1 6 C0.67 4.02 0.34 2.04 0 0 Z " fill="#535097" transform="translate(509,396)"/>
<path d="M0 0 C1.5 1.25 1.5 1.25 3 3 C3 4.32 3 5.64 3 7 C3.66 7 4.32 7 5 7 C5.33 9.64 5.66 12.28 6 15 C4.35 14.67 2.7 14.34 1 14 C0.34 11.36 -0.32 8.72 -1 6 C-0.34 6 0.32 6 1 6 C0.67 4.02 0.34 2.04 0 0 Z " fill="#535097" transform="translate(344,396)"/>
<path d="M0 0 C1.5 1.25 1.5 1.25 3 3 C3 4.32 3 5.64 3 7 C3.66 7 4.32 7 5 7 C5.33 9.64 5.66 12.28 6 15 C4.35 14.67 2.7 14.34 1 14 C0.34 11.36 -0.32 8.72 -1 6 C-0.34 6 0.32 6 1 6 C0.67 4.02 0.34 2.04 0 0 Z " fill="#535097" transform="translate(17,396)"/>
<path d="M0 0 C7.59 0 15.18 0 23 0 C22.67 1.98 22.34 3.96 22 6 C21.01 6.495 21.01 6.495 20 7 C20.33 5.35 20.66 3.7 21 2 C13.74 2 6.48 2 -1 2 C-0.67 1.34 -0.34 0.68 0 0 Z " fill="#7370A9" transform="translate(531,228)"/>
<path d="M0 0 C1.65 0 3.3 0 5 0 C7.84964058 6.07841789 9.72805471 10.37579029 8 17 C7.34 17 6.68 17 6 17 C5.70996094 16.04287109 5.70996094 16.04287109 5.4140625 15.06640625 C5.15367187 14.24011719 4.89328125 13.41382813 4.625 12.5625 C4.24214844 11.32693359 4.24214844 11.32693359 3.8515625 10.06640625 C3.19117773 7.82201984 3.19117773 7.82201984 1 7 C1 6.34 1 5.68 1 5 C1.99 5 2.98 5 4 5 C4 3.68 4 2.36 4 1 C2.68 0.67 1.36 0.34 0 0 Z " fill="#6A68A4" transform="translate(500,382)"/>
<path d="M0 0 C1.65 0 3.3 0 5 0 C7.84964058 6.07841789 9.72805471 10.37579029 8 17 C7.34 17 6.68 17 6 17 C5.70996094 16.04287109 5.70996094 16.04287109 5.4140625 15.06640625 C5.15367187 14.24011719 4.89328125 13.41382813 4.625 12.5625 C4.24214844 11.32693359 4.24214844 11.32693359 3.8515625 10.06640625 C3.19117773 7.82201984 3.19117773 7.82201984 1 7 C1 6.34 1 5.68 1 5 C1.99 5 2.98 5 4 5 C4 3.68 4 2.36 4 1 C2.68 0.67 1.36 0.34 0 0 Z " fill="#6A68A4" transform="translate(335,382)"/>
<path d="M0 0 C1.65 0 3.3 0 5 0 C7.84964058 6.07841789 9.72805471 10.37579029 8 17 C7.34 17 6.68 17 6 17 C5.70996094 16.04287109 5.70996094 16.04287109 5.4140625 15.06640625 C5.15367188 14.24011719 4.89328125 13.41382813 4.625 12.5625 C4.24214844 11.32693359 4.24214844 11.32693359 3.8515625 10.06640625 C3.19117773 7.82201984 3.19117773 7.82201984 1 7 C1 6.34 1 5.68 1 5 C1.99 5 2.98 5 4 5 C4 3.68 4 2.36 4 1 C2.68 0.67 1.36 0.34 0 0 Z " fill="#6A68A4" transform="translate(8,382)"/>
<path d="M0 0 C-5.2652868 3.36393323 -8.85463535 4.12816355 -15.078125 4.09765625 C-16.23828125 4.09443359 -17.3984375 4.09121094 -18.59375 4.08789062 C-19.8003125 4.07951172 -21.006875 4.07113281 -22.25 4.0625 C-23.47203125 4.05798828 -24.6940625 4.05347656 -25.953125 4.04882812 C-28.96879946 4.03704815 -31.98437498 4.02059853 -35 4 C-35 3.67 -35 3.34 -35 3 C-34.0867395 2.97812622 -34.0867395 2.97812622 -33.1550293 2.95581055 C-18.26236549 2.77554268 -18.26236549 2.77554268 -3.828125 -0.4765625 C-2 -1 -2 -1 0 0 Z " fill="#9C9BBF" transform="translate(73,349)"/>
<path d="M0 0 C0.99 0 1.98 0 3 0 C2.67 2.31 2.34 4.62 2 7 C0.68 7.33 -0.64 7.66 -2 8 C-2 7.34 -2 6.68 -2 6 C-5.3 6 -8.6 6 -12 6 C-12.33 5.34 -12.66 4.68 -13 4 C-12.31292969 4.04640625 -11.62585938 4.0928125 -10.91796875 4.140625 C-9.56638672 4.19476563 -9.56638672 4.19476563 -8.1875 4.25 C-6.84751953 4.31960938 -6.84751953 4.31960938 -5.48046875 4.390625 C-2.8363375 4.25756683 -2.8363375 4.25756683 -1.36328125 1.984375 C-0.91339844 1.32953125 -0.46351563 0.6746875 0 0 Z " fill="#7371A8" transform="translate(290,402)"/>
<path d="M0 0 C0.87785156 0.08894531 1.75570312 0.17789062 2.66015625 0.26953125 C3.53542969 0.34558594 4.41070312 0.42164063 5.3125 0.5 C8.07387468 1.16684737 9.10505427 1.75973137 10.72265625 4.08203125 C10.72265625 5.40203125 10.72265625 6.72203125 10.72265625 8.08203125 C9.40265625 7.75203125 8.08265625 7.42203125 6.72265625 7.08203125 C6.72265625 6.09203125 6.72265625 5.10203125 6.72265625 4.08203125 C3.09265625 3.42203125 -0.53734375 2.76203125 -4.27734375 2.08203125 C-2.27734375 0.08203125 -2.27734375 0.08203125 0 0 Z " fill="#474491" transform="translate(187.27734375,382.91796875)"/>
<path d="M0 0 C3 1 3 1 5 4 C5.25760279 6.69452521 5.08900053 9.28548375 5 12 C4.34 12 3.68 12 3 12 C2.814375 10.2984375 2.814375 10.2984375 2.625 8.5625 C2.41875 7.386875 2.2125 6.21125 2 5 C-0.70183055 3.64908472 -3.11808206 3.66141942 -6.125 3.4375 C-7.76855469 3.31181641 -7.76855469 3.31181641 -9.4453125 3.18359375 C-10.28835938 3.12300781 -11.13140625 3.06242187 -12 3 C-12 2.67 -12 2.34 -12 2 C-8.04 2 -4.08 2 0 2 C0 1.34 0 0.68 0 0 Z " fill="#514F96" transform="translate(535,383)"/>
<path d="M0 0 C1.98 0.99 1.98 0.99 4 2 C4 1.34 4 0.68 4 0 C4.66 0 5.32 0 6 0 C10 5.41176471 10 5.41176471 10 8 C8.35 8 6.7 8 5 8 C4.731875 7.195625 4.46375 6.39125 4.1875 5.5625 C3.795625 4.716875 3.40375 3.87125 3 3 C2.01 2.67 1.02 2.34 0 2 C0 1.34 0 0.68 0 0 Z " fill="#5E5B9D" transform="translate(533,403)"/>
<path d="M0 0 C1.5 1.25 1.5 1.25 3 3 C3 4.32 3 5.64 3 7 C-1.95 7 -6.9 7 -12 7 C-12 6.01 -12 5.02 -12 4 C-7.71 4 -3.42 4 1 4 C0.67 2.68 0.34 1.36 0 0 Z " fill="#363388" transform="translate(507,395)"/>
<path d="M0 0 C1.5 1.25 1.5 1.25 3 3 C3 4.32 3 5.64 3 7 C-1.95 7 -6.9 7 -12 7 C-12 6.01 -12 5.02 -12 4 C-7.71 4 -3.42 4 1 4 C0.67 2.68 0.34 1.36 0 0 Z " fill="#363388" transform="translate(342,395)"/>
<path d="M0 0 C1.5 1.25 1.5 1.25 3 3 C3 4.32 3 5.64 3 7 C-1.95 7 -6.9 7 -12 7 C-12 6.01 -12 5.02 -12 4 C-7.71 4 -3.42 4 1 4 C0.67 2.68 0.34 1.36 0 0 Z " fill="#363388" transform="translate(15,395)"/>
<path d="M0 0 C-0.31710937 0.69480469 -0.63421875 1.38960938 -0.9609375 2.10546875 C-2.09401052 5.26188644 -2.40480011 7.97280167 -2.625 11.3125 C-2.69976562 12.38113281 -2.77453125 13.44976562 -2.8515625 14.55078125 C-2.90054687 15.35902344 -2.94953125 16.16726563 -3 17 C-3.66 17 -4.32 17 -5 17 C-5.02701408 14.89590361 -5.04640223 12.79170822 -5.0625 10.6875 C-5.07410156 9.51574219 -5.08570313 8.34398437 -5.09765625 7.13671875 C-5 4 -5 4 -4 1 C-2 0 -2 0 0 0 Z " fill="#3F3C8D" transform="translate(276,386)"/>
<path d="M0 0 C1.875 0.125 1.875 0.125 4 1 C6.62245942 6.3760418 6.886993 12.33902101 5 18 C4.34 18 3.68 18 3 18 C3.03480469 17.18015625 3.06960937 16.3603125 3.10546875 15.515625 C3.13253906 14.43796875 3.15960938 13.3603125 3.1875 12.25 C3.22230469 11.18265625 3.25710937 10.1153125 3.29296875 9.015625 C2.96694767 5.65978134 2.14887977 4.50420634 0 2 C0 1.34 0 0.68 0 0 Z " fill="#3F3C8D" transform="translate(127,386)"/>
<path d="M0 0 C0.66 0.33 1.32 0.66 2 1 C1.319375 1.680625 0.63875 2.36125 -0.0625 3.0625 C-0.73732422 3.73925781 -0.73732422 3.73925781 -1.42578125 4.4296875 C-2.56392986 5.56501192 -3.70791175 6.69449869 -4.85546875 7.8203125 C-5.48066406 8.43648437 -6.10585937 9.05265625 -6.75 9.6875 C-7.34296875 10.26886719 -7.9359375 10.85023438 -8.546875 11.44921875 C-10.09641804 12.95513974 -10.09641804 12.95513974 -11 15 C-11.66 15 -12.32 15 -13 15 C-12.67 13.68 -12.34 12.36 -12 11 C-11.34 11 -10.68 11 -10 11 C-9.7525 10.38125 -9.505 9.7625 -9.25 9.125 C-7.79371361 6.64931313 -6.62187494 6.04874998 -4 5 C-4 4.34 -4 3.68 -4 3 C-2 1.375 -2 1.375 0 0 Z " fill="#58569A" transform="translate(21,232)"/>
<path d="M0 0 C0.33 0 0.66 0 1 0 C0.67 2.97 0.34 5.94 0 9 C-0.66 9 -1.32 9 -2 9 C-2.185625 10.85625 -2.185625 10.85625 -2.375 12.75 C-2.75746305 15.8762197 -3.30549523 18.28879237 -5 21 C-5.66 21 -6.32 21 -7 21 C-6.67 19.02 -6.34 17.04 -6 15 C-5.34 15 -4.68 15 -4 15 C-3.67 12.36 -3.34 9.72 -3 7 C-2.34 7 -1.68 7 -1 7 C-0.67 4.69 -0.34 2.38 0 0 Z " fill="#6B69A5" transform="translate(510,279)"/>
<path d="M0 0 C6.6 0 13.2 0 20 0 C20 0.33 20 0.66 20 1 C10.595 1.495 10.595 1.495 1 2 C0.01 4.31 -0.98 6.62 -2 9 C-2.99 9.495 -2.99 9.495 -4 10 C-3.67 8.02 -3.34 6.04 -3 4 C-2.34 4 -1.68 4 -1 4 C-0.67 2.68 -0.34 1.36 0 0 Z " fill="#555298" transform="translate(579,228)"/>
<path d="M0 0 C0.66 0 1.32 0 2 0 C2 0.66 2 1.32 2 2 C2.66 2 3.32 2 4 2 C4.33 1.34 4.66 0.68 5 0 C9 5.75 9 5.75 9 8 C7.35 8 5.7 8 4 8 C2.68 5.36 1.36 2.72 0 0 Z " fill="#545298" transform="translate(154,403)"/>
<path d="M0 0 C1.43655854 -0.08131463 2.8744483 -0.13933559 4.3125 -0.1875 C5.51326172 -0.23970703 5.51326172 -0.23970703 6.73828125 -0.29296875 C9.47851584 0.06198392 10.29171079 0.89366282 12 3 C11.34 3.66 10.68 4.32 10 5 C7.3984375 4.9765625 7.3984375 4.9765625 4.375 4.625 C3.37210937 4.51414062 2.36921875 4.40328125 1.3359375 4.2890625 C0.56507812 4.19367188 -0.20578125 4.09828125 -1 4 C-1 3.67 -1 3.34 -1 3 C1.31 3 3.62 3 6 3 C6 2.34 6 1.68 6 1 C4.02 1 2.04 1 0 1 C0 0.67 0 0.34 0 0 Z " fill="#7573A9" transform="translate(117,382)"/>
<path d="M0 0 C1.9375 0.8125 1.9375 0.8125 4 2 C5.09506492 5.28519475 5.09960608 7.73663415 5.0625 11.1875 C5.05347656 12.27417969 5.04445312 13.36085938 5.03515625 14.48046875 C5.02355469 15.31191406 5.01195312 16.14335937 5 17 C2.63538283 13.45307425 2.61566673 11.19852591 2.34375 7.05859375 C2.1683252 4.78100001 2.1683252 4.78100001 0 3 C0 2.01 0 1.02 0 0 Z " fill="#3D3A8C" transform="translate(248,385)"/>
<path d="M0 0 C5.29387955 0.44703872 9.98572939 1.14689999 15 3 C17.32595784 3.69495082 19.66222088 4.34542185 22 5 C17.28675947 7.35662027 9.41579644 4.80526548 4.5859375 3.1953125 C3.03019153 2.52307659 1.50876622 1.7719269 0 1 C0 0.67 0 0.34 0 0 Z " fill="#A5A4C4" transform="translate(35,274)"/>
<path d="M0 0 C1.32 0.99 2.64 1.98 4 3 C4 3.66 4 4.32 4 5 C3.01 5.495 3.01 5.495 2 6 C1.68758629 8.54941373 1.48696579 11.00361513 1.375 13.5625 C1.33632813 14.27341797 1.29765625 14.98433594 1.2578125 15.71679688 C1.16328217 17.47742425 1.08054183 19.23867728 1 21 C0.67 21 0.34 21 0 21 C0 14.07 0 7.14 0 0 Z " fill="#AAAAC7" transform="translate(574,390)"/>
<path d="M0 0 C1.32 0.99 2.64 1.98 4 3 C4 3.66 4 4.32 4 5 C3.01 5.495 3.01 5.495 2 6 C1.68758629 8.54941373 1.48696579 11.00361513 1.375 13.5625 C1.33632813 14.27341797 1.29765625 14.98433594 1.2578125 15.71679688 C1.16328217 17.47742425 1.08054183 19.23867728 1 21 C0.67 21 0.34 21 0 21 C0 14.07 0 7.14 0 0 Z " fill="#AAAAC7" transform="translate(358,390)"/>
<path d="M0 0 C0 0.33 0 0.66 0 1 C-1.98 1 -3.96 1 -6 1 C-6 1.66 -6 2.32 -6 3 C-4.35 3 -2.7 3 -1 3 C-1 3.33 -1 3.66 -1 4 C-6.94 4.495 -6.94 4.495 -13 5 C-13 4.34 -13 3.68 -13 3 C-8.44573816 0.33409063 -5.26053037 -0.31563182 0 0 Z " fill="#7271A8" transform="translate(286,382)"/>
<path d="M0 0 C6.19518473 0.41588046 11.26689311 1.60251894 17 4 C17 4.33 17 4.66 17 5 C13.04 4.67 9.08 4.34 5 4 C5 3.34 5 2.68 5 2 C3.35 1.67 1.7 1.34 0 1 C0 0.67 0 0.34 0 0 Z " fill="#9695BB" transform="translate(40,297)"/>
<path d="M0 0 C1.21236328 0.01353516 1.21236328 0.01353516 2.44921875 0.02734375 C3.37154297 0.04474609 3.37154297 0.04474609 4.3125 0.0625 C4.3125 0.7225 4.3125 1.3825 4.3125 2.0625 C1.90704362 3.26522819 0.36253047 3.16321472 -2.3125 3.125 C-3.53839844 3.11146484 -3.53839844 3.11146484 -4.7890625 3.09765625 C-5.72878906 3.08025391 -5.72878906 3.08025391 -6.6875 3.0625 C-7.0175 2.4025 -7.3475 1.7425 -7.6875 1.0625 C-4.80538698 0.10179566 -2.98899956 -0.04331883 0 0 Z " fill="#4E4B94" transform="translate(283.6875,407.9375)"/>
<path d="M0 0 C4.62 0 9.24 0 14 0 C14 0.66 14 1.32 14 2 C11.51245214 3.24377393 9.77344699 3.13306235 7 3.125 C6.113125 3.12757813 5.22625 3.13015625 4.3125 3.1328125 C2 3 2 3 0 2 C0 1.34 0 0.68 0 0 Z " fill="#413E8E" transform="translate(114,407)"/>
<path d="M0 0 C4.62 0 9.24 0 14 0 C13.67 0.99 13.34 1.98 13 3 C8.71 3 4.42 3 0 3 C0 2.01 0 1.02 0 0 Z " fill="#4F4D95" transform="translate(473,396)"/>
<path d="M0 0 C4.62 0 9.24 0 14 0 C14 0.66 14 1.32 14 2 C9.38 2.33 4.76 2.66 0 3 C0 2.01 0 1.02 0 0 Z " fill="#302D85" transform="translate(471,383)"/>
<path d="M0 0 C3.96 0.33 7.92 0.66 12 1 C12 1.33 12 1.66 12 2 C8.7 2.33 5.4 2.66 2 3 C1.67 6.63 1.34 10.26 1 14 C0.67 14 0.34 14 0 14 C0 9.38 0 4.76 0 0 Z " fill="#333086" transform="translate(471,396)"/>
<path d="M0 0 C0.625 1.8125 0.625 1.8125 1 4 C0.01 5.485 0.01 5.485 -1 7 C-1.5827119 8.54766142 -2.12264187 10.11192222 -2.625 11.6875 C-3.01558594 12.89986328 -3.01558594 12.89986328 -3.4140625 14.13671875 C-3.60742188 14.75160156 -3.80078125 15.36648438 -4 16 C-4.66 16 -5.32 16 -6 16 C-6 15.01 -6 14.02 -6 13 C-5.34 13 -4.68 13 -4 13 C-3.87882813 12.39671875 -3.75765625 11.7934375 -3.6328125 11.171875 C-3.46523438 10.37265625 -3.29765625 9.5734375 -3.125 8.75 C-2.88136719 7.56664062 -2.88136719 7.56664062 -2.6328125 6.359375 C-2.00849925 4.03168856 -1.15161458 2.10968048 0 0 Z " fill="#7876AC" transform="translate(540,315)"/>
<path d="M0 0 C0.66 0 1.32 0 2 0 C2.33 2.64 2.66 5.28 3 8 C1.35 7.67 -0.3 7.34 -2 7 C-2.33 5.35 -2.66 3.7 -3 2 C-2.01 2.495 -2.01 2.495 -1 3 C-1 3.99 -1 4.98 -1 6 C-0.34 6 0.32 6 1 6 C0.67 4.02 0.34 2.04 0 0 Z " fill="#7674AA" transform="translate(512,403)"/>
<path d="M0 0 C0.66 0 1.32 0 2 0 C2.33 2.64 2.66 5.28 3 8 C1.35 7.67 -0.3 7.34 -2 7 C-2.33 5.35 -2.66 3.7 -3 2 C-2.01 2.495 -2.01 2.495 -1 3 C-1 3.99 -1 4.98 -1 6 C-0.34 6 0.32 6 1 6 C0.67 4.02 0.34 2.04 0 0 Z " fill="#7674AA" transform="translate(347,403)"/>
<path d="M0 0 C0.66 0 1.32 0 2 0 C2.33 2.64 2.66 5.28 3 8 C1.35 7.67 -0.3 7.34 -2 7 C-2.33 5.35 -2.66 3.7 -3 2 C-2.01 2.495 -2.01 2.495 -1 3 C-1 3.99 -1 4.98 -1 6 C-0.34 6 0.32 6 1 6 C0.67 4.02 0.34 2.04 0 0 Z " fill="#7674AA" transform="translate(20,403)"/>
<path d="M0 0 C1.32 0 2.64 0 4 0 C4.33 1.32 4.66 2.64 5 4 C4.34 4 3.68 4 3 4 C3.33 5.32 3.66 6.64 4 8 C2 6.25 2 6.25 0 4 C0 2.68 0 1.36 0 0 Z " fill="#6260A0" transform="translate(177,401)"/>
<path d="M0 0 C0.99 0 1.98 0 3 0 C4.125 5.625 4.125 5.625 3 9 C2.34 9 1.68 9 1 9 C0.67 6.03 0.34 3.06 0 0 Z " fill="#535097" transform="translate(505,390)"/>
<path d="M0 0 C0.99 0 1.98 0 3 0 C4.125 5.625 4.125 5.625 3 9 C2.34 9 1.68 9 1 9 C0.67 6.03 0.34 3.06 0 0 Z " fill="#535097" transform="translate(340,390)"/>
<path d="M0 0 C0.99 0 1.98 0 3 0 C4.125 5.625 4.125 5.625 3 9 C2.34 9 1.68 9 1 9 C0.67 6.03 0.34 3.06 0 0 Z " fill="#535097" transform="translate(13,390)"/>
<path d="M0 0 C0.66 0 1.32 0 2 0 C0.44191344 9.59453303 0.44191344 9.59453303 -4 13 C-3.67 11.02 -3.34 9.04 -3 7 C-2.34 7 -1.68 7 -1 7 C-0.67 4.69 -0.34 2.38 0 0 Z " fill="#6765A2" transform="translate(546,301)"/>
<path d="M0 0 C4.75032037 0.46571768 8.12160643 1.14824002 12 4 C12.33 4.66 12.66 5.32 13 6 C3.40546697 3.10933941 3.40546697 3.10933941 0 0 Z " fill="#A8A6C5" transform="translate(65,282)"/>
<path d="M0 0 C0.99 0.33 1.98 0.66 3 1 C3 3.97 3 6.94 3 10 C1.68 10.33 0.36 10.66 -1 11 C-0.855625 10.443125 -0.71125 9.88625 -0.5625 9.3125 C0.91753526 4.57557008 0.91753526 4.57557008 0 0 Z " fill="#605E9F" transform="translate(193,399)"/>
<path d="M0 0 C0.33 0.66 0.66 1.32 1 2 C1.66 2 2.32 2 3 2 C2.67 3.65 2.34 5.3 2 7 C0.68 7 -0.64 7 -2 7 C-1.125 2.25 -1.125 2.25 0 0 Z " fill="#59579B" transform="translate(492,404)"/>
<path d="M0 0 C0.33 0.66 0.66 1.32 1 2 C1.66 2 2.32 2 3 2 C2.67 3.65 2.34 5.3 2 7 C0.68 7 -0.64 7 -2 7 C-1.125 2.25 -1.125 2.25 0 0 Z " fill="#59579B" transform="translate(327,404)"/>
<path d="M0 0 C0 1.98 0 3.96 0 6 C-1.32 5.67 -2.64 5.34 -4 5 C-4.33 3.68 -4.66 2.36 -5 1 C-1.125 0 -1.125 0 0 0 Z " fill="#333187" transform="translate(404,404)"/>
<path d="M0 0 C0.33 0.66 0.66 1.32 1 2 C1.66 2 2.32 2 3 2 C3.1875 5.375 3.1875 5.375 3 9 C2.01 9.66 1.02 10.32 0 11 C0 7.37 0 3.74 0 0 Z " fill="#B0AFC9" transform="translate(489,385)"/>
<path d="M0 0 C0.33 0 0.66 0 1 0 C0.67 2.97 0.34 5.94 0 9 C-0.66 9 -1.32 9 -2 9 C-2.33 9.99 -2.66 10.98 -3 12 C-4 10 -4 10 -3.22265625 7.6171875 C-2.83980469 6.71226562 -2.45695312 5.80734375 -2.0625 4.875 C-1.68222656 3.96492188 -1.30195312 3.05484375 -0.91015625 2.1171875 C-0.60980469 1.41851562 -0.30945313 0.71984375 0 0 Z " fill="#9998BE" transform="translate(129,333)"/>
<path d="M0 0 C0.33 0 0.66 0 1 0 C0.91291331 1.45945288 0.80473093 2.91765868 0.6875 4.375 C0.62949219 5.18710937 0.57148438 5.99921875 0.51171875 6.8359375 C0 9 0 9 -3 11 C-2.32829194 7.1936543 -1.27253436 3.64793184 0 0 Z " fill="#9E9CC0" transform="translate(507,339)"/>
<path d="M0 0 C0.66 0.33 1.32 0.66 2 1 C1.55090939 2.48199902 1.09043436 3.96055236 0.625 5.4375 C0.36976563 6.26121094 0.11453125 7.08492188 -0.1484375 7.93359375 C-1 10 -1 10 -3 11 C-3 9.68 -3 8.36 -3 7 C-2.34 7 -1.68 7 -1 7 C-0.67 4.69 -0.34 2.38 0 0 Z " fill="#6D6BA5" transform="translate(561,266)"/>
<path d="M0 0 C0.33 0.66 0.66 1.32 1 2 C1.66 2.33 2.32 2.66 3 3 C2.01 4.485 2.01 4.485 1 6 C-0.32 5.34 -1.64 4.68 -3 4 C-2.01 2.68 -1.02 1.36 0 0 Z " fill="#5B599C" transform="translate(129,402)"/>
<path d="M0 0 C0.33 0 0.66 0 1 0 C1 2.31 1 4.62 1 7 C-0.32 7.33 -1.64 7.66 -3 8 C-2.67 6.68 -2.34 5.36 -2 4 C-1.34 4 -0.68 4 0 4 C0 2.68 0 1.36 0 0 Z " fill="#3E3B8C" transform="translate(646,389)"/>
</svg>
