<?xml version="1.0" encoding="UTF-8"?>
<svg version="1.1" xmlns="http://www.w3.org/2000/svg"  width="190" height="56">
<path d="M0 0 C9.9 0 19.8 0 30 0 C30 47.19 30 94.38 30 143 C20.1 143 10.2 143 0 143 C0 95.81 0 48.62 0 0 Z " fill="#D12B19" transform="translate(251,0)"/>
<path d="M0 0 C9.9 0 19.8 0 30 0 C30 37.95 30 75.9 30 115 C20.1 115 10.2 115 0 115 C0 77.05 0 39.1 0 0 Z " fill="#FECC06" transform="translate(213,28)"/>
<path d="M0 0 C4.95 0 9.9 0 15 0 C17.68542154 6.02332113 20.36882019 12.04753834 23.05053711 18.07250977 C23.95854232 20.11180541 24.86705149 22.15087675 25.77612305 24.18969727 C31.29687133 36.5724271 36.74326807 48.98200092 42.0546875 61.45605469 C44.31536693 66.7574916 46.65078229 72.02410674 49.00390625 77.28515625 C50 80 50 80 50 84 C45.05 84 40.1 84 35 84 C27 68.17391304 27 68.17391304 27 64 C14.13 64 1.26 64 -12 64 C-12.99 66.97 -13.98 69.94 -15 73 C-16.56991172 76.71914297 -18.2870531 80.34262688 -20 84 C-25.28 84 -30.56 84 -36 84 C-33.61932762 76.26487418 -30.42537076 69.04152445 -27.0625 61.6875 C-25.88972864 59.10313884 -24.72143773 56.51677198 -23.5546875 53.9296875 C-23.11025551 52.94477074 -23.11025551 52.94477074 -22.65684509 51.93995667 C-19.57990061 45.10101568 -16.62568499 38.21210202 -13.6875 31.3125 C-9.22238728 20.83005018 -4.67331489 10.3912531 0 0 Z M7 19 C5.14628755 23.25314753 3.29493592 27.50731157 1.44580078 31.76245117 C0.81592159 33.21097821 0.18538897 34.65922129 -0.44580078 36.10717773 C-1.35098945 38.18399601 -2.25385192 40.2618117 -3.15625 42.33984375 C-3.44060913 42.99089584 -3.72496826 43.64194794 -4.01794434 44.31272888 C-5.40786107 47.05836199 -5.40786107 47.05836199 -6 50 C2.58 50 11.16 50 20 50 C17.68252606 42.94253821 17.68252606 42.94253821 15.02734375 36.0703125 C14.68509766 35.255625 14.34285156 34.4409375 13.99023438 33.6015625 C13.64283203 32.78429687 13.29542969 31.96703125 12.9375 31.125 C12.58623047 30.28453125 12.23496094 29.4440625 11.87304688 28.578125 C10.42320722 25.14674647 9.07533936 22.11300904 7 19 Z " fill="#3B388B" transform="translate(386,151)"/>
<path d="M0 0 C4.95 0 9.9 0 15 0 C21.78696865 14.51931546 28.25733865 29.14458861 34.52667236 43.89321899 C38.92504233 54.23879693 43.41334087 64.52344321 48.20727539 74.69384766 C48.76789673 75.89726807 48.76789673 75.89726807 49.33984375 77.125 C49.82505493 78.14980469 49.82505493 78.14980469 50.32006836 79.1953125 C51 81 51 81 51 84 C45.72 84 40.44 84 35 84 C31.35725282 77.03126626 28.93304342 71.73217369 27 64 C14.13 64 1.26 64 -12 64 C-12.99 66.97 -13.98 69.94 -15 73 C-16.56991172 76.71914297 -18.2870531 80.34262688 -20 84 C-24.95 84 -29.9 84 -35 84 C-35.33 83.34 -35.66 82.68 -36 82 C-35.27832031 79.98242188 -35.27832031 79.98242188 -34.078125 77.46875 C-33.63557373 76.52708984 -33.19302246 75.58542969 -32.73706055 74.61523438 C-32.00096558 73.07319336 -32.00096558 73.07319336 -31.25 71.5 C-27.22390837 62.89965433 -23.3494477 54.26166515 -19.6875 45.5 C-15.32573519 35.08161319 -10.84869952 24.71828909 -6.3125 14.375 C-5.99614594 13.65352783 -5.67979187 12.93205566 -5.35385132 12.1887207 C-3.57140228 8.12485555 -1.78605039 4.06228687 0 0 Z M7 19 C5.46941362 22.6109765 3.93948757 26.222232 2.41015625 29.83374023 C1.63576125 31.6620926 0.86085298 33.49022755 0.0859375 35.31835938 C-0.40390625 36.47529297 -0.89375 37.63222656 -1.3984375 38.82421875 C-1.84880371 39.88729248 -2.29916992 40.95036621 -2.76318359 42.0456543 C-3.86861601 44.68616705 -4.9368694 47.34217349 -6 50 C2.91 50 11.82 50 21 50 C17.84642006 42.79000637 17.84642006 42.79000637 14.68823242 35.58203125 C12.29920259 30.10373038 10.03331613 24.62032896 8 19 C7.67 19 7.34 19 7 19 Z " fill="#3B388B" transform="translate(103,151)"/>
<path d="M0 0 C-1.46818668 3.10742423 -3.20025 5.90471739 -5.125 8.75 C-5.66382813 9.54921875 -6.20265625 10.3484375 -6.7578125 11.171875 C-7.16773438 11.77515625 -7.57765625 12.3784375 -8 13 C-8.78503906 12.59007812 -9.57007813 12.18015625 -10.37890625 11.7578125 C-22.53082689 5.20466894 -22.53082689 5.20466894 -35.9609375 5.60546875 C-39.66977293 6.98968106 -39.66977293 6.98968106 -42 10 C-42.6087891 14.09313873 -42.6087891 14.09313873 -42 18 C-37.1864289 22.18915055 -31.70774798 23.44076038 -25.625 25 C-9.06912387 29.28007025 -9.06912387 29.28007025 -3.125 35.4375 C-2.57070313 35.99308594 -2.01640625 36.54867187 -1.4453125 37.12109375 C3.0931815 43.02113595 2.663626 49.89833998 2 57 C0.25725113 64.01778069 -5.07489429 69.15883609 -11 73 C-22.56757829 77.65505506 -34.3224076 76.77103524 -46 73 C-51.81837512 70.38063062 -57.23037103 67.27621908 -62 63 C-60.49087042 58.01987239 -57.44338151 54.75740058 -54 51 C-51.60554322 52.17075405 -49.26846662 53.40350822 -46.93359375 54.69140625 C-38.18321529 59.3745697 -31.07410369 61.96414344 -21.0625 60.375 C-17.41056617 58.73535624 -15.88771707 57.5394695 -14 54 C-13.34371409 50.42287877 -13.34371409 50.42287877 -15 47 C-20.91157758 42.12191501 -29.1970538 40.7824546 -36.44384766 38.87231445 C-45.1401754 36.52677495 -51.79052043 33.57742483 -57 26 C-59.98888777 19.672461 -60.12662914 12.91038754 -58.1953125 6.20703125 C-54.93448722 -1.22540154 -49.82542929 -4.80662305 -42.59375 -8.09375 C-27.58964421 -13.33614841 -12.85700724 -7.88952717 0 0 Z " fill="#39368A" transform="translate(62,160)"/>
<path d="M0 0 C9.9 0 19.8 0 30 0 C30 28.38 30 56.76 30 86 C20.1 86 10.2 86 0 86 C0 57.62 0 29.24 0 0 Z " fill="#B9D00C" transform="translate(175,57)"/>
<path d="M0 0 C5.61 0.33 11.22 0.66 17 1 C20.36054137 8.27090229 23.50671272 15.573277 26.42578125 23.03125 C26.81823532 24.02958862 27.21068939 25.02792725 27.61503601 26.05651855 C28.43410798 28.14319435 29.25162436 30.23048138 30.06762695 32.31835938 C31.32106488 35.52189007 32.58316763 38.72192051 33.84570312 41.921875 C34.64375522 43.95812724 35.44129986 45.99457845 36.23828125 48.03125 C36.61632401 48.98745239 36.99436676 49.94365479 37.38386536 50.92883301 C37.72810043 51.8140564 38.07233551 52.69927979 38.42700195 53.61132812 C38.731689 54.3886731 39.03637604 55.16601807 39.35029602 55.96691895 C40 58 40 58 40 61 C40.66 61 41.32 61 42 61 C42.09966064 60.35015137 42.19932129 59.70030273 42.30200195 59.03076172 C43.22321559 55.03078056 44.67920651 51.32717031 46.16796875 47.5078125 C46.48526443 46.68481659 46.80256012 45.86182068 47.12947083 45.0138855 C48.14505643 42.38278688 49.1662947 39.75392179 50.1875 37.125 C50.85516683 35.39596811 51.52248779 33.66680261 52.18945312 31.9375 C55.23672474 24.04763301 58.30875286 16.1672775 61.42578125 8.3046875 C62.137948 6.50620361 62.137948 6.50620361 62.86450195 4.67138672 C64 2 64 2 65 1 C67.85877909 0.76298761 70.69883297 0.57780818 73.5625 0.4375 C74.36880859 0.39431641 75.17511719 0.35113281 76.00585938 0.30664062 C78.00368805 0.20024738 80.0018207 0.09959112 82 0 C79.34849998 8.50373934 75.91912049 16.6602949 72.5 24.875 C71.55625466 27.15185346 70.61362974 29.42916844 69.67114258 31.70654297 C69.03588894 33.24150857 68.40030915 34.77633923 67.7644043 36.31103516 C64.81042967 43.44426894 61.90206803 50.59550767 59 57.75 C55.42847723 66.54377102 51.78819947 75.2973796 48 84 C43.38 84 38.76 84 34 84 C31.13718412 78.44960251 28.6644297 72.87469472 26.3984375 67.05859375 C23.31357787 59.2471614 20.14772346 51.47368106 16.9140625 43.72265625 C16.48156189 42.68587738 16.04906128 41.64909851 15.60345459 40.5809021 C14.27839773 37.40764275 12.95179666 34.23503225 11.625 31.0625 C10.27234211 27.82466263 8.9201063 24.58664957 7.56820679 21.34849548 C6.73623381 19.35605766 5.90376153 17.36382822 5.07070923 15.37184143 C4.69626678 14.47577682 4.32182434 13.57971222 3.93603516 12.65649414 C3.60930817 11.87520645 3.28258118 11.09391876 2.94595337 10.28895569 C2.47770645 9.15592262 2.47770645 9.15592262 2 8 C1.63006927 7.14083481 1.26013855 6.28166962 0.8789978 5.39646912 C0 3 0 3 0 0 Z " fill="#3B388B" transform="translate(289,151)"/>
<path d="M0 0 C22.44 0 44.88 0 68 0 C68 4.62 68 9.24 68 14 C59.42 14 50.84 14 42 14 C42 36.77 42 59.54 42 83 C36.72 83 31.44 83 26 83 C26 60.23 26 37.46 26 14 C17.42 14 8.84 14 0 14 C0 9.38 0 4.76 0 0 Z " fill="#373489" transform="translate(213,152)"/>
<path d="M0 0 C22.11 0 44.22 0 67 0 C67 4.62 67 9.24 67 14 C58.42 14 49.84 14 41 14 C41 36.77 41 59.54 41 83 C36.05 83 31.1 83 26 83 C25 82 25 82 24.87974548 79.33616638 C24.8830764 77.5541256 24.8830764 77.5541256 24.88647461 75.73608398 C24.88632858 75.08244873 24.88618256 74.42881348 24.8860321 73.75537109 C24.88673117 71.58557872 24.89452322 69.41587121 24.90234375 67.24609375 C24.90420795 65.74536689 24.90563184 64.24463943 24.90663147 62.74391174 C24.91045648 58.78681774 24.9202866 54.82976022 24.93133545 50.87268066 C24.94154994 46.83765151 24.94612917 42.80261647 24.95117188 38.76757812 C24.9619089 30.84503344 24.97950555 22.92252546 25 15 C16.75 14.67 8.5 14.34 0 14 C0 9.38 0 4.76 0 0 Z " fill="#363388" transform="translate(138,152)"/>
<path d="M0 0 C9.57 0 19.14 0 29 0 C29 19.14 29 38.28 29 58 C19.43 58 9.86 58 0 58 C0 38.86 0 19.72 0 0 Z " fill="#34BAEC" transform="translate(138,85)"/>
<path d="M0 0 C0.99 0.495 0.99 0.495 2 1 C2 47.2 2 93.4 2 141 C11.24 141 20.48 141 30 141 C30 141.66 30 142.32 30 143 C20.1 143 10.2 143 0 143 C0 95.81 0 48.62 0 0 Z " fill="#DD5C4F" transform="translate(251,0)"/>
<path d="M0 0 C4.73751475 1.18437869 5.15741989 2.12377253 7.75 6.0625 C8.36359375 6.98160156 8.9771875 7.90070313 9.609375 8.84765625 C10.06828125 9.55792969 10.5271875 10.26820313 11 11 C11.33 7.37 11.66 3.74 12 0 C12.99 0 13.98 0 15 0 C15 6.27 15 12.54 15 19 C13.68 19 12.36 19 11 19 C9.078125 16.59375 9.078125 16.59375 7.25 13.5 C6.63640625 12.4790625 6.0228125 11.458125 5.390625 10.40625 C4.70226562 9.21515625 4.70226562 9.21515625 4 8 C3.67 11.63 3.34 15.26 3 19 C2.01 19 1.02 19 0 19 C0 12.73 0 6.46 0 0 Z " fill="#2E2B84" transform="translate(381,255)"/>
<path d="M0 0 C4.73751475 1.18437869 5.15741989 2.12377253 7.75 6.0625 C8.36359375 6.98160156 8.9771875 7.90070313 9.609375 8.84765625 C10.06828125 9.55792969 10.5271875 10.26820313 11 11 C11.33 7.37 11.66 3.74 12 0 C12.99 0 13.98 0 15 0 C15 6.27 15 12.54 15 19 C13.68 19 12.36 19 11 19 C9.078125 16.59375 9.078125 16.59375 7.25 13.5 C6.63640625 12.4790625 6.0228125 11.458125 5.390625 10.40625 C4.70226562 9.21515625 4.70226562 9.21515625 4 8 C3.67 11.63 3.34 15.26 3 19 C2.01 19 1.02 19 0 19 C0 12.73 0 6.46 0 0 Z " fill="#2E2B84" transform="translate(256,255)"/>
<path d="M0 0 C4.73751475 1.18437869 5.15741989 2.12377253 7.75 6.0625 C8.36359375 6.98160156 8.9771875 7.90070313 9.609375 8.84765625 C10.06828125 9.55792969 10.5271875 10.26820313 11 11 C11.33 7.37 11.66 3.74 12 0 C12.99 0 13.98 0 15 0 C15 6.27 15 12.54 15 19 C13.68 19 12.36 19 11 19 C9.078125 16.59375 9.078125 16.59375 7.25 13.5 C6.63640625 12.4790625 6.0228125 11.458125 5.390625 10.40625 C4.70226562 9.21515625 4.70226562 9.21515625 4 8 C3.67 11.63 3.34 15.26 3 19 C2.01 19 1.02 19 0 19 C0 12.73 0 6.46 0 0 Z " fill="#2E2B84" transform="translate(237,255)"/>
<path d="M0 0 C12.48323908 -0.37078928 12.48323908 -0.37078928 14.89453125 1.359375 C16.48941427 3.7263392 16.40940413 5.20240513 16 8 C14.5 10.3125 14.5 10.3125 13 12 C13.66 12.78375 14.32 13.5675 15 14.375 C17 17 17 17 17 19 C13.84859577 18.65930765 12.39218439 18.41923159 10.1875 16.0625 C9 14 9 14 9 12 C6.03 11.505 6.03 11.505 3 11 C3 13.64 3 16.28 3 19 C2.01 19 1.02 19 0 19 C0 12.73 0 6.46 0 0 Z M3 2 C3 4.31 3 6.62 3 9 C7.79308342 9.46522293 7.79308342 9.46522293 11.9375 7.5 C12.288125 7.005 12.63875 6.51 13 6 C12.67 5.01 12.34 4.02 12 3 C9.04335481 1.5216774 6.25770263 1.93967217 3 2 Z " fill="#2E2B84" transform="translate(346,255)"/>
<path d="M0 0 C12.48323908 -0.37078928 12.48323908 -0.37078928 14.89453125 1.359375 C16.48941427 3.7263392 16.40940413 5.20240513 16 8 C14.5 10.3125 14.5 10.3125 13 12 C13.66 12.78375 14.32 13.5675 15 14.375 C17 17 17 17 17 19 C13.84859577 18.65930765 12.39218439 18.41923159 10.1875 16.0625 C9 14 9 14 9 12 C6.03 11.505 6.03 11.505 3 11 C3 13.64 3 16.28 3 19 C2.01 19 1.02 19 0 19 C0 12.73 0 6.46 0 0 Z M3 2 C3 4.31 3 6.62 3 9 C7.79308342 9.46522293 7.79308342 9.46522293 11.9375 7.5 C12.288125 7.005 12.63875 6.51 13 6 C12.67 5.01 12.34 4.02 12 3 C9.04335481 1.5216774 6.25770263 1.93967217 3 2 Z " fill="#2E2B84" transform="translate(93,255)"/>
<path d="M0 0 C9.9609375 -0.1953125 9.9609375 -0.1953125 13 0 C15 2 15 2 15.25 5.4375 C15 9 15 9 13 12 C14.32 14.31 15.64 16.62 17 19 C14.8125 19.4375 14.8125 19.4375 12 19 C10.54728941 17.30372116 9.43397897 15.55646917 8.30859375 13.62890625 C6.68516231 11.60809757 5.51513047 11.37753544 3 11 C3 13.64 3 16.28 3 19 C2.01 19 1.02 19 0 19 C0 12.73 0 6.46 0 0 Z M3 2 C3 4.31 3 6.62 3 9 C6.41656024 9.16677282 6.41656024 9.16677282 10 9 C10.66 8.34 11.32 7.68 12 7 C11.59471099 4.21762345 11.59471099 4.21762345 10 2 C7.66702567 1.95907063 5.33294775 1.95758277 3 2 Z " fill="#2E2B84" transform="translate(418,255)"/>
<path d="M0 0 C3.13836313 2.02685952 4.65870267 3.45297192 5.4765625 7.16015625 C5.74267565 11.35493981 5.33198013 13.49165543 3 17.0625 C-1.13976402 19.7360976 -3.12458579 19.61910022 -8 19 C-11.23613354 17.25746655 -11.82395315 16.52814056 -13 13 C-13.37032807 8.00057109 -13.0799137 5.02757945 -10 1 C-6.76584084 -0.61707958 -3.49624735 -0.56822376 0 0 Z M-7.6875 4.125 C-10.2035394 6.80340438 -10.2035394 6.80340438 -10.625 10.0625 C-10.22071999 13.16138145 -10.22071999 13.16138145 -7.8125 15.4375 C-5.14443031 17.23005349 -5.14443031 17.23005349 -2.3125 16.9375 C0.32620968 16.1202663 0.32620968 16.1202663 2 13 C2.43919042 8.97408782 2.64309139 6.86484704 0.1875 3.5625 C-3.2335049 1.11892507 -4.44022719 1.55738894 -7.6875 4.125 Z " fill="#2E2B84" transform="translate(85,255)"/>
<path d="M0 0 C10.3174971 -0.36848204 10.3174971 -0.36848204 13.30078125 1.2421875 C15.86747202 3.89738485 15.85317669 6.13772302 16.109375 9.70703125 C15.95066268 13.03432163 14.84440775 15.26754407 13 18 C9.14854957 19.92572521 4.19956748 19.04883218 0 19 C0 12.73 0 6.46 0 0 Z M3 2 C3 6.95 3 11.9 3 17 C8.5059025 17.52736286 8.5059025 17.52736286 10.8125 15.875 C12.51056927 13.193838 12.8733144 11.16714007 13 8 C11.86220128 5.67268444 10.83159286 3.83159286 9 2 C7.02 2 5.04 2 3 2 Z " fill="#2E2B84" transform="translate(155,255)"/>
<path d="M0 0 C2 1.3125 2 1.3125 3 3 C3 3.99 3 4.98 3 6 C2.01 6 1.02 6 0 6 C-0.66 5.01 -1.32 4.02 -2 3 C-3.65 3.33 -5.3 3.66 -7 4 C-7 4.66 -7 5.32 -7 6 C-6.37351562 6.18175781 -5.74703125 6.36351562 -5.1015625 6.55078125 C-4.28429687 6.80214844 -3.46703125 7.05351562 -2.625 7.3125 C-1.81289062 7.55613281 -1.00078125 7.79976563 -0.1640625 8.05078125 C2 9 2 9 4 12 C3.6758631 15.32240324 3.39223697 16.60776303 1 19 C-2.0552401 19.56032396 -4.94381999 19.54826675 -8 19 C-10.5625 16.625 -10.5625 16.625 -12 14 C-12 13.34 -12 12.68 -12 12 C-10.68 12 -9.36 12 -8 12 C-7.67 12.99 -7.34 13.98 -7 15 C-4.69 15.33 -2.38 15.66 0 16 C-0.14657084 14.03385733 -0.14657084 14.03385733 -1 12 C-3.08034294 10.8624787 -3.08034294 10.8624787 -5.5625 10.25 C-6.38878906 10.00765625 -7.21507813 9.7653125 -8.06640625 9.515625 C-8.70449219 9.34546875 -9.34257813 9.1753125 -10 9 C-11.31343284 3.62686567 -11.31343284 3.62686567 -10.0625 1.125 C-6.80808226 -0.65013695 -3.61955351 -0.56555524 0 0 Z " fill="#2E2B84" transform="translate(130,255)"/>
<path d="M0 0 C0.99 0 1.98 0 3 0 C3.04898437 0.90363281 3.09796875 1.80726563 3.1484375 2.73828125 C3.22320313 3.91777344 3.29796875 5.09726562 3.375 6.3125 C3.44460937 7.48425781 3.51421875 8.65601563 3.5859375 9.86328125 C3.78613747 13.15699887 3.78613747 13.15699887 6 16 C7.65 15.67 9.3 15.34 11 15 C11.33 10.05 11.66 5.1 12 0 C13.32 0 14.64 0 16 0 C16.054348 2.0622048 16.09294961 4.12482816 16.125 6.1875 C16.14820312 7.33605469 16.17140625 8.48460937 16.1953125 9.66796875 C16.00313312 12.94654899 15.51407144 15.10420602 14 18 C10.87057535 19.56471233 7.38917777 19.69701958 4 19 C1.7578125 17.46484375 1.7578125 17.46484375 0 15 C-0.2911521 12.26317029 -0.38322418 9.96059961 -0.25 7.25 C-0.23195313 6.55261719 -0.21390625 5.85523438 -0.1953125 5.13671875 C-0.14838554 3.42388461 -0.07664605 1.71176176 0 0 Z " fill="#2E2B84" transform="translate(18,255)"/>
<path d="M0 0 C1.65 0 3.3 0 5 0 C7.31 6.27 9.62 12.54 12 19 C10.68 19 9.36 19 8 19 C7.34 17.02 6.68 15.04 6 13 C3.69 13 1.38 13 -1 13 C-1.66 14.98 -2.32 16.96 -3 19 C-3.99 19 -4.98 19 -6 19 C-5.28739906 14.71620357 -3.93078264 10.74906147 -2.4375 6.6875 C-2.20353516 6.04232422 -1.96957031 5.39714844 -1.72851562 4.73242188 C-1.15552993 3.15378781 -0.57820536 1.57672974 0 0 Z M2 4 C1.34 6.31 0.68 8.62 0 11 C1.65 11 3.3 11 5 11 C4.34 8.69 3.68 6.38 3 4 C2.67 4 2.34 4 2 4 Z " fill="#2E2B84" transform="translate(333,255)"/>
<path d="M0 0 C1.65 0 3.3 0 5 0 C7.31 6.27 9.62 12.54 12 19 C10.68 19 9.36 19 8 19 C7.34 17.02 6.68 15.04 6 13 C3.69 13 1.38 13 -1 13 C-1.66 14.98 -2.32 16.96 -3 19 C-3.99 19 -4.98 19 -6 19 C-5.28739906 14.71620357 -3.93078264 10.74906147 -2.4375 6.6875 C-2.20353516 6.04232422 -1.96957031 5.39714844 -1.72851562 4.73242188 C-1.15552993 3.15378781 -0.57820536 1.57672974 0 0 Z M2 4 C1.34 6.31 0.68 8.62 0 11 C1.65 11 3.3 11 5 11 C4.34 8.69 3.68 6.38 3 4 C2.67 4 2.34 4 2 4 Z " fill="#2E2B84" transform="translate(223,255)"/>
<path d="M0 0 C1.65 0 3.3 0 5 0 C7.31 6.27 9.62 12.54 12 19 C10.68 19 9.36 19 8 19 C7.34 17.02 6.68 15.04 6 13 C3.69 13 1.38 13 -1 13 C-1.66 14.98 -2.32 16.96 -3 19 C-3.66 19 -4.32 19 -5 19 C-4.48378772 12.16018724 -2.51409031 6.36123316 0 0 Z M2 4 C1.34 6.31 0.68 8.62 0 11 C1.65 11 3.3 11 5 11 C4.34 8.69 3.68 6.38 3 4 C2.67 4 2.34 4 2 4 Z " fill="#2E2B84" transform="translate(5,255)"/>
<path d="M0 0 C2.5 1.875 2.5 1.875 4 4 C4 4.66 4 5.32 4 6 C2.68 6 1.36 6 0 6 C-0.474375 5.505 -0.94875 5.01 -1.4375 4.5 C-2.96378798 2.714174 -2.96378798 2.714174 -5.6875 2.8125 C-6.450625 2.874375 -7.21375 2.93625 -8 3 C-8.19658808 4.41543415 -8.38187546 5.83244031 -8.5625 7.25 C-8.66691406 8.03890625 -8.77132812 8.8278125 -8.87890625 9.640625 C-9.00027349 12.00532874 -8.69633257 13.7511037 -8 16 C-4.56769552 15.73606499 -4.56769552 15.73606499 -1 15 C-0.34 14.01 0.32 13.02 1 12 C1.99 12 2.98 12 4 12 C3.6875 14.375 3.6875 14.375 3 17 C-0.69308217 19.46205478 -3.71316878 19.57042512 -8 19 C-11.23613354 17.25746655 -11.82395315 16.52814056 -13 13 C-13.67605634 6.01408451 -13.67605634 6.01408451 -11 2 C-6.84437903 -0.77041398 -4.93332128 -0.70476018 0 0 Z " fill="#2E2B84" transform="translate(193,255)"/>
<path d="M0 0 C0.99 0 1.98 0 3 0 C3 2.64 3 5.28 3 8 C5.97 8 8.94 8 12 8 C12 5.36 12 2.72 12 0 C12.99 0 13.98 0 15 0 C15 6.27 15 12.54 15 19 C14.01 19 13.02 19 12 19 C12 16.03 12 13.06 12 10 C9.03 10 6.06 10 3 10 C3 12.97 3 15.94 3 19 C2.01 19 1.02 19 0 19 C0 12.73 0 6.46 0 0 Z " fill="#2E2B84" transform="translate(200,255)"/>
<path d="M0 0 C0.99 0 1.98 0 3 0 C3 2.64 3 5.28 3 8 C5.97 8 8.94 8 12 8 C12 5.36 12 2.72 12 0 C12.99 0 13.98 0 15 0 C15 6.27 15 12.54 15 19 C14.01 19 13.02 19 12 19 C12 16.03 12 13.06 12 10 C9.03 10 6.06 10 3 10 C3 12.97 3 15.94 3 19 C2.01 19 1.02 19 0 19 C0 12.73 0 6.46 0 0 Z " fill="#2E2B84" transform="translate(54,255)"/>
<path d="M0 0 C4.62 0 9.24 0 14 0 C14 0.66 14 1.32 14 2 C10.37 2 6.74 2 3 2 C3 3.98 3 5.96 3 8 C6.63 8 10.26 8 14 8 C14 8.66 14 9.32 14 10 C10.37 10 6.74 10 3 10 C3 12.31 3 14.62 3 17 C6.96 17 10.92 17 15 17 C15 17.66 15 18.32 15 19 C10.05 19 5.1 19 0 19 C0 12.73 0 6.46 0 0 Z " fill="#2E2B84" transform="translate(400,255)"/>
<path d="M0 0 C9.9609375 -0.29296875 9.9609375 -0.29296875 13 0 C15 3 15 3 14.75 6.625 C14.5025 7.73875 14.255 8.8525 14 10 C11.59454362 11.20272819 10.05003047 11.10071472 7.375 11.0625 C6.14910156 11.04896484 6.14910156 11.04896484 4.8984375 11.03515625 C3.95871094 11.01775391 3.95871094 11.01775391 3 11 C3 13.64 3 16.28 3 19 C2.01 19 1.02 19 0 19 C0 12.73 0 6.46 0 0 Z M3 2 C3 4.31 3 6.62 3 9 C6.41656024 9.16677282 6.41656024 9.16677282 10 9 C10.66 8.34 11.32 7.68 12 7 C11.59471099 4.21762345 11.59471099 4.21762345 10 2 C7.66702567 1.95907063 5.33294775 1.95758277 3 2 Z " fill="#2E2B84" transform="translate(313,255)"/>
<path d="M0 0 C4.62 0 9.24 0 14 0 C14 0.66 14 1.32 14 2 C10.37 2 6.74 2 3 2 C3 3.98 3 5.96 3 8 C6.3 8 9.6 8 13 8 C13 8.66 13 9.32 13 10 C9.7 10 6.4 10 3 10 C3 12.31 3 14.62 3 17 C6.63 17 10.26 17 14 17 C14 17.66 14 18.32 14 19 C9.38 19 4.76 19 0 19 C0 12.73 0 6.46 0 0 Z " fill="#2E2B84" transform="translate(275,255)"/>
<path d="M0 0 C4.62 0 9.24 0 14 0 C14 0.66 14 1.32 14 2 C10.37 2 6.74 2 3 2 C3 3.98 3 5.96 3 8 C6.3 8 9.6 8 13 8 C13 8.66 13 9.32 13 10 C9.7 10 6.4 10 3 10 C3 12.31 3 14.62 3 17 C6.63 17 10.26 17 14 17 C14 17.66 14 18.32 14 19 C9.38 19 4.76 19 0 19 C0 12.73 0 6.46 0 0 Z " fill="#2E2B84" transform="translate(137,255)"/>
<path d="M0 0 C5.28 0 10.56 0 16 0 C16 0.66 16 1.32 16 2 C14.02 2 12.04 2 10 2 C10 7.61 10 13.22 10 19 C8.68 19 7.36 19 6 19 C6 13.39 6 7.78 6 2 C4.02 2 2.04 2 0 2 C0 1.34 0 0.68 0 0 Z " fill="#2E2B84" transform="translate(363,255)"/>
<path d="M0 0 C4.95 0 9.9 0 15 0 C15 0.66 15 1.32 15 2 C13.02 2 11.04 2 9 2 C9 7.61 9 13.22 9 19 C8.01 19 7.02 19 6 19 C6 13.39 6 7.78 6 2 C4.02 2 2.04 2 0 2 C0 1.34 0 0.68 0 0 Z " fill="#2E2B84" transform="translate(36,255)"/>
<path d="M0 0 C1.32 0 2.64 0 4 0 C4 6.27 4 12.54 4 19 C2.68 19 1.36 19 0 19 C0 12.73 0 6.46 0 0 Z " fill="#2E2B84" transform="translate(112,255)"/>
<path d="M0 0 C0.99 0 1.98 0 3 0 C3 5.61 3 11.22 3 17 C5.97 17 8.94 17 12 17 C12 17.66 12 18.32 12 19 C8.04 19 4.08 19 0 19 C0 12.73 0 6.46 0 0 Z " fill="#2E2B84" transform="translate(292,255)"/>
<path d="M0 0 C0.66 0.66 1.32 1.32 2 2 C5.12196336 2.46486718 5.12196336 2.46486718 8.625 2.625 C9.81351562 2.69976562 11.00203125 2.77453125 12.2265625 2.8515625 C13.14179688 2.90054688 14.05703125 2.94953125 15 3 C15 3.33 15 3.66 15 4 C9.72 4 4.44 4 -1 4 C-0.67 2.68 -0.34 1.36 0 0 Z " fill="#6D6BA8" transform="translate(351,231)"/>
</svg>
