<?xml version="1.0" encoding="UTF-8"?>
<svg version="1.1" xmlns="http://www.w3.org/2000/svg" width="442" height="282">
<path d="M0 0 C9.9 0 19.8 0 30 0 C30 47.19 30 94.38 30 143 C20.1 143 10.2 143 0 143 C0 95.81 0 48.62 0 0 Z " fill="#CD2C1A" transform="translate(251,0)"/>
<path d="M0 0 C9.9 0 19.8 0 30 0 C30 37.95 30 75.9 30 115 C20.1 115 10.2 115 0 115 C0 77.05 0 39.1 0 0 Z " fill="#FBC907" transform="translate(213,28)"/>
<path d="M0 0 C4.62 0 9.24 0 14 0 C21.18820039 15.76157223 28.31703968 31.53103187 35.00048828 47.51513672 C38.75709713 56.48653938 42.66926711 65.38476547 46.64916992 74.25927734 C47.30816284 75.73968506 47.30816284 75.73968506 47.98046875 77.25 C48.37129639 78.12140625 48.76212402 78.9928125 49.16479492 79.890625 C50 82 50 82 50 84 C44.72 84 39.44 84 34 84 C30.36935924 77.13122019 28.31006125 71.70020415 26 64 C13.13 64 0.26 64 -13 64 C-13.99 66.97 -14.98 69.94 -16 73 C-17.56991172 76.71914297 -19.2870531 80.34262688 -21 84 C-25.95 84 -30.9 84 -36 84 C-35.15861137 78.9516682 -34.19438327 75.73355316 -32.1484375 71.171875 C-31.85747192 70.51757507 -31.56650635 69.86327515 -31.26672363 69.18914795 C-30.30924403 67.03982868 -29.34218174 64.8949686 -28.375 62.75 C-27.70258638 61.24575604 -27.0308853 59.74119338 -26.35986328 58.23632812 C-25.31364447 55.89080748 -24.26669825 53.54563069 -23.2170105 51.20166016 C-20.73562045 45.66031506 -18.28143169 40.10757534 -15.84375 34.546875 C-15.50872467 33.78340759 -15.17369934 33.01994019 -14.82852173 32.2333374 C-13.52880516 29.27141363 -12.22909797 26.3094913 -10.93280029 23.34606934 C-7.4809079 15.4598916 -3.93458631 7.66130767 0 0 Z M6 19 C4.30777566 22.93203376 2.61714367 26.8647471 0.92797852 30.7980957 C0.35321986 32.1358485 -0.22197212 33.47341521 -0.79760742 34.81079102 C-1.62532954 36.73404871 -2.45148677 38.65797205 -3.27734375 40.58203125 C-4.02359009 42.31803589 -4.02359009 42.31803589 -4.78491211 44.08911133 C-6.03677872 46.9876314 -6.03677872 46.9876314 -7 50 C1.91 50 10.82 50 20 50 C18.411875 46.184375 16.82375 42.36875 15.1875 38.4375 C14.6927417 37.24825928 14.1979834 36.05901855 13.68823242 34.83374023 C11.48536064 29.54408713 9.27173781 24.26046928 7 19 C6.67 19 6.34 19 6 19 Z " fill="#2D2A81" transform="translate(104,151)"/>
<path d="M0 0 C4.62 0 9.24 0 14 0 C19.89552267 11.46225469 25.2202409 23.09905464 30.3125 34.9375 C31.42554424 37.5140977 32.53984874 40.09014738 33.65440369 42.66609192 C34.39112664 44.36882483 35.12734859 46.0717746 35.86305237 47.77494812 C38.05786338 52.84952492 40.28373231 57.90867466 42.546875 62.953125 C43.06338623 64.10820557 43.57989746 65.26328613 44.11206055 66.45336914 C45.05303722 68.55152063 45.99949305 70.64722669 46.95239258 72.73999023 C47.36126709 73.65466064 47.7701416 74.56933105 48.19140625 75.51171875 C48.54404541 76.28990967 48.89668457 77.06810059 49.26000977 77.86987305 C50 80 50 80 50 84 C45.05 84 40.1 84 35 84 C31.36935924 77.13122019 29.31006125 71.70020415 27 64 C14.13 64.33 1.26 64.66 -12 65 C-13.98 69.95 -15.96 74.9 -18 80 C-18.99 81.32 -19.98 82.64 -21 84 C-24.35546875 84.390625 -24.35546875 84.390625 -28.1875 84.25 C-29.45980469 84.21390625 -30.73210937 84.1778125 -32.04296875 84.140625 C-33.01878906 84.09421875 -33.99460937 84.0478125 -35 84 C-35.33 83.34 -35.66 82.68 -36 82 C-35.01238418 79.42916713 -33.95611402 76.97181077 -32.80078125 74.4765625 C-32.28119591 73.32897461 -32.28119591 73.32897461 -31.75111389 72.15820312 C-31.002436 70.50639569 -30.2502754 68.85616337 -29.49505615 67.20733643 C-27.51088906 62.87452995 -25.55185236 58.53037355 -23.58984375 54.1875 C-23.19617615 53.31791656 -22.80250854 52.44833313 -22.39691162 51.55239868 C-18.96088895 43.94974999 -15.6403717 36.30223977 -12.375 28.625 C-11.89619385 27.50013184 -11.4173877 26.37526367 -10.92407227 25.21630859 C-10.02745987 23.10888225 -9.13119674 21.00130727 -8.23535156 18.89355469 C-5.53769807 12.57486118 -2.76697562 6.28858095 0 0 Z M7 19 C5.14628755 23.25314753 3.29493592 27.50731157 1.44580078 31.76245117 C0.81592159 33.21097821 0.18538897 34.65922129 -0.44580078 36.10717773 C-1.35098945 38.18399601 -2.25385192 40.2618117 -3.15625 42.33984375 C-3.44060913 42.99089584 -3.72496826 43.64194794 -4.01794434 44.31272888 C-5.40786107 47.05836199 -5.40786107 47.05836199 -6 50 C2.58 50 11.16 50 20 50 C17.53438861 42.56828145 17.53438861 42.56828145 14.73828125 35.30859375 C14.34189453 34.34501953 13.94550781 33.38144531 13.53710938 32.38867188 C13.13298828 31.41478516 12.72886719 30.44089844 12.3125 29.4375 C11.89677734 28.42880859 11.48105469 27.42011719 11.05273438 26.38085938 C10.03784021 23.9194494 9.02021747 21.45920717 8 19 C7.67 19 7.34 19 7 19 Z " fill="#2D2A81" transform="translate(386,151)"/>
<path d="M0 0 C0.7425 0.556875 1.485 1.11375 2.25 1.6875 C1.63801624 5.12700364 0.32941153 7.20314485 -1.8125 9.9375 C-2.36035156 10.64390625 -2.90820312 11.3503125 -3.47265625 12.078125 C-3.89417969 12.60921875 -4.31570312 13.1403125 -4.75 13.6875 C-7.97210612 12.44023311 -11.11141053 11.06592171 -14.25 9.625 C-20.15553451 7.00356637 -26.29263849 5.32552843 -32.71875 7.2890625 C-36.42128023 8.68025739 -36.42128023 8.68025739 -38.75 11.6875 C-39.3587891 15.78063873 -39.3587891 15.78063873 -38.75 19.6875 C-33.9364289 23.87665055 -28.45774798 25.12826038 -22.375 26.6875 C-5.33038835 31.09391949 -5.33038835 31.09391949 0.6875 38.25 C1.34621094 39.01441406 2.00492188 39.77882812 2.68359375 40.56640625 C6.545594 45.79599761 5.75721595 52.49064432 5.25 58.6875 C3.52347142 65.40666535 -1.22347302 69.77849311 -6.75 73.6875 C-16.91449213 79.50491374 -28.2898301 78.23571173 -39.23828125 75.73828125 C-46.51968298 73.55953034 -53.08710387 69.76457929 -58.75 64.6875 C-57.24087042 59.70737239 -54.19338151 56.44490058 -50.75 52.6875 C-48.53734165 53.76030405 -46.3980972 54.89143737 -44.26953125 56.125 C-34.91670026 61.52345945 -27.49336121 63.72761563 -16.75 61.6875 C-13.78624851 60.75855046 -13.78624851 60.75855046 -11.75 59.6875 C-11.54375 58.45 -11.3375 57.2125 -11.125 55.9375 C-11.00898437 55.24140625 -10.89296875 54.5453125 -10.7734375 53.828125 C-10.74450449 51.18557714 -11.2846725 49.87627535 -12.75 47.6875 C-17.88984322 44.02929526 -24.67620636 42.87864896 -30.6875 41.3125 C-39.6568512 38.94658325 -48.62665133 36.01294159 -53.75 27.6875 C-56.59917834 21.5940018 -56.8684733 14.87823541 -55.1328125 8.375 C-52.14322149 1.60212124 -46.41631396 -3.5055728 -39.5625 -6.1875 C-25.60254213 -10.30683183 -12.18163612 -7.95071821 0 0 Z " fill="#2D2A81" transform="translate(58.75,158.3125)"/>
<path d="M0 0 C9.57 0 19.14 0 29 0 C29 28.38 29 56.76 29 86 C19.43 86 9.86 86 0 86 C-1.76328472 84.23671528 -1.12615644 81.90482856 -1.13552856 79.55593872 C-1.13350433 78.77564301 -1.1314801 77.99534729 -1.12939453 77.19140625 C-1.13114685 76.37356659 -1.13289917 75.55572693 -1.13470459 74.71310425 C-1.13912385 71.9962149 -1.13618486 69.27939007 -1.1328125 66.5625 C-1.13348552 64.68302396 -1.13445553 62.80354801 -1.13571167 60.92407227 C-1.13718874 56.97964654 -1.13503379 53.03524342 -1.13037109 49.09082031 C-1.1246738 44.02287497 -1.12795276 38.95498258 -1.13394356 33.88703918 C-1.13754892 30.00443113 -1.1364107 26.12183572 -1.13381577 22.23922729 C-1.13314643 20.37002557 -1.13397516 18.50082272 -1.13629532 16.63162231 C-1.13882143 14.02391496 -1.13498184 11.41629459 -1.12939453 8.80859375 C-1.13141876 8.02829803 -1.13344299 7.24800232 -1.13552856 6.44406128 C-1.11426253 1.11426253 -1.11426253 1.11426253 0 0 Z " fill="#B8CE05" transform="translate(176,57)"/>
<path d="M0 0 C5.61 0 11.22 0 17 0 C20.40612394 7.34521445 23.54197239 14.72123114 26.42578125 22.28515625 C26.81823532 23.30806259 27.21068939 24.33096893 27.61503601 25.38487244 C28.43424906 27.52278329 29.25176362 29.66134571 30.06762695 31.80053711 C31.3218881 35.0870998 32.58345634 38.37079405 33.84570312 41.65429688 C34.64366393 43.73941701 35.44120544 45.82469765 36.23828125 47.91015625 C36.61632401 48.89339371 36.99436676 49.87663116 37.38386536 50.8896637 C37.72810043 51.79498337 38.07233551 52.70030304 38.42700195 53.63305664 C38.731689 54.43038712 39.03637604 55.22771759 39.35029602 56.04920959 C40 58 40 58 40 60 C40.66 60 41.32 60 42 60 C42.16290527 59.41951904 42.32581055 58.83903809 42.49365234 58.2409668 C44.5080378 51.27837854 46.98809129 44.56067958 49.625 37.8125 C50.05868896 36.69496338 50.49237793 35.57742676 50.93920898 34.42602539 C51.83939526 32.1085315 52.74134382 29.7917214 53.64501953 27.47558594 C54.97605571 24.06141819 56.29938309 20.64434961 57.62109375 17.2265625 C58.43455975 15.1300779 59.24834756 13.03371813 60.0625 10.9375 C60.44422363 9.95048096 60.82594727 8.96346191 61.21923828 7.9465332 C61.57099121 7.04507568 61.92274414 6.14361816 62.28515625 5.21484375 C62.59332275 4.42198975 62.90148926 3.62913574 63.21899414 2.81225586 C64 1 64 1 65 0 C67.69654854 -0.07319621 70.36691458 -0.09242537 73.0625 -0.0625 C73.82111328 -0.05798828 74.57972656 -0.05347656 75.36132812 -0.04882812 C77.24091871 -0.0370068 79.12046899 -0.01907078 81 0 C80.4180626 5.94759749 78.06091785 10.90400533 75.6875 16.3125 C69.24293041 31.25003537 63.12621784 46.31848023 56.99716187 61.38760376 C56.11112417 63.56593872 55.22485698 65.74418035 54.33833313 67.9223175 C53.51855895 69.93686034 52.69958814 71.95173032 51.8815155 73.96696472 C51.51633316 74.86474136 51.15115082 75.76251801 50.77490234 76.6875 C50.45500336 77.47511719 50.13510437 78.26273437 49.80551147 79.07421875 C49.24970476 80.40301688 48.64414681 81.71170638 48 83 C43.38 83 38.76 83 34 83 C29.51497917 73.3744553 25.50239421 63.58238799 21.5 53.75 C20.08512031 50.28182031 18.66821182 46.81447463 17.25 43.34765625 C16.89538696 42.48074661 16.54077393 41.61383698 16.17541504 40.72065735 C13.83429804 35.0080581 11.46222234 29.30931022 9.0625 23.62109375 C8.75727417 22.89719452 8.45204834 22.17329529 8.13757324 21.42745972 C6.70058998 18.02258013 5.25852416 14.61994444 3.81054688 11.21972656 C3.05354492 9.43066895 3.05354492 9.43066895 2.28125 7.60546875 C1.83845703 6.56543701 1.39566406 5.52540527 0.93945312 4.45385742 C0 2 0 2 0 0 Z " fill="#2D2A82" transform="translate(289,152)"/>
<path d="M0 0 C22.44 0 44.88 0 68 0 C68 4.62 68 9.24 68 14 C59.42 14 50.84 14 42 14 C42.00523682 16.05468506 42.01047363 18.10937012 42.01586914 20.22631836 C42.03240672 26.99970199 42.0434719 33.7730865 42.05181217 40.54648495 C42.05704046 44.65494285 42.06413713 48.76338014 42.07543945 52.87182617 C42.08627025 56.83346828 42.09227724 60.79509052 42.09487724 64.75674629 C42.09673114 66.27148311 42.1003511 67.78621879 42.10573006 69.30094719 C42.11294307 71.41541813 42.11399083 73.52980594 42.11352539 75.64428711 C42.115746 76.85007919 42.11796661 78.05587128 42.12025452 79.29820251 C42 82 42 82 41 83 C38.66839945 83.09909302 36.33370058 83.12970504 34 83.125 C32.72125 83.12757813 31.4425 83.13015625 30.125 83.1328125 C27 83 27 83 26 82 C25.9057826 79.88318683 25.88257239 77.76319242 25.88647461 75.64428711 C25.88632858 74.98089828 25.88618256 74.31750946 25.8860321 73.63401794 C25.88673119 71.43176044 25.89452335 69.22958655 25.90234375 67.02734375 C25.90420794 65.50419664 25.90563184 63.98104893 25.90663147 62.457901 C25.91045654 58.44162349 25.92028672 54.42538192 25.93133545 50.40911865 C25.94154981 46.31376634 25.94612914 42.21840824 25.95117188 38.12304688 C25.96190901 30.08201288 25.97950571 22.04101505 26 14 C17.42 14 8.84 14 0 14 C0 9.38 0 4.76 0 0 Z " fill="#2D2A83" transform="translate(213,152)"/>
<path d="M0 0 C22.11 0 44.22 0 67 0 C67 4.62 67 9.24 67 14 C58.42 14 49.84 14 41 14 C41 36.77 41 59.54 41 83 C36.05 83 31.1 83 26 83 C26 60.23 26 37.46 26 14 C17.42 14 8.84 14 0 14 C0 9.38 0 4.76 0 0 Z " fill="#2D2A83" transform="translate(138,152)"/>
<path d="M0 0 C9.57 0 19.14 0 29 0 C29 19.14 29 38.28 29 58 C19.43 58 9.86 58 0 58 C0 38.86 0 19.72 0 0 Z " fill="#34B9EA" transform="translate(138,85)"/>
<path d="M0 0 C22.44 0 44.88 0 68 0 C68 4.62 68 9.24 68 14 C59.42 14 50.84 14 42 14 C42 36.44 42 58.88 42 82 C41.01 82.33 40.02 82.66 39 83 C38.95362459 74.22027243 38.91810436 65.44058715 38.89637566 56.66076374 C38.88594608 52.58377564 38.87180198 48.50687145 38.84912109 44.42993164 C38.82736323 40.49420028 38.81542516 36.55854955 38.81024551 32.62276268 C38.80655504 31.12248656 38.79934845 29.62221476 38.78853989 28.12197304 C38.77398569 26.01782376 38.77202368 23.91400611 38.77294922 21.80981445 C38.768508 20.61290482 38.76406677 19.41599518 38.75949097 18.18281555 C38.99714944 15.03772334 39.65430023 12.83168508 41 10 C41.99 10 42.98 10 44 10 C44.495 10.99 44.495 10.99 45 12 C51.93 12.33 58.86 12.66 66 13 C66 9.04 66 5.08 66 1 C44.88 1 23.76 1 2 1 C2 4.96 2 8.92 2 13 C9.59 13 17.18 13 25 13 C25 13.33 25 13.66 25 14 C16.75 14 8.5 14 0 14 C0 9.38 0 4.76 0 0 Z " fill="#2D2B6E" transform="translate(213,152)"/>
<path d="M0 0 C0.33 0 0.66 0 1 0 C1 22.11 1 44.22 1 67 C6.94 66.505 6.94 66.505 13 66 C13 44.22 13 22.44 13 0 C13.66 0 14.32 0 15 0 C15 22.77 15 45.54 15 69 C10.05 69 5.1 69 0 69 C0 46.23 0 23.46 0 0 Z " fill="#2D2A6D" transform="translate(164,166)"/>
<path d="M0 0 C9.57 0 19.14 0 29 0 C29 28.38 29 56.76 29 86 C19.43 86 9.86 86 0 86 C-1 85 -1 85 -1.08229065 82.33616638 C-1.06230515 81.14813919 -1.04231964 79.960112 -1.02172852 78.73608398 C-1.01212097 78.08244873 -1.00251343 77.42881348 -0.99261475 76.75537109 C-0.95951918 74.58550598 -0.91922758 72.41583566 -0.87890625 70.24609375 C-0.85461542 68.74537349 -0.83077136 67.24464594 -0.80735779 65.74391174 C-0.74441352 61.78675045 -0.67537643 57.82971767 -0.60510254 53.87268066 C-0.53451223 49.83770621 -0.46963968 45.80264037 -0.40429688 41.76757812 C-0.27515132 33.84495093 -0.13957389 25.92245031 0 18 C0.33 18 0.66 18 1 18 C1 40.11 1 62.22 1 85 C9.58 85 18.16 85 27 85 C26.67 83.68 26.34 82.36 26 81 C26.33 80.67 26.66 80.34 27 80 C27.12495027 77.536507 27.18602203 75.09963233 27.20532227 72.63452148 C27.22017166 71.47850433 27.22017166 71.47850433 27.23532104 70.2991333 C27.26702701 67.73981853 27.2917292 65.18048517 27.31640625 62.62109375 C27.33696794 60.85131841 27.35796419 59.08154806 27.37937927 57.31178284 C27.43468109 52.6445418 27.48405446 47.97725586 27.53222656 43.30993652 C27.58238253 38.55098454 27.63809934 33.79209809 27.69335938 29.03320312 C27.8010401 19.68885589 27.90194929 10.34445325 28 1 C19.09 1 10.18 1 1 1 C1 2.98 1 4.96 1 7 C0.34 6.34 -0.32 5.68 -1 5 C-0.67 3.35 -0.34 1.7 0 0 Z " fill="#BEC924" transform="translate(176,57)"/>
<path d="M0 0 C4.73751475 1.18437869 5.15741989 2.12377253 7.75 6.0625 C8.36359375 6.98160156 8.9771875 7.90070313 9.609375 8.84765625 C10.06828125 9.55792969 10.5271875 10.26820313 11 11 C11.33 7.37 11.66 3.74 12 0 C12.99 0 13.98 0 15 0 C15 6.27 15 12.54 15 19 C13.68 19 12.36 19 11 19 C9.078125 16.59375 9.078125 16.59375 7.25 13.5 C6.63640625 12.4790625 6.0228125 11.458125 5.390625 10.40625 C4.70226562 9.21515625 4.70226562 9.21515625 4 8 C3.67 11.63 3.34 15.26 3 19 C2.01 19 1.02 19 0 19 C0 12.73 0 6.46 0 0 Z " fill="#2C2D78" transform="translate(237,255)"/>
<path d="M0 0 C4.73751475 1.18437869 5.15741989 2.12377253 7.75 6.0625 C8.36359375 6.98160156 8.9771875 7.90070313 9.609375 8.84765625 C10.06828125 9.55792969 10.5271875 10.26820313 11 11 C11.33 7.37 11.66 3.74 12 0 C12.99 0 13.98 0 15 0 C15 6.27 15 12.54 15 19 C13.68 19 12.36 19 11 19 C9.078125 16.59375 9.078125 16.59375 7.25 13.5 C6.63640625 12.4790625 6.0228125 11.458125 5.390625 10.40625 C4.70226562 9.21515625 4.70226562 9.21515625 4 8 C3.67 11.63 3.34 15.26 3 19 C2.01 19 1.02 19 0 19 C0 12.73 0 6.46 0 0 Z " fill="#2F2E76" transform="translate(256,255)"/>
<path d="M0 0 C4.73751475 1.18437869 5.15741989 2.12377253 7.75 6.0625 C8.36359375 6.98160156 8.9771875 7.90070313 9.609375 8.84765625 C10.06828125 9.55792969 10.5271875 10.26820313 11 11 C11.33 7.37 11.66 3.74 12 0 C12.99 0 13.98 0 15 0 C15 6.27 15 12.54 15 19 C13.68 19 12.36 19 11 19 C9.078125 16.59375 9.078125 16.59375 7.25 13.5 C6.63640625 12.4790625 6.0228125 11.458125 5.390625 10.40625 C4.70226562 9.21515625 4.70226562 9.21515625 4 8 C3.67 11.63 3.34 15.26 3 19 C2.01 19 1.02 19 0 19 C0 12.73 0 6.46 0 0 Z " fill="#2E2F7A" transform="translate(381,255)"/>
<path d="M0 0 C12.48323908 -0.37078928 12.48323908 -0.37078928 14.89453125 1.359375 C16.48941427 3.7263392 16.40940413 5.20240513 16 8 C14.5 10.3125 14.5 10.3125 13 12 C13.66 12.78375 14.32 13.5675 15 14.375 C17 17 17 17 17 19 C13.84859577 18.65930765 12.39218439 18.41923159 10.1875 16.0625 C9 14 9 14 9 12 C6.03 11.505 6.03 11.505 3 11 C3 13.64 3 16.28 3 19 C2.01 19 1.02 19 0 19 C0 12.73 0 6.46 0 0 Z M3 2 C3 4.31 3 6.62 3 9 C7.79308342 9.46522293 7.79308342 9.46522293 11.9375 7.5 C12.288125 7.005 12.63875 6.51 13 6 C12.67 5.01 12.34 4.02 12 3 C9.04335481 1.5216774 6.25770263 1.93967217 3 2 Z " fill="#2D2D75" transform="translate(93,255)"/>
<path d="M0 0 C12.48323908 -0.37078928 12.48323908 -0.37078928 14.89453125 1.359375 C16.48941427 3.7263392 16.40940413 5.20240513 16 8 C14.5 10.3125 14.5 10.3125 13 12 C13.66 12.78375 14.32 13.5675 15 14.375 C17 17 17 17 17 19 C13.84859577 18.65930765 12.39218439 18.41923159 10.1875 16.0625 C9 14 9 14 9 12 C6.03 11.505 6.03 11.505 3 11 C3 13.64 3 16.28 3 19 C2.01 19 1.02 19 0 19 C0 12.73 0 6.46 0 0 Z M3 2 C3 4.31 3 6.62 3 9 C7.79308342 9.46522293 7.79308342 9.46522293 11.9375 7.5 C12.288125 7.005 12.63875 6.51 13 6 C12.67 5.01 12.34 4.02 12 3 C9.04335481 1.5216774 6.25770263 1.93967217 3 2 Z " fill="#2B2C75" transform="translate(346,255)"/>
<path d="M0 0 C9.9609375 -0.1953125 9.9609375 -0.1953125 13 0 C15 2 15 2 15.25 5.4375 C15 9 15 9 13 12 C14.32 14.31 15.64 16.62 17 19 C14.8125 19.4375 14.8125 19.4375 12 19 C10.54728941 17.30372116 9.43397897 15.55646917 8.30859375 13.62890625 C6.68516231 11.60809757 5.51513047 11.37753544 3 11 C3 13.64 3 16.28 3 19 C2.01 19 1.02 19 0 19 C0 12.73 0 6.46 0 0 Z M3 2 C3 4.31 3 6.62 3 9 C6.41656024 9.16677282 6.41656024 9.16677282 10 9 C10.66 8.34 11.32 7.68 12 7 C11.59471099 4.21762345 11.59471099 4.21762345 10 2 C7.66702567 1.95907063 5.33294775 1.95758277 3 2 Z " fill="#2D2C75" transform="translate(418,255)"/>
<path d="M0 0 C3.13836313 2.02685952 4.65870267 3.45297192 5.4765625 7.16015625 C5.74267565 11.35493981 5.33198013 13.49165543 3 17.0625 C-1.13976402 19.7360976 -3.12458579 19.61910022 -8 19 C-11.23613354 17.25746655 -11.82395315 16.52814056 -13 13 C-13.37032807 8.00057109 -13.0799137 5.02757945 -10 1 C-6.76584084 -0.61707958 -3.49624735 -0.56822376 0 0 Z M-7.6875 4.125 C-10.2035394 6.80340438 -10.2035394 6.80340438 -10.625 10.0625 C-10.22071999 13.16138145 -10.22071999 13.16138145 -7.8125 15.4375 C-5.14443031 17.23005349 -5.14443031 17.23005349 -2.3125 16.9375 C0.32620968 16.1202663 0.32620968 16.1202663 2 13 C2.43919042 8.97408782 2.64309139 6.86484704 0.1875 3.5625 C-3.2335049 1.11892507 -4.44022719 1.55738894 -7.6875 4.125 Z " fill="#302F76" transform="translate(85,255)"/>
<path d="M0 0 C10.3174971 -0.36848204 10.3174971 -0.36848204 13.30078125 1.2421875 C15.86747202 3.89738485 15.85317669 6.13772302 16.109375 9.70703125 C15.95066268 13.03432163 14.84440775 15.26754407 13 18 C9.14854957 19.92572521 4.19956748 19.04883218 0 19 C0 12.73 0 6.46 0 0 Z M3 2 C3 6.95 3 11.9 3 17 C8.5059025 17.52736286 8.5059025 17.52736286 10.8125 15.875 C12.51056927 13.193838 12.8733144 11.16714007 13 8 C11.86220128 5.67268444 10.83159286 3.83159286 9 2 C7.02 2 5.04 2 3 2 Z " fill="#2C2C75" transform="translate(155,255)"/>
<path d="M0 0 C0.66 0 1.32 0 2 0 C2 21.78 2 43.56 2 66 C5.3 66.33 8.6 66.66 12 67 C12 67.33 12 67.66 12 68 C10.18818595 68.19401633 8.37551468 68.38004375 6.5625 68.5625 C5.04849609 68.71912109 5.04849609 68.71912109 3.50390625 68.87890625 C2.67761719 68.91886719 1.85132813 68.95882812 1 69 C0 68 0 68 -0.12025452 65.29820251 C-0.11803391 64.09241043 -0.11581329 62.88661835 -0.11352539 61.64428711 C-0.11367142 60.98089828 -0.11381744 60.31750946 -0.1139679 59.63401794 C-0.11326881 57.43176044 -0.10547665 55.22958655 -0.09765625 53.02734375 C-0.09579206 51.50419664 -0.09436816 49.98104893 -0.09336853 48.457901 C-0.08954346 44.44162349 -0.07971328 40.42538192 -0.06866455 36.40911865 C-0.05845019 32.31376634 -0.05387086 28.21840824 -0.04882812 24.12304688 C-0.038091 16.08201472 -0.02101472 8.04101183 0 0 Z " fill="#2A286B" transform="translate(239,166)"/>
<path d="M0 0 C2 1.3125 2 1.3125 3 3 C3 3.99 3 4.98 3 6 C2.01 6 1.02 6 0 6 C-0.66 5.01 -1.32 4.02 -2 3 C-3.65 3.33 -5.3 3.66 -7 4 C-7 4.66 -7 5.32 -7 6 C-6.37351562 6.18175781 -5.74703125 6.36351562 -5.1015625 6.55078125 C-4.28429687 6.80214844 -3.46703125 7.05351562 -2.625 7.3125 C-1.81289062 7.55613281 -1.00078125 7.79976563 -0.1640625 8.05078125 C2 9 2 9 4 12 C3.6758631 15.32240324 3.39223697 16.60776303 1 19 C-2.0552401 19.56032396 -4.94381999 19.54826675 -8 19 C-10.5625 16.625 -10.5625 16.625 -12 14 C-12 13.34 -12 12.68 -12 12 C-10.68 12 -9.36 12 -8 12 C-7.67 12.99 -7.34 13.98 -7 15 C-4.69 15.33 -2.38 15.66 0 16 C-0.14657084 14.03385733 -0.14657084 14.03385733 -1 12 C-3.08034294 10.8624787 -3.08034294 10.8624787 -5.5625 10.25 C-6.38878906 10.00765625 -7.21507813 9.7653125 -8.06640625 9.515625 C-8.70449219 9.34546875 -9.34257813 9.1753125 -10 9 C-11.31343284 3.62686567 -11.31343284 3.62686567 -10.0625 1.125 C-6.80808226 -0.65013695 -3.61955351 -0.56555524 0 0 Z " fill="#2D2C75" transform="translate(130,255)"/>
<path d="M0 0 C22.11 0 44.22 0 67 0 C67 4.62 67 9.24 67 14 C58.75 14 50.5 14 42 14 C42 13.67 42 13.34 42 13 C42.6612085 12.97494385 43.32241699 12.9498877 44.00366211 12.92407227 C46.98182305 12.80846898 49.9596392 12.68558246 52.9375 12.5625 C54.49887695 12.50352539 54.49887695 12.50352539 56.09179688 12.44335938 C57.57583008 12.38051758 57.57583008 12.38051758 59.08984375 12.31640625 C60.00628662 12.27974854 60.92272949 12.24309082 61.86694336 12.20532227 C63.9820728 12.22996136 63.9820728 12.22996136 65 11 C65.33 7.7 65.66 4.4 66 1 C44.55 1 23.1 1 1 1 C1 4.96 1 8.92 1 13 C9.25 13 17.5 13 26 13 C26 13.33 26 13.66 26 14 C17.42 14 8.84 14 0 14 C0 9.38 0 4.76 0 0 Z " fill="#302D6D" transform="translate(138,152)"/>
<path d="M0 0 C0.99 0 1.98 0 3 0 C3.04898437 0.90363281 3.09796875 1.80726563 3.1484375 2.73828125 C3.22320313 3.91777344 3.29796875 5.09726562 3.375 6.3125 C3.44460937 7.48425781 3.51421875 8.65601563 3.5859375 9.86328125 C3.78613747 13.15699887 3.78613747 13.15699887 6 16 C7.65 15.67 9.3 15.34 11 15 C11.33 10.05 11.66 5.1 12 0 C13.32 0 14.64 0 16 0 C16.054348 2.0622048 16.09294961 4.12482816 16.125 6.1875 C16.14820312 7.33605469 16.17140625 8.48460937 16.1953125 9.66796875 C16.00313312 12.94654899 15.51407144 15.10420602 14 18 C10.87057535 19.56471233 7.38917777 19.69701958 4 19 C1.7578125 17.46484375 1.7578125 17.46484375 0 15 C-0.2911521 12.26317029 -0.38322418 9.96059961 -0.25 7.25 C-0.23195313 6.55261719 -0.21390625 5.85523438 -0.1953125 5.13671875 C-0.14838554 3.42388461 -0.07664605 1.71176176 0 0 Z " fill="#302F73" transform="translate(18,255)"/>
<path d="M0 0 C1.65 0 3.3 0 5 0 C7.31 6.27 9.62 12.54 12 19 C10.68 19 9.36 19 8 19 C7.34 17.02 6.68 15.04 6 13 C3.69 13 1.38 13 -1 13 C-1.66 14.98 -2.32 16.96 -3 19 C-3.99 19 -4.98 19 -6 19 C-5.28739906 14.71620357 -3.93078264 10.74906147 -2.4375 6.6875 C-2.20353516 6.04232422 -1.96957031 5.39714844 -1.72851562 4.73242188 C-1.15552993 3.15378781 -0.57820536 1.57672974 0 0 Z M2 4 C1.34 6.31 0.68 8.62 0 11 C1.65 11 3.3 11 5 11 C4.34 8.69 3.68 6.38 3 4 C2.67 4 2.34 4 2 4 Z " fill="#2C2B78" transform="translate(223,255)"/>
<path d="M0 0 C1.65 0 3.3 0 5 0 C7.31 6.27 9.62 12.54 12 19 C10.68 19 9.36 19 8 19 C7.34 17.02 6.68 15.04 6 13 C3.69 13 1.38 13 -1 13 C-1.66 14.98 -2.32 16.96 -3 19 C-3.99 19 -4.98 19 -6 19 C-5.28739906 14.71620357 -3.93078264 10.74906147 -2.4375 6.6875 C-2.20353516 6.04232422 -1.96957031 5.39714844 -1.72851562 4.73242188 C-1.15552993 3.15378781 -0.57820536 1.57672974 0 0 Z M2 4 C1.34 6.31 0.68 8.62 0 11 C1.65 11 3.3 11 5 11 C4.34 8.69 3.68 6.38 3 4 C2.67 4 2.34 4 2 4 Z " fill="#2C2D76" transform="translate(333,255)"/>
<path d="M0 0 C1.93166016 0.01740234 1.93166016 0.01740234 3.90234375 0.03515625 C5.19269531 0.04417969 6.48304687 0.05320313 7.8125 0.0625 C8.81152344 0.07410156 9.81054688 0.08570313 10.83984375 0.09765625 C11.67775164 1.8871881 12.51003771 3.6793532 13.33984375 5.47265625 C13.80390625 6.47039062 14.26796875 7.468125 14.74609375 8.49609375 C15.83984375 11.09765625 15.83984375 11.09765625 15.83984375 13.09765625 C15.17984375 13.09765625 14.51984375 13.09765625 13.83984375 13.09765625 C13.58589844 12.54335937 13.33195312 11.9890625 13.0703125 11.41796875 C12.72613281 10.69351563 12.38195312 9.9690625 12.02734375 9.22265625 C11.69089844 8.50335938 11.35445312 7.7840625 11.0078125 7.04296875 C9.84517278 4.79222819 9.84517278 4.79222819 6.83984375 3.09765625 C4.55335527 2.85658299 4.55335527 2.85658299 2.15234375 2.97265625 C0.93998047 2.99972656 0.93998047 2.99972656 -0.296875 3.02734375 C-0.91175781 3.05054688 -1.52664062 3.07375 -2.16015625 3.09765625 C-3.66899838 6.53134219 -5.16569026 9.97019174 -6.66015625 13.41015625 C-7.08941406 14.38662109 -7.51867187 15.36308594 -7.9609375 16.36914062 C-8.36699219 17.30693359 -8.77304688 18.24472656 -9.19140625 19.2109375 C-9.75698242 20.50704956 -9.75698242 20.50704956 -10.33398438 21.8293457 C-11.33127136 24.16511729 -11.33127136 24.16511729 -11.16015625 27.09765625 C-11.82015625 27.09765625 -12.48015625 27.09765625 -13.16015625 27.09765625 C-13.40765625 27.92265625 -13.65515625 28.74765625 -13.91015625 29.59765625 C-15.34720436 33.62139096 -17.1837014 37.31744649 -19.16015625 41.09765625 C-19.82015625 41.09765625 -20.48015625 41.09765625 -21.16015625 41.09765625 C-18.77283617 33.17529036 -15.43511532 25.74089755 -12.00732422 18.22900391 C-11.02568122 16.07688352 -10.05142818 13.92152813 -9.078125 11.765625 C-8.45745605 10.3969427 -7.83637754 9.02844604 -7.21484375 7.66015625 C-6.92318329 7.01546387 -6.63152283 6.37077148 -6.33102417 5.70654297 C-3.77447349 0.1166401 -3.77447349 0.1166401 0 0 Z " fill="#29276A" transform="translate(107.16015625,150.90234375)"/>
<path d="M0 0 C1.65 0 3.3 0 5 0 C7.31 6.27 9.62 12.54 12 19 C10.68 19 9.36 19 8 19 C7.34 17.02 6.68 15.04 6 13 C3.69 13 1.38 13 -1 13 C-1.66 14.98 -2.32 16.96 -3 19 C-3.66 19 -4.32 19 -5 19 C-4.48378772 12.16018724 -2.51409031 6.36123316 0 0 Z M2 4 C1.34 6.31 0.68 8.62 0 11 C1.65 11 3.3 11 5 11 C4.34 8.69 3.68 6.38 3 4 C2.67 4 2.34 4 2 4 Z " fill="#2F2E7B" transform="translate(5,255)"/>
<path d="M0 0 C2.5 1.875 2.5 1.875 4 4 C4 4.66 4 5.32 4 6 C2.68 6 1.36 6 0 6 C-0.474375 5.505 -0.94875 5.01 -1.4375 4.5 C-2.96378798 2.714174 -2.96378798 2.714174 -5.6875 2.8125 C-6.450625 2.874375 -7.21375 2.93625 -8 3 C-8.19658808 4.41543415 -8.38187546 5.83244031 -8.5625 7.25 C-8.66691406 8.03890625 -8.77132812 8.8278125 -8.87890625 9.640625 C-9.00027349 12.00532874 -8.69633257 13.7511037 -8 16 C-4.56769552 15.73606499 -4.56769552 15.73606499 -1 15 C-0.34 14.01 0.32 13.02 1 12 C1.99 12 2.98 12 4 12 C3.6875 14.375 3.6875 14.375 3 17 C-0.69308217 19.46205478 -3.71316878 19.57042512 -8 19 C-11.23613354 17.25746655 -11.82395315 16.52814056 -13 13 C-13.67605634 6.01408451 -13.67605634 6.01408451 -11 2 C-6.84437903 -0.77041398 -4.93332128 -0.70476018 0 0 Z " fill="#2D2D73" transform="translate(193,255)"/>
<path d="M0 0 C0.99 0 1.98 0 3 0 C3 2.64 3 5.28 3 8 C5.97 8 8.94 8 12 8 C12 5.36 12 2.72 12 0 C12.99 0 13.98 0 15 0 C15 6.27 15 12.54 15 19 C14.01 19 13.02 19 12 19 C12 16.03 12 13.06 12 10 C9.03 10 6.06 10 3 10 C3 12.97 3 15.94 3 19 C2.01 19 1.02 19 0 19 C0 12.73 0 6.46 0 0 Z " fill="#2E2D77" transform="translate(200,255)"/>
<path d="M0 0 C0.99 0 1.98 0 3 0 C3 2.64 3 5.28 3 8 C5.97 8 8.94 8 12 8 C12 5.36 12 2.72 12 0 C12.99 0 13.98 0 15 0 C15 6.27 15 12.54 15 19 C14.01 19 13.02 19 12 19 C12 16.03 12 13.06 12 10 C9.03 10 6.06 10 3 10 C3 12.97 3 15.94 3 19 C2.01 19 1.02 19 0 19 C0 12.73 0 6.46 0 0 Z " fill="#303076" transform="translate(54,255)"/>
<path d="M0 0 C3.86726742 -0.22098671 6.63228611 0.01391232 10 2 C12.84930526 5.82406758 13.91682265 7.81472279 14.25 12.5625 C12.77594582 16.61614898 11.46136539 18.48199085 7.91796875 20.90234375 C-0.22225401 23.96446235 -11.01788283 23.1622445 -19 20 C-19 19.34 -19 18.68 -19 18 C-20.093125 17.34 -21.18625 16.68 -22.3125 16 C-23.23482422 15.443125 -23.23482422 15.443125 -24.17578125 14.875 C-26.11361926 13.78376001 -26.11361926 13.78376001 -29 14 C-31.18777466 15.9375006 -31.18777466 15.9375006 -33 18 C-33.66 17.67 -34.32 17.34 -35 17 C-33.02 14.69 -31.04 12.38 -29 10 C-26.81290895 11.09354552 -24.63517561 12.21142579 -22.51953125 13.4375 C-13.16670026 18.83595945 -5.74336121 21.04011563 5 19 C7.96375149 18.07105046 7.96375149 18.07105046 10 17 C10.20625 15.7625 10.4125 14.525 10.625 13.25 C10.74101563 12.55390625 10.85703125 11.8578125 10.9765625 11.140625 C11.00591706 8.45957539 10.53728987 7.19612838 9 5 C6.84255767 3.66653971 6.84255767 3.66653971 4.375 2.75 C3.55773438 2.41484375 2.74046875 2.0796875 1.8984375 1.734375 C1.27195313 1.49203125 0.64546875 1.2496875 0 1 C0 0.67 0 0.34 0 0 Z " fill="#29276A" transform="translate(37,201)"/>
<path d="M0 0 C4.62 0 9.24 0 14 0 C14 0.66 14 1.32 14 2 C10.37 2 6.74 2 3 2 C3 3.98 3 5.96 3 8 C6.63 8 10.26 8 14 8 C14 8.66 14 9.32 14 10 C10.37 10 6.74 10 3 10 C3 12.31 3 14.62 3 17 C6.96 17 10.92 17 15 17 C15 17.66 15 18.32 15 19 C10.05 19 5.1 19 0 19 C0 12.73 0 6.46 0 0 Z " fill="#2B2B78" transform="translate(400,255)"/>
<path d="M0 0 C9.9609375 -0.29296875 9.9609375 -0.29296875 13 0 C15 3 15 3 14.75 6.625 C14.5025 7.73875 14.255 8.8525 14 10 C11.59454362 11.20272819 10.05003047 11.10071472 7.375 11.0625 C6.14910156 11.04896484 6.14910156 11.04896484 4.8984375 11.03515625 C3.95871094 11.01775391 3.95871094 11.01775391 3 11 C3 13.64 3 16.28 3 19 C2.01 19 1.02 19 0 19 C0 12.73 0 6.46 0 0 Z M3 2 C3 4.31 3 6.62 3 9 C6.41656024 9.16677282 6.41656024 9.16677282 10 9 C10.66 8.34 11.32 7.68 12 7 C11.59471099 4.21762345 11.59471099 4.21762345 10 2 C7.66702567 1.95907063 5.33294775 1.95758277 3 2 Z " fill="#2D2C74" transform="translate(313,255)"/>
<path d="M0 0 C4.62 0 9.24 0 14 0 C14 0.66 14 1.32 14 2 C10.37 2 6.74 2 3 2 C3 3.98 3 5.96 3 8 C6.3 8 9.6 8 13 8 C13 8.66 13 9.32 13 10 C9.7 10 6.4 10 3 10 C3 12.31 3 14.62 3 17 C6.63 17 10.26 17 14 17 C14 17.66 14 18.32 14 19 C9.38 19 4.76 19 0 19 C0 12.73 0 6.46 0 0 Z " fill="#2D2E7A" transform="translate(275,255)"/>
<path d="M0 0 C4.62 0 9.24 0 14 0 C14 0.66 14 1.32 14 2 C10.37 2 6.74 2 3 2 C3 3.98 3 5.96 3 8 C6.3 8 9.6 8 13 8 C13 8.66 13 9.32 13 10 C9.7 10 6.4 10 3 10 C3 12.31 3 14.62 3 17 C6.63 17 10.26 17 14 17 C14 17.66 14 18.32 14 19 C9.38 19 4.76 19 0 19 C0 12.73 0 6.46 0 0 Z " fill="#2E2E7C" transform="translate(137,255)"/>
<path d="M0 0 C1.48831242 0.00667405 2.97660807 0.01863442 4.46484375 0.03515625 C5.22345703 0.03966797 5.98207031 0.04417969 6.76367188 0.04882812 C8.64326246 0.06064945 10.52281274 0.07858547 12.40234375 0.09765625 C11.65234375 5.84765625 11.65234375 5.84765625 9.40234375 8.09765625 C9.40234375 5.78765625 9.40234375 3.47765625 9.40234375 1.09765625 C5.44234375 1.09765625 1.48234375 1.09765625 -2.59765625 1.09765625 C-2.26765625 2.41765625 -1.93765625 3.73765625 -1.59765625 5.09765625 C-2.25765625 5.09765625 -2.91765625 5.09765625 -3.59765625 5.09765625 C-3.77941406 5.66613281 -3.96117187 6.23460937 -4.1484375 6.8203125 C-5.34787724 10.50474536 -6.57845235 14.05463951 -8.16015625 17.59765625 C-9.33301246 20.45330614 -10.00778477 22.7967991 -10.59765625 25.78515625 C-11.31548218 29.29123164 -12.17819865 31.38786374 -14.59765625 34.09765625 C-15.61421706 35.75427386 -16.61830701 37.41877184 -17.59765625 39.09765625 C-18.59765625 37.09765625 -18.59765625 37.09765625 -17.44189453 33.58178711 C-16.85870036 32.07219814 -16.26675243 30.56597345 -15.66796875 29.0625 C-15.35818085 28.26864395 -15.04839294 27.4747879 -14.72921753 26.65687561 C-14.0719417 24.9767864 -13.41095577 23.29814469 -12.74658203 21.62084961 C-11.72664928 19.04523974 -10.717825 16.46549952 -9.7109375 13.88476562 C-9.07226068 12.25625688 -8.43295878 10.62799311 -7.79296875 9 C-7.48876007 8.22397934 -7.18455139 7.44795868 -6.87112427 6.64842224 C-4.2787346 0.11614372 -4.2787346 0.11614372 0 0 Z " fill="#29286A" transform="translate(357.59765625,151.90234375)"/>
<path d="M0 0 C2.52517453 2.52517453 3.41908333 4.97786111 4.828125 8.265625 C5.09961365 8.89547302 5.37110229 9.52532104 5.65081787 10.17425537 C6.52170695 12.19760668 7.38593844 14.22372499 8.25 16.25 C8.81596957 17.56789595 9.38237168 18.88560624 9.94921875 20.203125 C11.07627493 22.82447673 12.19884844 25.44768334 13.31835938 28.07226562 C14.45410448 30.73229147 15.60219853 33.38650908 16.75976562 36.03710938 C17.03931091 36.68017029 17.3188562 37.3232312 17.60687256 37.98577881 C18.37725697 39.75680332 19.15093028 41.52639614 19.92480469 43.29589844 C21 46 21 46 21 48 C19 48 19 48 17.4375 46.875 C16 45 16 45 15.5625 42.3125 C14.70665699 37.27253559 12.63691473 32.63691473 9 29 C9.66 29 10.32 29 11 29 C10.57847656 28.02417969 10.15695312 27.04835937 9.72265625 26.04296875 C9.16920669 24.75784012 8.61582481 23.47268234 8.0625 22.1875 C7.78470703 21.54490234 7.50691406 20.90230469 7.22070312 20.24023438 C6.0481189 17.51362285 4.93910451 14.81731354 4 12 C3.34 11.67 2.68 11.34 2 11 C0.9375 8.1875 0.9375 8.1875 0 5 C-0.226875 4.236875 -0.45375 3.47375 -0.6875 2.6875 C-0.790625 2.130625 -0.89375 1.57375 -1 1 C-0.67 0.67 -0.34 0.34 0 0 Z " fill="#29266C" transform="translate(410,174)"/>
<path d="M0 0 C6.10407923 1.05148568 10.37616279 5.86871366 14 10.625 C15.96347265 17.25172019 16.32916899 24.93706878 13.5 31.375 C10.67405461 36.12864385 6.12630246 41.03931331 0.75 42.69140625 C-0.11625 42.84416016 -0.11625 42.84416016 -1 43 C-1 42.34 -1 41.68 -1 41 C0.66666667 40 2.33333333 39 4 38 C4 37.34 4 36.68 4 36 C4.9590625 35.8453125 4.9590625 35.8453125 5.9375 35.6875 C6.9584375 35.3471875 6.9584375 35.3471875 8 35 C8.33 34.01 8.66 33.02 9 32 C9.515625 31.505 10.03125 31.01 10.5625 30.5 C12.34595268 28.98527194 12.34595268 28.98527194 12 26 C12.66 26 13.32 26 14 26 C13.88590407 24.54077307 13.75834456 23.08259402 13.625 21.625 C13.55539063 20.81289062 13.48578125 20.00078125 13.4140625 19.1640625 C13.17107412 16.79665809 13.17107412 16.79665809 11 15 C10.87625 14.030625 10.7525 13.06125 10.625 12.0625 C10.29716715 8.97877814 10.29716715 8.97877814 8.3125 7.375 C7.549375 6.92125 6.78625 6.4675 6 6 C3.97048465 4.71203834 1.96498322 3.38442 0 2 C0 1.34 0 0.68 0 0 Z " fill="#27256B" transform="translate(49,190)"/>
<path d="M0 0 C5.28 0 10.56 0 16 0 C16 0.66 16 1.32 16 2 C14.02 2 12.04 2 10 2 C10 7.61 10 13.22 10 19 C8.68 19 7.36 19 6 19 C6 13.39 6 7.78 6 2 C4.02 2 2.04 2 0 2 C0 1.34 0 0.68 0 0 Z " fill="#2D2D71" transform="translate(363,255)"/>
<path d="M0 0 C1.65 0 3.3 0 5 0 C5 0.99 5 1.98 5 3 C4.34 3 3.68 3 3 3 C3.31195313 3.67546875 3.62390625 4.3509375 3.9453125 5.046875 C4.33460938 5.93890625 4.72390625 6.8309375 5.125 7.75 C5.51945312 8.63171875 5.91390625 9.5134375 6.3203125 10.421875 C7.14243842 13.54028366 6.53599784 14.29060054 5 17 C0.70805854 16.86162204 -3.58346929 16.71304061 -7.875 16.5625 C-9.09832031 16.52318359 -10.32164062 16.48386719 -11.58203125 16.44335938 C-12.74863281 16.40146484 -13.91523438 16.35957031 -15.1171875 16.31640625 C-16.19597168 16.27974854 -17.27475586 16.24309082 -18.38623047 16.20532227 C-21 16 -21 16 -23 15 C-23 14.34 -23 13.68 -23 13 C-9.14 13.495 -9.14 13.495 5 14 C3.35 10.04 1.7 6.08 0 2 C0 1.34 0 0.68 0 0 Z " fill="#28266B" transform="translate(401,187)"/>
<path d="M0 0 C4.95 0 9.9 0 15 0 C15 0.66 15 1.32 15 2 C13.02 2 11.04 2 9 2 C9 7.61 9 13.22 9 19 C8.01 19 7.02 19 6 19 C6 13.39 6 7.78 6 2 C4.02 2 2.04 2 0 2 C0 1.34 0 0.68 0 0 Z " fill="#31317C" transform="translate(36,255)"/>
<path d="M0 0 C1.32 0 2.64 0 4 0 C4 6.27 4 12.54 4 19 C2.68 19 1.36 19 0 19 C0 12.73 0 6.46 0 0 Z " fill="#2A2E78" transform="translate(112,255)"/>
<path d="M0 0 C0.99 0 1.98 0 3 0 C3 5.61 3 11.22 3 17 C5.97 17 8.94 17 12 17 C12 17.66 12 18.32 12 19 C8.04 19 4.08 19 0 19 C0 12.73 0 6.46 0 0 Z " fill="#312E70" transform="translate(292,255)"/>
<path d="M0 0 C0.33 0 0.66 0 1 0 C1 22.11 1 44.22 1 67 C-0.485 67.495 -0.485 67.495 -2 68 C-1.83923477 67.30598587 -1.67846954 66.61197174 -1.51283264 65.89692688 C-0.95870217 62.76671375 -0.83926611 59.82768445 -0.79467773 56.64916992 C-0.7647599 54.75777534 -0.7647599 54.75777534 -0.73423767 52.82817078 C-0.71725732 51.46227133 -0.70037837 50.09637062 -0.68359375 48.73046875 C-0.66300526 47.32513341 -0.6420083 45.919804 -0.62062073 44.51448059 C-0.56559565 40.82712627 -0.51610067 37.13971788 -0.46777344 33.45227051 C-0.41741496 29.68492864 -0.361804 25.91766466 -0.30664062 22.15039062 C-0.19929859 14.76699317 -0.09780112 7.38353066 0 0 Z " fill="#2D2D64" transform="translate(254,167)"/>
<path d="M0 0 C0.66 0 1.32 0 2 0 C4.61588503 3.55760365 5.49357808 6.64477147 6 11 C9.96 11 13.92 11 18 11 C18.33 9.35 18.66 7.7 19 6 C20.5625 3.1875 20.5625 3.1875 22 1 C23.57873923 5.73621769 21.10863845 8.59102869 19 13 C14.38 13 9.76 13 5 13 C0 2.25 0 2.25 0 0 Z " fill="#2A276A" transform="translate(318,222)"/>
<path d="M0 0 C4.62 0 9.24 0 14 0 C15.32002556 2.55886504 16.63113782 5.12167068 17.9375 7.6875 C18.31068359 8.40873047 18.68386719 9.12996094 19.06835938 9.87304688 C20.93965239 13.56505742 22.48269556 16.83693096 23 21 C18.98644971 17.61465758 17.52343124 14.03645472 15.75 9.25 C15.481875 8.55261719 15.21375 7.85523438 14.9375 7.13671875 C14.28214041 5.42810267 13.63974732 3.71452281 13 2 C9.37 1.67 5.74 1.34 2 1 C1.731875 2.134375 1.46375 3.26875 1.1875 4.4375 C0.795625 5.613125 0.40375 6.78875 0 8 C-0.99 8.33 -1.98 8.66 -3 9 C-2.01 6.03 -1.02 3.06 0 0 Z " fill="#2A2766" transform="translate(386,151)"/>
<path d="M0 0 C5.61 0 11.22 0 17 0 C17.66 1.98 18.32 3.96 19 6 C18.01 5.67 17.02 5.34 16 5 C15.67 4.34 15.34 3.68 15 3 C12.41394668 2.5316735 12.41394668 2.5316735 9.4375 2.375 C7.91962891 2.26285156 7.91962891 2.26285156 6.37109375 2.1484375 C5.19740234 2.07496094 5.19740234 2.07496094 4 2 C4.66 4.64 5.32 7.28 6 10 C5.01 10.495 5.01 10.495 4 11 C3.32880451 9.5437455 2.66318193 8.08492133 2 6.625 C1.62875 5.81289062 1.2575 5.00078125 0.875 4.1640625 C0 2 0 2 0 0 Z " fill="#29266D" transform="translate(289,152)"/>
<path d="M0 0 C0.99 0.66 1.98 1.32 3 2 C2.505 2.78375 2.01 3.5675 1.5 4.375 C-0.16537965 6.78552327 -0.16537965 6.78552327 0 9 C-0.66 9 -1.32 9 -2 9 C-2.12375 9.721875 -2.2475 10.44375 -2.375 11.1875 C-2.9904931 13.95721894 -3.88444374 16.3970354 -5 19 C-3.02 19.66 -1.04 20.32 1 21 C1 21.33 1 21.66 1 22 C-1.97 22 -4.94 22 -8 22 C-8.33 21.34 -8.66 20.68 -9 20 C-8.28735352 17.93701172 -8.28735352 17.93701172 -7.12890625 15.4296875 C-6.51499023 14.08583984 -6.51499023 14.08583984 -5.88867188 12.71484375 C-5.45103516 11.77769531 -5.01339844 10.84054688 -4.5625 9.875 C-3.9118457 8.45767578 -3.9118457 8.45767578 -3.24804688 7.01171875 C-2.1723338 4.67115623 -1.08940487 2.33421339 0 0 Z " fill="#29266C" transform="translate(359,213)"/>
<path d="M0 0 C3.68548192 3.68548192 5 7.86850209 5 13 C0.05 13 -4.9 13 -10 13 C-10.66 11.68 -11.32 10.36 -12 9 C-11.01 9.33 -10.02 9.66 -9 10 C-7.27204648 10.06802967 -5.54164635 10.08495645 -3.8125 10.0625 C-2.224375 10.041875 -0.63625 10.02125 1 10 C0.67 6.7 0.34 3.4 0 0 Z " fill="#292664" transform="translate(431,222)"/>
<path d="M0 0 C3.28874194 4.9331129 5.06238066 10.54780059 7.1875 16.0625 C7.66380859 17.27228516 8.14011719 18.48207031 8.63085938 19.72851562 C9.07623047 20.88158203 9.52160156 22.03464844 9.98046875 23.22265625 C10.39192139 24.28234619 10.80337402 25.34203613 11.22729492 26.43383789 C12 29 12 29 11 31 C8.37051614 26.96186407 6.63769923 22.75711788 5 18.25 C4.73944824 17.54423828 4.47889648 16.83847656 4.21044922 16.11132812 C2.37308707 11.10598132 0.63171739 6.07645411 -1 1 C-0.67 0.67 -0.34 0.34 0 0 Z " fill="#282667" transform="translate(315,176)"/>
<path d="M0 0 C0.66 0.33 1.32 0.66 2 1 C0.24009216 6.91969002 -2.39694605 12.41634992 -5 18 C-7.31 18 -9.62 18 -12 18 C-11.01 17.67 -10.02 17.34 -9 17 C-8.26676204 14.98491642 -8.26676204 14.98491642 -8 13 C-6.68 12.67 -5.36 12.34 -4 12 C-3.8453125 10.4221875 -3.8453125 10.4221875 -3.6875 8.8125 C-3.02266585 5.12569246 -2.11433704 3.03361401 0 0 Z " fill="#272568" transform="translate(88,217)"/>
<path d="M0 0 C0.20625 0.5775 0.4125 1.155 0.625 1.75 C3.59031539 6.60233427 8.58665945 8.42941197 13.859375 9.7734375 C14.52453125 9.93070313 15.1896875 10.08796875 15.875 10.25 C16.56335938 10.42273438 17.25171875 10.59546875 17.9609375 10.7734375 C19.63805318 11.19271642 21.31869349 11.59785544 23 12 C21.68 12.99 20.36 13.98 19 15 C18.154375 14.54625 17.30875 14.0925 16.4375 13.625 C13.0525856 11.90769899 13.0525856 11.90769899 9.4375 11 C6.09500104 10.02763667 3.74983331 9.12129998 1 7 C-0.375 4.4375 -0.375 4.4375 -1 2 C-0.67 1.34 -0.34 0.68 0 0 Z " fill="#2A2768" transform="translate(18,174)"/>
<path d="M0 0 C0.66 0 1.32 0 2 0 C-0.29824964 9.10544621 -4.1402523 17.4768311 -8 26 C-8.66 25.67 -9.32 25.34 -10 25 C-8.39249302 19.73906808 -6.53413969 14.87006703 -3.984375 9.99609375 C-2.38740679 6.7577971 -1.21363072 3.39816602 0 0 Z " fill="#262469" transform="translate(107,172)"/>
<path d="M0 0 C2.79872437 2.52788007 4.45773019 4.20411134 5 8 C4.01 8.495 4.01 8.495 3 9 C2.01 7.35 1.02 5.7 0 4 C-1.98 8.62 -3.96 13.24 -6 18 C-6.66 18 -7.32 18 -8 18 C-8 16.35 -8 14.7 -8 13 C-7.34 13 -6.68 13 -6 13 C-5.71125 11.948125 -5.4225 10.89625 -5.125 9.8125 C-4.22453345 6.76091892 -3.35309767 3.87533255 -2 1 C-1.34 0.67 -0.68 0.34 0 0 Z " fill="#272570" transform="translate(393,168)"/>
<path d="M0 0 C0.66 0.66 1.32 1.32 2 2 C1.566875 2.90492188 1.566875 2.90492188 1.125 3.828125 C0.75375 4.62734375 0.3825 5.4265625 0 6.25 C-0.37125 7.03890625 -0.7425 7.8278125 -1.125 8.640625 C-2.23181252 11.2056657 -2.23181252 11.2056657 -2 15 C-2.99 15.495 -2.99 15.495 -4 16 C-5.05352843 18.30965848 -6.05719096 20.6429774 -7 23 C-7.66 23 -8.32 23 -9 23 C-6.54234965 15.08090444 -3.33181427 7.58014704 0 0 Z " fill="#28256C" transform="translate(382,160)"/>
<path d="M0 0 C-1.134375 0.45375 -2.26875 0.9075 -3.4375 1.375 C-7.04721692 2.57095806 -7.04721692 2.57095806 -8 5 C-8.66 5 -9.32 5 -10 5 C-10.33 5.66 -10.66 6.32 -11 7 C-11.99 7.495 -11.99 7.495 -13 8 C-13.495 8.845625 -13.99 9.69125 -14.5 10.5625 C-14.995 11.366875 -15.49 12.17125 -16 13 C-16.66 13 -17.32 13 -18 13 C-16.64527694 7.41176736 -12.41886827 4.30998246 -8 1 C-4.84961475 -0.83094345 -3.48493967 -1.24462131 0 0 Z " fill="#292B6C" transform="translate(23,153)"/>
<path d="M0 0 C2.60332156 3.16063087 4.14038576 6.3431652 5.6875 10.125 C6.34298828 11.70667969 6.34298828 11.70667969 7.01171875 13.3203125 C8 16 8 16 8 18 C5.03 18 2.06 18 -1 18 C-1 17.67 -1 17.34 -1 17 C0.98 17 2.96 17 5 17 C4.67515625 16.18595703 4.67515625 16.18595703 4.34375 15.35546875 C4.0653125 14.64003906 3.786875 13.92460937 3.5 13.1875 C3.2215625 12.47980469 2.943125 11.77210938 2.65625 11.04296875 C2 9 2 9 2 6 C1.34 6 0.68 6 0 6 C-0.38218767 4.34385343 -0.71395102 2.67542976 -1 1 C-0.67 0.67 -0.34 0.34 0 0 Z " fill="#23205E" transform="translate(146,217)"/>
<path d="M0 0 C0.66 0.33 1.32 0.66 2 1 C-0.97 8.26 -3.94 15.52 -7 23 C-8.06843706 18.72625176 -7.68961319 17.86247676 -5.90234375 14.08203125 C-4.21522414 10.18924012 -3.15633504 6.07587598 -2 2 C-1.34 2 -0.68 2 0 2 C0 1.34 0 0.68 0 0 Z " fill="#272569" transform="translate(355,185)"/>
<path d="M0 0 C0.33 0 0.66 0 1 0 C1 1.98 1 3.96 1 6 C0.34 6 -0.32 6 -1 6 C-1.12375 7.134375 -1.2475 8.26875 -1.375 9.4375 C-1.58125 10.613125 -1.7875 11.78875 -2 13 C-2.99 13.495 -2.99 13.495 -4 14 C-4.65213292 16.02463255 -4.65213292 16.02463255 -5 18 C-3.68 18.33 -2.36 18.66 -1 19 C-2.98 19 -4.96 19 -7 19 C-6.4253379 14.21357393 -5.01754357 10.46211213 -2.9375 6.125 C-2.38964844 4.97257813 -1.84179688 3.82015625 -1.27734375 2.6328125 C-0.85582031 1.76398438 -0.43429688 0.89515625 0 0 Z " fill="#2C2A6A" transform="translate(75,216)"/>
<path d="M0 0 C0.66 0 1.32 0 2 0 C2.67057887 1.7902061 3.3363469 3.58221489 4 5.375 C4.556875 6.87160156 4.556875 6.87160156 5.125 8.3984375 C6 11 6 11 6 13 C6.66 13 7.32 13 8 13 C8 13.66 8 14.32 8 15 C8.99 15.33 9.98 15.66 11 16 C9.35 16 7.7 16 6 16 C0.44419134 5.62642369 0.44419134 5.62642369 0 0 Z " fill="#2C2969" transform="translate(132,219)"/>
<path d="M0 0 C2 3 2 3 2.9375 5.625 C3.288125 6.40875 3.63875 7.1925 4 8 C4.99 8.33 5.98 8.66 7 9 C6.67 9.99 6.34 10.98 6 12 C6.88319294 15.15020361 6.88319294 15.15020361 8 18 C7.34 18.33 6.68 18.66 6 19 C4.80303299 16.2120519 3.61716986 13.42025583 2.4375 10.625 C2.09525391 9.8309375 1.75300781 9.036875 1.40039062 8.21875 C1.08134766 7.45820313 0.76230469 6.69765625 0.43359375 5.9140625 C0.13509521 5.2123291 -0.16340332 4.5105957 -0.47094727 3.78759766 C-1 2 -1 2 0 0 Z " fill="#25226B" transform="translate(311,202)"/>
<path d="M0 0 C2.25597827 2.25597827 2.96574192 4.04603867 4.125 7 C4.47820312 7.886875 4.83140625 8.77375 5.1953125 9.6875 C6 12 6 12 6 14 C5.34 14 4.68 14 4 14 C3.01 12.02 2.02 10.04 1 8 C0.01 8.99 -0.98 9.98 -2 11 C-2 8 -2 8 0 5 C-0.39938767 2.90178785 -0.39938767 2.90178785 -1 1 C-0.67 0.67 -0.34 0.34 0 0 Z " fill="#28256F" transform="translate(123,164)"/>
<path d="M0 0 C4.62 0 9.24 0 14 0 C14 0.66 14 1.32 14 2 C10.37 2 6.74 2 3 2 C3 3.65 3 5.3 3 7 C1 5 1 5 0 0 Z " fill="#2A2C75" transform="translate(137,255)"/>
<path d="M0 0 C0.66 0 1.32 0 2 0 C2.64376802 3.2993111 2.99564241 6.25274019 2.9375 9.625 C2.99697537 12.83667014 3.30165651 14.34633829 5 17 C4.34 17.33 3.68 17.66 3 18 C-0.24201565 11.92122066 -0.33278764 6.81598387 0 0 Z " fill="#2E2B68" transform="translate(3,170)"/>
<path d="M0 0 C1.32 0.33 2.64 0.66 4 1 C3.38801624 4.43950364 2.07941153 6.51564485 -0.0625 9.25 C-0.61035156 9.95640625 -1.15820312 10.6628125 -1.72265625 11.390625 C-2.14417969 11.92171875 -2.56570312 12.4528125 -3 13 C-5.475 12.01 -5.475 12.01 -8 11 C-6 10 -6 10 -3 10 C-0.64119086 7.29527096 -0.64119086 7.29527096 1 4 C0.88556744 1.68973726 0.88556744 1.68973726 0 0 Z " fill="#292668" transform="translate(57,159)"/>
<path d="M0 0 C0.66 0 1.32 0 2 0 C0.33846988 5.85659906 -1.47041916 11.4590134 -4 17 C-4.33 17 -4.66 17 -5 17 C-4.53444296 10.59859065 -2.85288164 5.73230171 0 0 Z " fill="#29266C" transform="translate(365,160)"/>
<path d="M0 0 C1.66832577 2.50248865 2.62381674 4.41149187 3.625 7.1875 C3.88539063 7.90292969 4.14578125 8.61835938 4.4140625 9.35546875 C4.60742188 9.89816406 4.80078125 10.44085938 5 11 C3.68 11 2.36 11 1 11 C-0.98362069 8.08291076 -0.9876191 6.87619096 -0.625 3.25 C-0.41875 2.1775 -0.2125 1.105 0 0 Z " fill="#2D2C73" transform="translate(340,263)"/>
<path d="M0 0 C0.99 0 1.98 0 3 0 C3 4.95 3 9.9 3 15 C0.619027 12.619027 0.02857413 11.7612149 -0.09765625 8.3984375 C-0.08605469 7.40070313 -0.07445312 6.40296875 -0.0625 5.375 C-0.05347656 4.37210937 -0.04445312 3.36921875 -0.03515625 2.3359375 C-0.02355469 1.56507813 -0.01195312 0.79421875 0 0 Z " fill="#31327F" transform="translate(249,255)"/>
<path d="M0 0 C0.66 0 1.32 0 2 0 C3.03028044 2.45475514 4.04945504 4.91314351 5.0625 7.375 C5.50432617 8.42300781 5.50432617 8.42300781 5.95507812 9.4921875 C6.69591098 11.30504908 7.35396964 13.15123143 8 15 C7.67 15.66 7.34 16.32 7 17 C4.79168118 14.79168118 4.3885542 13.50342124 3.5 10.5625 C2.58317446 7.53797225 1.79028536 5.68542804 0 3 C0 2.01 0 1.02 0 0 Z " fill="#282666" transform="translate(307,159)"/>
<path d="M0 0 C1.32830615 3.98491845 0.23204404 5.40048548 -1.4375 9.1875 C-1.91058594 10.27417969 -2.38367188 11.36085937 -2.87109375 12.48046875 C-3.42990234 13.72763672 -3.42990234 13.72763672 -4 15 C-4.66 14.67 -5.32 14.34 -6 14 C-5.57316761 12.41375765 -5.13303842 10.8310902 -4.6875 9.25 C-4.32205078 7.92742187 -4.32205078 7.92742187 -3.94921875 6.578125 C-2.97874669 3.94227495 -1.78994356 2.14592674 0 0 Z " fill="#2A2769" transform="translate(346,208)"/>
<path d="M0 0 C2.57112831 1.76765071 3.07659703 3.45089059 4 6.375 C1.6875 6.1875 1.6875 6.1875 -1 5.375 C-2.8125 2.8125 -2.8125 2.8125 -4 0.375 C-2 -0.625 -2 -0.625 0 0 Z " fill="#2D2D6B" transform="translate(359,267.625)"/>
<path d="M0 0 C0.66 0 1.32 0 2 0 C2.83986084 1.93467942 3.67168027 3.87285129 4.5 5.8125 C5.19609375 7.43091797 5.19609375 7.43091797 5.90625 9.08203125 C7 12 7 12 7 15 C6.01 15 5.02 15 4 15 C3.87882813 14.41992188 3.75765625 13.83984375 3.6328125 13.2421875 C2.66264526 8.71971558 1.56602217 4.36249034 0 0 Z " fill="#2A286B" transform="translate(130,182)"/>
<path d="M0 0 C0.33 0 0.66 0 1 0 C1 4.95 1 9.9 1 15 C0.01 15 -0.98 15 -2 15 C-1.34 10.05 -0.68 5.1 0 0 Z " fill="#313068" transform="translate(44,259)"/>
<path d="M0 0 C0.66 0 1.32 0 2 0 C2.28875 0.78375 2.5775 1.5675 2.875 2.375 C3.84912254 5.09671632 3.84912254 5.09671632 6 7 C5.625 9.625 5.625 9.625 5 12 C1.94063363 8.24532309 0 4.91886939 0 0 Z " fill="#2D296F" transform="translate(294,163)"/>
<path d="M0 0 C1.32 0.33 2.64 0.66 4 1 C3.67 1.99 3.34 2.98 3 4 C3.66 4.33 4.32 4.66 5 5 C5.625 7.5625 5.625 7.5625 6 10 C5.01 9.67 4.02 9.34 3 9 C2.05078125 6.93359375 2.05078125 6.93359375 1.3125 4.4375 C1.06113281 3.61121094 0.80976562 2.78492188 0.55078125 1.93359375 C0.36902344 1.29550781 0.18726562 0.65742188 0 0 Z " fill="#272472" transform="translate(112,173)"/>
<path d="M0 0 C0.66 0.99 1.32 1.98 2 3 C5.05429073 4.21284876 5.05429073 4.21284876 8 5 C8 5.33 8 5.66 8 6 C5.03 6 2.06 6 -1 6 C-1.33 5.34 -1.66 4.68 -2 4 C-1.0625 1.875 -1.0625 1.875 0 0 Z " fill="#323067" transform="translate(352,229)"/>
<path d="M0 0 C2 2 4 4 6 6 C5.67 6.66 5.34 7.32 5 8 C2.36 6.02 -0.28 4.04 -3 2 C-2.01 1.34 -1.02 0.68 0 0 Z " fill="#2B286F" transform="translate(10,187)"/>
<path d="M0 0 C2.46278801 2.46278801 2.99771255 4.70676982 4 8 C2.68 8 1.36 8 0 8 C-0.66 6.35 -1.32 4.7 -2 3 C-1.34 3 -0.68 3 0 3 C0 2.01 0 1.02 0 0 Z " fill="#2F2E6D" transform="translate(13,266)"/>
<path d="M0 0 C2.46278801 2.46278801 2.99771255 4.70676982 4 8 C2.68 8 1.36 8 0 8 C-0.66 6.35 -1.32 4.7 -2 3 C-1.34 3 -0.68 3 0 3 C0 2.01 0 1.02 0 0 Z " fill="#2E2C71" transform="translate(231,266)"/>
<path d="M0 0 C1.32 0.33 2.64 0.66 4 1 C2.84826645 3.46800047 1.95216435 5.04783565 0 7 C-0.66 6.67 -1.32 6.34 -2 6 C-1.34 4.02 -0.68 2.04 0 0 Z " fill="#31317D" transform="translate(223,257)"/>
<path d="M0 0 C2 3 2 3 2 7 C0.35 7.33 -1.3 7.66 -3 8 C-1.125 1.125 -1.125 1.125 0 0 Z " fill="#25286A" transform="translate(338,193)"/>
<path d="M0 0 C1 2 1 2 0.22265625 4.3828125 C-0.16019531 5.28773438 -0.54304688 6.19265625 -0.9375 7.125 C-1.31777344 8.03507813 -1.69804687 8.94515625 -2.08984375 9.8828125 C-2.39019531 10.58148438 -2.69054687 11.28015625 -3 12 C-3.99 11.34 -4.98 10.68 -6 10 C-5.34 10 -4.68 10 -4 10 C-4 8.35 -4 6.7 -4 5 C-3.01 4.67 -2.02 4.34 -1 4 C-0.26676204 1.98491642 -0.26676204 1.98491642 0 0 Z " fill="#262468" transform="translate(384,188)"/>
<path d="M0 0 C3.91211733 1.15585285 6.8745041 2.35534962 10 5 C8.54054712 4.91291331 7.08234132 4.80473093 5.625 4.6875 C4.81289063 4.62949219 4.00078125 4.57148438 3.1640625 4.51171875 C1 4 1 4 -1 1 C-0.67 0.67 -0.34 0.34 0 0 Z " fill="#2F2C6C" transform="translate(47,153)"/>
<path d="M0 0 C0.99 1.32 1.98 2.64 3 4 C2.34 5.32 1.68 6.64 1 8 C0.34 8 -0.32 8 -1 8 C-0.67 5.36 -0.34 2.72 0 0 Z " fill="#28276F" transform="translate(1,266)"/>
<path d="M0 0 C3.35914922 2.23943282 3.81681636 3.26842083 5 7 C5 7.99 5 8.98 5 10 C4.34 10 3.68 10 3 10 C0 3.375 0 3.375 0 0 Z " fill="#252267" transform="translate(118,186)"/>
<path d="M0 0 C0.66 0.33 1.32 0.66 2 1 C1.1875 4.4375 1.1875 4.4375 0 8 C-0.99 8.33 -1.98 8.66 -3 9 C-2.01 6.03 -1.02 3.06 0 0 Z " fill="#232266" transform="translate(386,151)"/>
<path d="M0 0 C0.33 0 0.66 0 1 0 C1 2.31 1 4.62 1 7 C0.01 7 -0.98 7 -2 7 C-2.125 4.625 -2.125 4.625 -2 2 C-1.34 1.34 -0.68 0.68 0 0 Z " fill="#2E2B6B" transform="translate(202,267)"/>
<path d="M0 0 C2 3 2 3 2 5 C2.66 5 3.32 5 4 5 C4.33 4.34 4.66 3.68 5 3 C5.33 3.99 5.66 4.98 6 6 C4.35 6.33 2.7 6.66 1 7 C0.67 4.69 0.34 2.38 0 0 Z " fill="#232168" transform="translate(327,207)"/>
<path d="M0 0 C0 0.66 0 1.32 0 2 C-1.258125 1.87625 -2.51625 1.7525 -3.8125 1.625 C-4.87404297 1.52058594 -4.87404297 1.52058594 -5.95703125 1.4140625 C-8 1 -8 1 -11 -1 C-6.74938644 -2.41687119 -4.28148375 -1.19320039 0 0 Z " fill="#2E2D6D" transform="translate(37,199)"/>
<path d="M0 0 C2.6855594 2.6855594 3.06049974 5.37621328 4 9 C3.01 8.67 2.02 8.34 1 8 C0.67 5.36 0.34 2.72 0 0 Z " fill="#2B276B" transform="translate(139,201)"/>
</svg>
